<?xml version="1.0" encoding="UTF-8"?>
<svg width="545px" height="545px" viewBox="0 0 545 545" version="1.1" xmlns="http://www.w3.org/2000/svg" xmlns:xlink="http://www.w3.org/1999/xlink">
    <!-- Generator: Sketch 57.1 (83088) - https://sketch.com -->
    <title>b2b</title>
    <desc>Created with Sketch.</desc>
    <defs>
        <polygon id="path-1" points="0 333 355.005 333 355.005 0.49 0 0.49"></polygon>
    </defs>
    <g id="UI" stroke="none" stroke-width="1" fill="none" fill-rule="evenodd">
        <g id="images" transform="translate(-1001.000000, -601.000000)">
            <g id="b2b" transform="translate(1001.000000, 601.000000)">
                <circle id="Oval" fill="#FFFFFF" cx="272.5" cy="272.5" r="272.5"></circle>
                <g transform="translate(95.000000, 106.000000)">
                    <polygon id="Fill-1" fill="#3A426D" points="179.064031 239.77178 150.997492 236 122.940985 239.77178 121 251 181 251"></polygon>
                    <polygon id="Fill-2" fill="#848AB8" points="181 251 121 251 115.7485 284.1755 187.0585 284.1755"></polygon>
                    <g id="Group-35">
                        <path d="M217.7835,295.0655 L214.3835,289.8705 C210.3835,287.2355 187.4635,285.7605 187.4635,285.7605 L187.3385,285.7555 L187.0585,284.1755 L115.7485,284.1755 L115.4635,285.7555 L115.3485,285.7605 C115.3485,285.7605 92.4235,287.2355 88.4185,289.8705 L85.0185,295.0655 C83.6235,295.9905 85.0485,297.5555 87.2735,297.5555 L151.4035,297.5555 L215.5335,297.5555 C217.7585,297.5555 219.1835,295.9905 217.7835,295.0655" id="Fill-3" fill="#848AB8"></path>
                        <path d="M301.6265,49.565 L1.1765,49.565 C0.5265,49.565 0.0015,50.09 0.0015,50.74 L0.0015,240.41 C0.0015,241.06 0.5265,241.59 1.1765,241.59 L301.6315,241.59 C302.2815,241.59 302.8065,241.06 302.8065,240.41 L302.8065,50.745 C302.8065,50.09 302.2815,49.565 301.6265,49.565" id="Fill-5" fill="#848AB8"></path>
                        <mask id="mask-2" fill="white">
                            <use xlink:href="#path-1"></use>
                        </mask>
                        <g id="Clip-8"></g>
                        <polygon id="Fill-7" fill="#231F20" mask="url(#mask-2)" points="16.25 228.295 286.56 228.295 286.56 62.86 16.25 62.86"></polygon>
                        <polygon id="Fill-9" fill="#DFE2ED" mask="url(#mask-2)" points="210.1665 66.103 20.2115 66.103 20.2115 67.628 20.2115 224.178 167.9165 224.178 210.1665 224.178 281.7765 224.178 281.7765 66.103"></polygon>
                        <polygon id="Fill-10" fill="#F5F5FA" mask="url(#mask-2)" points="20.2105 68.4955 20.2105 224.1805 167.9155 224.1805 210.1655 224.1805 281.7755 224.1805 281.7755 223.0555"></polygon>
                        <path d="M242.603,172.3015 L242.608,316.1365 C242.608,325.4115 249.063,333.0015 256.948,333.0015 L340.663,332.9965 C348.553,332.9965 355.003,325.4065 355.003,316.1315 L355.003,172.3015 C354.998,163.0265 348.548,155.4315 340.658,155.4315 L256.943,155.4365 C249.058,155.4365 242.603,163.0265 242.603,172.3015" id="Fill-14" fill="#3A426D" mask="url(#mask-2)"></path>
                        <polygon id="Fill-15" fill="#FFFFFF" mask="url(#mask-2)" points="257.8615 174.98 256.1115 174.98 256.1115 296.99 341.4965 296.99 341.4965 296.305 341.4965 296.1 341.4965 174.98"></polygon>
                        <path d="M298.545,311.1275 C302.91,311.1275 306.45,314.6675 306.45,319.0325 C306.45,323.3975 302.91,326.9375 298.545,326.9375 C294.18,326.9375 290.64,323.3975 290.64,319.0325 C290.64,314.6675 294.18,311.1275 298.545,311.1275" id="Fill-16" fill="#D8E0E7" mask="url(#mask-2)"></path>
                        <path d="M294.3315,165.168 C293.4765,165.158 292.7865,164.463 292.796393,163.608 C292.796393,162.748 293.5015,162.058 294.3565,162.063 L308.9715,162.138 L308.9815,162.138 C309.8365,162.148 310.5165,162.848 310.511527,163.698 C310.511527,164.558 309.8115,165.248 308.9565,165.243 L294.3365,165.168 L294.3315,165.168 Z" id="Fill-17" fill="#929497" mask="url(#mask-2)"></path>
                        <path d="M287.2515,170.129 C286.3965,170.119 285.7065,169.424 285.711473,168.569 C285.7165,167.709 286.4165,167.019 287.2765,167.024 L313.3565,167.154 L313.3615,167.154 C314.2165,167.164 314.9015,167.854 314.896527,168.714 C314.8915,169.574 314.1965,170.264 313.3365,170.259 L287.2565,170.129 L287.2515,170.129 Z" id="Fill-18" fill="#929497" mask="url(#mask-2)"></path>
                        <path d="M275.552,162.946 C277.632,162.946 279.317,164.631 279.317,166.716 C279.317,168.796 277.632,170.481 275.552,170.481 C273.467,170.481 271.782,168.796 271.782,166.716 C271.782,164.631 273.467,162.946 275.552,162.946" id="Fill-19" fill="#929497" mask="url(#mask-2)"></path>
                        <polygon id="Fill-20" fill="#7D7CFB" mask="url(#mask-2)" points="216.759 79.8305 86.209 79.8305 86.209 204.1605 178.159 204.1605 216.759 203.7505"></polygon>
                        <polygon id="Fill-21" fill="#FFFFFF" mask="url(#mask-2)" points="208.81 87.399 94.15 87.399 94.15 196.594 174.915 196.594 208.81 195.884"></polygon>
                        <polygon id="Fill-22" fill="#00FF00" mask="url(#mask-2)" points="103.415 154.275 146.415 154.275 146.415 141.195 103.415 141.195"></polygon>
                        <polygon id="Fill-22" fill="#00FF00" mask="url(#mask-2)" points="159 154.08 202 154.08 202 141 159 141"></polygon>
                        <polygon id="Fill-23" fill="#00FF00" mask="url(#mask-2)" points="103 134 201.445 134 201.445 101 103 101"></polygon>
                        <polygon id="Fill-25" fill="#00FF00" mask="url(#mask-2)" points="103.415 174.345 201.86 174.345 201.86 161.27 103.415 161.27"></polygon>
                        <polygon id="Fill-27" fill="#7D7CFB" mask="url(#mask-2)" points="331.646 184.8675 269.721 184.8675 269.721 286.5075 331.646 286.5075"></polygon>
                        <polygon id="Fill-28" fill="#FFFFFF" mask="url(#mask-2)" points="327.8765 191.0445 273.4915 191.0445 273.4915 280.1495 327.8765 280.1495"></polygon>
                        <polygon id="Fill-29" fill="#00FF00" mask="url(#mask-2)" points="276.455 254.615 323.155 254.615 323.155 243.945 276.455 243.945"></polygon>
                        <polygon id="Fill-30" fill="#00FF00" mask="url(#mask-2)" points="276.455 221.185 323.155 221.185 323.155 199.185 276.455 199.185"></polygon>
                        <polygon id="Fill-31" fill="#00FF00" mask="url(#mask-2)" points="276.455 238.235 323.155 238.235 323.155 227.565 276.455 227.565"></polygon>
                        <polygon id="Fill-32" fill="#00FF00" mask="url(#mask-2)" points="276.455 270.995 323.155 270.995 323.155 260.325 276.455 260.325"></polygon>
                    </g>
                </g>
            </g>
        </g>
    </g>
</svg>