<?xml version="1.0" encoding="UTF-8"?>
<svg width="111px" height="91px" viewBox="0 0 111 91" version="1.1" xmlns="http://www.w3.org/2000/svg" xmlns:xlink="http://www.w3.org/1999/xlink">
    <!-- Generator: Sketch 57.1 (83088) - https://sketch.com -->
    <title>browser</title>
    <desc>Created with Sketch.</desc>
    <g id="UI" stroke="none" stroke-width="1" fill="none" fill-rule="evenodd">
        <g id="Home" transform="translate(-1117.000000, -2122.000000)" fill-rule="nonzero">
            <g id="browser" transform="translate(1117.000000, 2122.000000)">
                <path d="M83.9446914,78.5633333 L89.4496296,78.5633333 C90.7977778,78.5633333 91.8762963,77.4848148 91.8762963,76.1366667 L91.8762963,69.5082716 C91.8762963,68.1601235 90.7977778,67.0816049 89.4496296,67.0816049 L83.9446914,67.0816049 C83.1807407,63.1944444 81.6528395,59.5993827 79.5407407,56.4312346 L83.4503704,52.5216049 C84.3940741,51.5779012 84.3940741,50.0275309 83.4503704,49.0838272 L78.754321,44.3877778 C77.8106173,43.4440741 76.2602469,43.4440741 75.3165432,44.3877778 L71.4069136,48.2749383 C68.2387654,46.1403704 64.6437037,44.6349383 60.7565432,43.8709877 L60.7565432,38.3660494 C60.7565432,37.0179012 59.6780247,35.9393827 58.3298765,35.9393827 L51.7014815,35.9393827 C50.3533333,35.9393827 49.2748148,37.0179012 49.2748148,38.3660494 L49.2748148,43.8709877 C45.3876543,44.6349383 41.7925926,46.1628395 38.6244444,48.2749383 L34.7148148,44.3653086 C33.7711111,43.4216049 32.2207407,43.4216049 31.277037,44.3653086 L26.5809877,49.061358 C25.637284,50.0050617 25.637284,51.5554321 26.5809877,52.4991358 L30.4906173,56.4087654 C28.3560494,59.5769136 26.8506173,63.1719753 26.0866667,67.0591358 L20.5817284,67.0591358 C19.2335802,67.0591358 18.1550617,68.1376543 18.1550617,69.4858025 L18.1550617,76.1141975 C18.1550617,77.4623457 19.2335802,78.5408642 20.5817284,78.5408642 L26.0866667,78.5408642 L37.8380247,72.7887654 C37.8380247,63.3067901 45.5449383,55.5998765 55.0269136,55.5998765 C64.5088889,55.5998765 72.2158025,63.3067901 72.2158025,72.7887654" id="Path" fill="#7D7CFB"></path>
                <path d="M110.008889,82.5853086 L110.008889,8.52703704 C110.008889,3.89839506 106.256543,0.146049383 101.627901,0.146049383 L8.38098765,0.146049383 C3.75234568,0.146049383 0,3.89839506 0,8.52703704 L0,82.6077778 C0,87.2364198 3.75234568,90.9887654 8.38098765,90.9887654 L101.627901,90.9887654 C106.256543,90.9887654 110.008889,87.2139506 110.008889,82.5853086 Z M8.38098765,4.21296296 L101.627901,4.21296296 C104.00963,4.21296296 105.941975,6.14530864 105.941975,8.52703704 L105.941975,18.5258025 L4.06691358,18.5258025 L4.06691358,8.52703704 C4.06691358,6.14530864 5.99925926,4.21296296 8.38098765,4.21296296 Z M4.06691358,82.5853086 L4.06691358,22.592716 L105.941975,22.592716 L105.941975,82.5853086 C105.941975,84.967037 104.00963,86.8993827 101.627901,86.8993827 L8.38098765,86.8993827 C5.99925926,86.8993827 4.06691358,84.967037 4.06691358,82.5853086 Z" id="Shape" fill="#000000"></path>
                <path d="M55.0044444,53.6001235 C44.3990123,53.6001235 35.7933333,62.2282716 35.7933333,72.8112346 C35.7933333,73.9346914 36.7145679,74.8559259 37.8380247,74.8559259 C38.9614815,74.8559259 39.882716,73.9346914 39.882716,72.8112346 C39.882716,64.452716 46.6683951,57.667037 55.0269136,57.667037 C63.3854321,57.667037 70.1711111,64.452716 70.1711111,72.8112346 C70.1711111,73.9346914 71.0923457,74.8559259 72.2158025,74.8559259 C73.3392593,74.8559259 74.2604938,73.9346914 74.2604938,72.8112346 C74.2155556,62.2058025 65.6098765,53.6001235 55.0044444,53.6001235 Z" id="Path" fill="#000000"></path>
                <path d="M89.4720988,65.0369136 L85.5849383,65.0369136 C84.8434568,62.0934568 83.6750617,59.307284 82.1246914,56.7008642 L84.8659259,53.9596296 C85.7197531,53.1058025 86.1691358,51.9823457 86.1691358,50.7914815 C86.1691358,49.6006173 85.697284,48.4771605 84.8659259,47.6233333 L80.1698765,42.927284 C78.417284,41.1746914 75.5861728,41.1746914 73.8560494,42.927284 L71.1148148,45.6685185 C68.5083951,44.1181481 65.7222222,42.9722222 62.7787654,42.2082716 L62.7787654,38.3660494 C62.7787654,35.8944444 60.7790123,33.8946914 58.3074074,33.8946914 L51.6790123,33.8946914 C49.2074074,33.8946914 47.2076543,35.8944444 47.2076543,38.3660494 L47.2076543,42.2532099 C44.2641975,42.9946914 41.4780247,44.1630864 38.8716049,45.7134568 L36.1303704,42.9722222 C35.2765432,42.1183951 34.1530864,41.6690123 32.9622222,41.6690123 C31.771358,41.6690123 30.6479012,42.1408642 29.7940741,42.9722222 L25.0980247,47.6682716 C24.2441975,48.5220988 23.7948148,49.6455556 23.7948148,50.8364198 C23.7948148,52.027284 24.2666667,53.1507407 25.0980247,54.0045679 L27.8392593,56.7458025 C26.2888889,59.3522222 25.142963,62.1383951 24.3790123,65.0818519 L20.4918519,65.0818519 C18.0202469,65.0818519 16.0204938,67.0816049 16.0204938,69.5532099 L16.0204938,76.1816049 C16.0204938,78.6532099 18.0202469,80.652963 20.4918519,80.652963 L25.9967901,80.652963 C27.1202469,80.652963 28.0414815,79.7317284 28.0414815,78.6082716 C28.0414815,77.4848148 27.1202469,76.5635802 25.9967901,76.5635802 L20.4918519,76.5635802 C20.2671605,76.5635802 20.0874074,76.3838272 20.0874074,76.1591358 L20.0874074,69.5307407 C20.0874074,69.3060494 20.2671605,69.1262963 20.4918519,69.1262963 L25.9967901,69.1262963 C26.962963,69.1262963 27.8167901,68.4297531 27.9965432,67.4860494 C28.6930864,63.9359259 30.0861728,60.5880247 32.1083951,57.5771605 C32.6476543,56.7682716 32.5353086,55.6897531 31.8612346,54.9932099 L27.9516049,51.0835802 C27.8617284,50.9937037 27.8392593,50.881358 27.8392593,50.8139506 C27.8392593,50.7465432 27.8617284,50.6341975 27.9516049,50.544321 L32.6476543,45.8482716 C32.7375309,45.7583951 32.8498765,45.7359259 32.917284,45.7359259 C32.9846914,45.7359259 33.097037,45.7583951 33.2093827,45.8482716 L37.1190123,49.7579012 C37.8155556,50.4544444 38.8940741,50.544321 39.702963,50.0050617 C42.7138272,47.9828395 46.0617284,46.6122222 49.6118519,45.8932099 C50.5555556,45.7134568 51.2520988,44.8596296 51.2520988,43.8934568 L51.2520988,38.3660494 C51.2520988,38.141358 51.4318519,37.9616049 51.6565432,37.9616049 L58.2849383,37.9616049 C58.5096296,37.9616049 58.6893827,38.141358 58.6893827,38.3660494 L58.6893827,43.8709877 C58.6893827,44.8371605 59.3859259,45.6909877 60.3296296,45.8707407 C63.8797531,46.567284 67.2276543,47.9603704 70.2385185,49.9825926 C71.0474074,50.5218519 72.1259259,50.4095062 72.8224691,49.7354321 L76.7320988,45.8258025 C76.8893827,45.6685185 77.1365432,45.6685185 77.2938272,45.8258025 L81.9898765,50.5218519 C82.0797531,50.6117284 82.1022222,50.7240741 82.1022222,50.7914815 C82.1022222,50.8588889 82.0797531,50.9712346 81.9898765,51.0835802 L78.0802469,54.9932099 C77.3837037,55.6897531 77.2938272,56.7682716 77.8330864,57.5771605 C79.8553086,60.5880247 81.2259259,63.9359259 81.9449383,67.4860494 C82.1246914,68.4297531 82.9785185,69.1262963 83.9446914,69.1262963 L89.4496296,69.1262963 C89.674321,69.1262963 89.8540741,69.3060494 89.8540741,69.5307407 L89.8540741,76.1591358 C89.8540741,76.3838272 89.674321,76.5635802 89.4496296,76.5635802 L83.9446914,76.5635802 C82.8212346,76.5635802 81.9,77.4848148 81.9,78.6082716 C81.9,79.7317284 82.8212346,80.652963 83.9446914,80.652963 L89.4496296,80.652963 C91.9212346,80.652963 93.9209877,78.6532099 93.9209877,76.1816049 L93.9209877,69.5532099 C93.9209877,67.0366667 91.9212346,65.0369136 89.4720988,65.0369136 Z" id="Path" fill="#000000"></path>
                <path d="M18.3797531,13.2680247 C18.9190123,13.2680247 19.4358025,13.0433333 19.8177778,12.661358 C20.1997531,12.2793827 20.4244444,11.7625926 20.4244444,11.2233333 C20.4244444,10.6840741 20.1997531,10.167284 19.8177778,9.78530864 C19.4358025,9.40333333 18.9190123,9.17864198 18.3797531,9.17864198 C17.8404938,9.17864198 17.3237037,9.40333333 16.9417284,9.78530864 C16.5597531,10.167284 16.3350617,10.6840741 16.3350617,11.2233333 C16.3350617,11.7625926 16.5597531,12.2793827 16.9417284,12.661358 C17.3237037,13.0658025 17.8404938,13.2680247 18.3797531,13.2680247 Z" id="Path" fill="#000000"></path>
                <path d="M25.5698765,13.2680247 C26.1091358,13.2680247 26.6259259,13.0433333 27.0079012,12.661358 C27.3898765,12.2793827 27.6145679,11.7625926 27.6145679,11.2233333 C27.6145679,10.6840741 27.3898765,10.167284 27.0079012,9.78530864 C26.6259259,9.40333333 26.1091358,9.17864198 25.5698765,9.17864198 C25.0306173,9.17864198 24.5138272,9.40333333 24.1318519,9.78530864 C23.7498765,10.167284 23.5251852,10.6840741 23.5251852,11.2233333 C23.5251852,11.7625926 23.7498765,12.2793827 24.1318519,12.661358 C24.5138272,13.0658025 25.0306173,13.2680247 25.5698765,13.2680247 Z" id="Path" fill="#000000"></path>
                <path d="M11.1896296,13.2680247 C11.7288889,13.2680247 12.245679,13.0433333 12.6276543,12.661358 C13.0096296,12.2793827 13.234321,11.7625926 13.234321,11.2233333 C13.234321,10.6840741 13.0096296,10.167284 12.6276543,9.78530864 C12.245679,9.40333333 11.7288889,9.17864198 11.1896296,9.17864198 C10.6503704,9.17864198 10.1335802,9.40333333 9.75160494,9.78530864 C9.36962963,10.167284 9.14493827,10.6840741 9.14493827,11.2233333 C9.14493827,11.7625926 9.36962963,12.2793827 9.75160494,12.661358 C10.1335802,13.0658025 10.6503704,13.2680247 11.1896296,13.2680247 Z" id="Path" fill="#000000"></path>
            </g>
        </g>
    </g>
</svg>