<?xml version="1.0" encoding="UTF-8"?>
<svg width="93px" height="91px" viewBox="0 0 93 91" version="1.1" xmlns="http://www.w3.org/2000/svg" xmlns:xlink="http://www.w3.org/1999/xlink">
    <!-- Generator: Sketch 57.1 (83088) - https://sketch.com -->
    <title>chat</title>
    <desc>Created with Sketch.</desc>
    <g id="UI" stroke="none" stroke-width="1" fill="none" fill-rule="evenodd">
        <g id="Home" transform="translate(-1073.000000, -1257.000000)" fill-rule="nonzero">
            <g id="chat" transform="translate(1073.000000, 1257.000000)">
                <path d="M12.2972973,72.439973 L18.5972973,72.439973 L18.5972973,89.0507838 C18.5972973,89.8075405 19.0513514,90.4697027 19.7324324,90.7724054 C19.9783784,90.867 20.2243243,90.9237568 20.4702703,90.9237568 C20.9432432,90.9237568 21.4162162,90.7345676 21.7756757,90.394027 L40.5243243,72.439973 L75.6756757,72.439973 C80.6702703,72.439973 85.2675676,69.2994324 87.1216216,64.6264595 C87.5,63.6615946 87.027027,62.5832162 86.0621622,62.2048378 C85.0972973,61.8264595 84.0189189,62.2994324 83.6405405,63.2642973 C82.3540541,66.5183514 79.1567568,68.694027 75.6756757,68.694027 L39.7675676,68.694027 C39.2756757,68.694027 38.8216216,68.8832162 38.4810811,69.2237568 L22.3621622,84.6615946 L22.3621622,70.5859189 C22.3621622,69.5453784 21.5297297,68.7129459 20.4891892,68.7129459 L12.2972973,68.7129459 C7.58648649,68.7129459 3.74594595,64.8724054 3.74594595,60.1615946 L3.74594595,21.4724054 C3.74594595,16.7615946 7.58648649,12.9210541 12.2972973,12.9210541 L51.1567568,12.9210541 C52.1972973,12.9210541 53.0297297,12.0886216 53.0297297,11.0480811 C53.0297297,10.0075405 52.1972973,9.17510811 51.1567568,9.17510811 L12.2972973,9.17510811 C5.50540541,9.17510811 0,14.6994324 0,21.4724054 L0,60.1426757 C0,66.9345676 5.50540541,72.439973 12.2972973,72.439973 Z" id="Path" fill="#2C2F33"></path>
                <path d="M48.3945946,23.4967297 C47.7135135,22.6075405 46.6540541,22.0210541 45.4432432,22.0210541 L36.5135135,22.0210541 C34.4702703,22.0210541 32.8243243,23.6859189 32.8243243,25.7102432 L32.8243243,52.9724054 C32.8243243,55.0156486 34.4891892,56.6615946 36.5135135,56.6615946 L45.4432432,56.6615946 C46.4081081,56.6615946 47.2783784,56.2832162 47.9405405,55.6778108 C49.5108108,57.2291622 51.6675676,58.2129459 54.0513514,58.2129459 L79.3648649,58.2129459 C85.1918919,58.2129459 88.9,55.1480811 89.5621622,49.8318649 L92.9675676,28.2075405 C92.9864865,28.1129459 92.9864865,28.0183514 92.9864865,27.9237568 C92.9864865,23.1561892 89.1081081,19.2778108 84.3405405,19.2778108 L71.9486486,19.2778108 L71.9486486,10.4426757 C71.9486486,6.41294595 70.7567568,3.49943243 68.4108108,1.77781081 C64.7027027,-0.946513514 59.6324324,0.604837838 59.4054054,0.661594595 C58.6297297,0.907540541 58.1,1.62645946 58.1,2.43997297 L58.1,12.7886216 C58.1,20.639973 48.9243243,23.3264595 48.5459459,23.439973 C48.4702703,23.4588919 48.4324324,23.4778108 48.3945946,23.4967297 Z M45.3864865,52.9345676 L36.5513514,52.9345676 L36.5513514,25.767 L45.3864865,25.767 L45.3864865,52.9345676 L45.3864865,52.9345676 Z M49.1324324,27.1102432 C49.2648649,27.1102432 49.3972973,27.0913243 49.5297297,27.0534865 C50.0405405,26.9210541 61.827027,23.4967297 61.827027,12.7886216 L61.827027,3.97240541 C63.0378378,3.82105405 64.8540541,3.82105405 66.1783784,4.80483784 C67.5027027,5.78862162 68.1837838,7.68051351 68.1837838,10.4426757 L68.1837838,21.1318649 C68.1837838,22.1724054 69.0162162,23.0048378 70.0567568,23.0048378 L84.3216216,23.0048378 C86.9891892,23.0048378 89.1459459,25.1237568 89.2216216,27.7724054 L85.8351351,49.2832162 C85.8351351,49.3021351 85.8351351,49.3210541 85.8351351,49.339973 C85.4189189,52.7453784 83.2432432,54.467 79.3459459,54.467 L54.0513514,54.467 C51.3459459,54.467 49.1513514,52.2724054 49.1513514,49.567 L49.1513514,27.1102432 L49.1324324,27.1102432 L49.1324324,27.1102432 Z" id="Shape" fill="#7D7CFB"></path>
            </g>
        </g>
    </g>
</svg>