<?xml version="1.0" encoding="UTF-8"?>
<svg width="545px" height="545px" viewBox="0 0 545 545" version="1.1" xmlns="http://www.w3.org/2000/svg" xmlns:xlink="http://www.w3.org/1999/xlink">
    <!-- Generator: Sketch 57.1 (83088) - https://sketch.com -->
    <title>crm</title>
    <desc>Created with Sketch.</desc>
    <g id="UI" stroke="none" stroke-width="1" fill="none" fill-rule="evenodd">
        <g id="images" transform="translate(-1730.000000, -116.000000)">
            <g id="crm" transform="translate(1730.000000, 116.000000)">
                <circle id="Oval" fill="#FFFFFF" cx="272.5" cy="272.5" r="272.5"></circle>
                <g id="Group-27" transform="translate(115.000000, 122.000000)">
                    <polygon id="Fill-1" fill="#3A426D" points="0 84 135 84 135 1.00422499 0.00422006877 1"></polygon>
                    <polygon id="Fill-2" fill="#231F20" points="67.4978899 61 135 1.0042203 0 1"></polygon>
                    <polygon id="Fill-3" fill="#848AB8" points="67.4978899 52 135 1.00420099 0 1"></polygon>
                    <polygon id="Fill-4" fill="#3A426D" points="180.00422 0 180 82.995775 315 83 315 0.00422499364"></polygon>
                    <polygon id="Fill-5" fill="#231F20" points="247.49789 60 315 0.00422029964 180 0"></polygon>
                    <polygon id="Fill-6" fill="#848AB8" points="247.49789 51 315 0.00420098847 180 0"></polygon>
                    <polygon id="Fill-7" fill="#3A426D" points="227 203 92 202.995775 92 120 227 120.004225"></polygon>
                    <polygon id="Fill-8" fill="#231F20" points="159.49789 180 92 120 227 120.00422"></polygon>
                    <polygon id="Fill-9" fill="#848AB8" points="159.49789 172 92 121 227 121.004201"></polygon>
                    <g id="Group-26" transform="translate(52.000000, 41.000000)">
                        <path d="M197.994871,58.4488935 L15.6993412,58.4488935 C12.3111059,58.4488935 9.55816471,55.7021194 9.55816471,52.3172484 L9.55816471,17.5726677 C9.55816471,14.183571 12.3111059,11.4410226 15.6993412,11.4410226 C19.0960471,11.4410226 21.8489882,14.183571 21.8489882,17.5726677 L21.8489882,46.1856032 L191.849459,46.1856032 L191.849459,17.5726677 C191.849459,14.183571 194.6024,11.4410226 197.994871,11.4410226 C201.387341,11.4410226 204.140282,14.183571 204.140282,17.5726677 L204.140282,52.3172484 C204.140282,55.7021194 201.387341,58.4488935 197.994871,58.4488935" id="Fill-10" fill="#7D7CFB"></path>
                        <path d="M106.849224,109.534245 C103.456753,109.534245 100.703812,106.791697 100.703812,103.406826 L100.703812,52.3168258 C100.703812,48.9319548 103.456753,46.1851806 106.849224,46.1851806 C110.241694,46.1851806 112.994635,48.9319548 112.994635,52.3168258 L112.994635,103.406826 C112.994635,106.791697 110.241694,109.534245 106.849224,109.534245" id="Fill-12" fill="#7D7CFB"></path>
                        <path d="M29.1434353,14.762929 C29.1434353,22.5215097 22.8413176,28.8137355 15.0610824,28.8137355 C7.28508235,28.8137355 0.982964706,22.5215097 0.982964706,14.762929 C0.982964706,7.00434839 7.28508235,0.716348387 15.0610824,0.716348387 C22.8413176,0.716348387 29.1434353,7.00434839 29.1434353,14.762929" id="Fill-14" fill="#00FF00"></path>
                        <path d="M212.714635,14.762929 C212.714635,22.5215097 206.412518,28.8137355 198.632282,28.8137355 C190.856282,28.8137355 184.554165,22.5215097 184.554165,14.762929 C184.554165,7.00434839 190.856282,0.716348387 198.632282,0.716348387 C206.412518,0.716348387 212.714635,7.00434839 212.714635,14.762929" id="Fill-16" fill="#00FF00"></path>
                        <path d="M120.930306,106.727887 C120.930306,114.486468 114.623953,120.774468 106.847953,120.774468 C99.0719529,120.774468 92.7656,114.486468 92.7656,106.727887 C92.7656,98.9650806 99.0719529,92.6770806 106.847953,92.6770806 C114.623953,92.6770806 120.930306,98.9650806 120.930306,106.727887" id="Fill-18" fill="#00FF00"></path>
                        <path d="M162.269741,255.278929 C161.854682,255.536703 160.410447,255.278929 159.944565,255.274703 L155.446682,255.266252 C150.885271,255.262026 151.512094,256.990381 146.967624,256.977773 C137.535624,256.952348 128.154447,255.43951 118.743624,255.655026 C110.179859,255.845187 106.664565,249.721994 101.997271,242.931123 C94.3568,231.8088 81.9558588,221.0668 79.2537412,207.480832 C78.1822118,202.114058 76.5262118,196.062703 76.4288,190.619865 C76.3525647,186.051768 77.1445647,181.749897 76.3568,177.097284 C75.6156235,172.702445 71.7064471,164.174768 79.1690353,165.400252 C81.0622118,165.712961 84.1624471,166.536994 85.6998588,167.758252 C88.5417412,170.006381 90.5662118,174.587155 91.2946824,178.0988 C91.8876235,180.938542 91.1252706,183.740252 91.7266824,186.541961 C92.4805647,190.078961 94.5473882,193.763865 96.3135059,196.890961 C97.5078588,187.627994 97.5248,179.835606 97.2495059,170.521929 C97.2579765,162.949284 97.2664471,155.376639 97.2749176,147.803994 C97.2918588,137.023961 97.3045647,126.235477 97.3172706,115.451219 L97.3172706,115.252606 C97.3299765,113.207316 97.1351529,111.0268 97.3342118,108.994187 C97.4146824,108.216639 97.8212706,107.532058 98.3718588,106.940445 C98.5158588,106.78409 98.6598588,106.62351 98.8250353,106.484058 C98.8419765,106.462929 98.8758588,106.446026 98.8928,106.420671 C99.2570353,106.112187 99.6466824,105.795252 100.023624,105.537477 C103.454212,103.078058 108.045271,103.061155 111.539388,105.457187 C111.929035,105.710735 112.301741,105.989639 112.6448,106.281219 C112.665976,106.298123 112.687153,106.319252 112.708329,106.336155 C113.144565,106.716477 113.525741,107.122155 113.813741,107.586994 C114.144094,108.123671 114.355859,108.732187 114.377035,109.425219 C114.406682,110.591542 114.368565,111.719832 114.3728,112.890381 C114.355859,120.272865 114.279624,127.659574 114.241506,135.042058 C114.211859,140.074994 113.936565,145.188219 114.182212,150.216929 C114.398212,154.73009 114.677741,161.964671 116.151624,163.836703 C116.071153,162.678832 116.909741,160.967381 116.901271,159.585542 C116.888565,158.131865 116.867388,156.669735 116.863153,155.207606 C116.858918,152.638316 116.337976,149.088639 117.299388,146.637671 C119.035859,142.314671 126.206212,141.465284 129.746918,143.848639 C133.461271,146.34609 133.389271,151.810058 133.838212,155.723155 C133.969506,156.8768 135.2528,161.233606 135.998212,159.4968 C137.429741,156.17109 138.056565,149.790123 139.5728,147.926542 C142.423153,144.410671 147.793506,144.583929 151.224094,147.089832 C156.221741,150.745155 155.141741,159.437639 155.061271,164.791735 C156.120094,163.971929 156.200565,160.029252 157.204329,158.955897 C158.673976,157.388123 161.3888,156.585219 163.493741,156.720445 C172.366682,157.299381 170.664094,167.808961 171.257035,174.003994 C172.320094,185.147445 172.226918,196.404994 170.977506,207.535768 C170.376094,212.868735 169.846682,218.636961 168.389741,223.805123 C167.106447,228.364768 163.497976,232.032768 162.638212,236.757219 C161.930918,240.66609 162.528094,245.200381 162.511153,249.164187 C162.506918,251.239058 162.494212,252.946284 162.494212,253.660445 C162.494212,254.285865 162.6848,255.016929 162.269741,255.278929" id="Fill-20" fill="#E7B088"></path>
                        <path d="M106.875906,120.791794 C103.085318,121.332697 99.7690824,117.622439 99.4895529,112.543019 L99.2693176,108.30031 C99.2523765,107.958019 99.2439059,107.577697 99.2650824,107.235406 C99.6293176,106.922697 100.0232,106.605761 100.400141,106.352213 C103.826494,103.888568 108.421788,103.871665 111.911671,106.267697 C112.305553,106.521245 112.678259,106.795923 113.017082,107.091729 C113.042494,107.108632 113.059435,107.129761 113.080612,107.146665 L113.254259,110.535761 C113.521082,115.619406 110.645318,120.229761 106.875906,120.791794" id="Fill-22" fill="#F2C4A5"></path>
                        <polygon id="Fill-24" fill="#7D7CFB" points="167.317788 245.382935 102.420376 245.497032 102.170494 260 167.072141 259.881677"></polygon>
                    </g>
                </g>
            </g>
        </g>
    </g>
</svg>