<?xml version="1.0" encoding="UTF-8"?>
<svg width="60px" height="60px" viewBox="0 0 60 60" version="1.1" xmlns="http://www.w3.org/2000/svg" xmlns:xlink="http://www.w3.org/1999/xlink">
    <!-- Generator: Sketch 57.1 (83088) - https://sketch.com -->
    <title>folder</title>
    <desc>Created with Sketch.</desc>
    <g id="Page-1" stroke="none" stroke-width="1" fill="none" fill-rule="evenodd">
        <g id="folder">
            <rect id="Rectangle" fill="#7D7CFB" x="10" y="0" width="40" height="29"></rect>
            <path d="M57.49,27 L54,27 L54,20.732 C54,19.226 52.774,18 51.268,18 L50,18 L50,0 L10,0 L10,2 L7,2 L7,4 L4,4 L4,11 L2.732,11 C1.226,11 0,12.226 0,13.732 L0,57.419 L0.006,57.419 C0.001,57.982 0.176,58.533 0.528,58.994 C1.018,59.634 1.76,60 2.565,60 L47.324,60 C48.481,60 49.499,59.22 49.773,58.187 L60,30.149 L60,29.972 C60,28.25 58.944,27 57.49,27 Z M51.268,20 C51.672,20 52,20.328 52,20.732 L52,27 L50,27 L50,20 L51.268,20 Z M48,2 L48,18 L48,27 L12.731,27 C12.498,27 12.274,27.039 12.057,27.098 C12.039,27.103 12.018,27.101 12,27.106 L12,2 L48,2 Z M10,4 L10,29.585 L9.937,29.758 L9,32.326 L9,4 L10,4 Z M6,6 L7,6 L7,37.81 L6,40.551 L6,11 L6,6 Z M2,13.732 C2,13.328 2.329,13 2.732,13 L4,13 L4,45.943 L2,51.398 L2,13.732 Z M47.868,57.584 C47.803,57.829 47.579,58 47.324,58 L2.565,58 C2.322,58 2.18,57.861 2.117,57.778 C2.054,57.696 1.957,57.522 1.994,57.37 L4,51.87 L4,51.871 L7,43.646 L7,43.646 L10,35.421 L10,35.424 L11.932,30.123 L12,29.938 L12,29.938 L12.16,29.499 L12.186,29.417 C12.252,29.172 12.477,29 12.731,29 L48,29 L50,29 L54,29 L57.49,29 C57.869,29 57.967,29.546 57.991,29.819 L47.868,57.584 Z" id="Shape" fill="#000000" fill-rule="nonzero"></path>
            <path d="M18,17 L42,17 C42.552,17 43,16.553 43,16 C43,15.447 42.552,15 42,15 L18,15 C17.448,15 17,15.447 17,16 C17,16.553 17.448,17 18,17 Z" id="Path" fill="#000000" fill-rule="nonzero"></path>
            <path d="M18,10 L28,10 C28.552,10 29,9.553 29,9 C29,8.447 28.552,8 28,8 L18,8 C17.448,8 17,8.447 17,9 C17,9.553 17.448,10 18,10 Z" id="Path" fill="#000000" fill-rule="nonzero"></path>
            <path d="M18,24 L42,24 C42.552,24 43,23.553 43,23 C43,22.447 42.552,22 42,22 L18,22 C17.448,22 17,22.447 17,23 C17,23.553 17.448,24 18,24 Z" id="Path" fill="#000000" fill-rule="nonzero"></path>
        </g>
    </g>
</svg>
