<?xml version="1.0" encoding="UTF-8"?>
<svg width="545px" height="545px" viewBox="0 0 545 545" version="1.1" xmlns="http://www.w3.org/2000/svg" xmlns:xlink="http://www.w3.org/1999/xlink">
    <!-- Generator: Sketch 57.1 (83088) - https://sketch.com -->
    <title>integrazione prodotto</title>
    <desc>Created with Sketch.</desc>
    <defs>
        <polygon id="path-1" points="0.358194698 0.393929412 151.503605 0.393929412 151.503605 15.5294118 0.358194698 15.5294118"></polygon>
        <polygon id="path-3" points="0 346.823529 368.786333 346.823529 368.786333 0.652235294 0 0.652235294"></polygon>
    </defs>
    <g id="UI" stroke="none" stroke-width="1" fill="none" fill-rule="evenodd">
        <g id="images" transform="translate(-303.000000, -89.000000)">
            <g id="integrazione-prodotto" transform="translate(303.000000, 89.000000)">
                <circle id="Oval" fill="#FFFFFF" cx="272.5" cy="272.5" r="272.5"></circle>
                <g id="Group-22" transform="translate(95.000000, 99.000000)">
                    <polygon id="Fill-1" fill="#3A426D" points="202.804438 282.272585 171 278 139.19036 282.272585 137 295 205 295"></polygon>
                    <polygon id="Fill-2" fill="#848AB8" points="204.471347 295 136.533851 295 130 332 211 332"></polygon>
                    <g id="Group-21">
                        <g id="Group-5" transform="translate(95.000000, 331.294118)">
                            <mask id="mask-2" fill="white">
                                <use xlink:href="#path-1"></use>
                            </mask>
                            <g id="Clip-4"></g>
                            <path d="M150.875983,12.7139294 L147.03715,6.84381176 C142.516317,3.85698824 116.636483,2.19016471 116.636483,2.19016471 L116.50215,2.18498824 L116.186983,0.393929412 L35.6748167,0.393929412 L35.35965,2.18498824 L35.2253167,2.19016471 C35.2253167,2.19016471 9.34548333,3.85698824 4.82465,6.84381176 L0.985816667,12.7139294 C-0.595183333,13.7595765 1.01681667,15.5299294 3.52781667,15.5299294 L75.9334833,15.5299294 L148.333983,15.5299294 C150.844983,15.5299294 152.456983,13.7595765 150.875983,12.7139294" id="Fill-3" fill="#848AB8" mask="url(#mask-2)"></path>
                        </g>
                        <path d="M340.530867,66.3162824 L1.32886667,66.3162824 C0.5952,66.3162824 0.00103333333,66.9115765 0.00103333333,67.6466353 L0.00103333333,282.190635 C0.00103333333,282.925694 0.5952,283.520988 1.32886667,283.520988 L340.530867,283.520988 C341.2697,283.520988 341.863867,282.925694 341.863867,282.190635 L341.863867,67.6518118 C341.863867,66.9115765 341.2697,66.3162824 340.530867,66.3162824" id="Fill-6" fill="#848AB8"></path>
                        <mask id="mask-4" fill="white">
                            <use xlink:href="#path-3"></use>
                        </mask>
                        <g id="Clip-9"></g>
                        <polygon id="Fill-8" fill="#231F20" mask="url(#mask-4)" points="18.3416667 268.482824 323.516 268.482824 323.516 81.3585882 18.3416667 81.3585882"></polygon>
                        <polygon id="Fill-10" fill="#F5F5FA" mask="url(#mask-4)" points="237.270383 85.0230118 22.81755 85.0230118 22.81755 86.7467765 22.81755 263.828659 189.571717 263.828659 237.270383 263.828659 318.118383 263.828659 318.118383 85.0230118"></polygon>
                        <polygon id="Fill-11" fill="#FFFFFF" mask="url(#mask-4)" points="22.8185833 87.7323765 22.8185833 263.825553 189.567583 263.825553 237.271417 263.825553 318.119417 263.825553 318.119417 262.557318"></polygon>
                        <path d="M248.138983,68.3785882 C247.29165,68.9738824 246.402983,69.4708235 245.498817,69.9211765 C236.73615,74.2952941 225.875817,71.7432941 220.063317,63.4816471 C213.666983,54.3658824 215.847317,41.7767059 224.950983,35.3527059 C225.74665,34.7936471 226.573317,34.3225882 227.415483,33.8929412 C236.203983,29.4049412 247.177983,31.9207059 253.021483,40.2496471 C259.42815,49.3654118 257.24265,61.9545882 248.138983,68.3785882 L248.138983,68.3785882 Z M277.712983,54.5625882 L276.581483,41.9527059 L267.10065,41.2021176 C266.392817,39.1574118 265.462817,37.1592941 264.315817,35.2336471 L269.76665,27.5 L260.80765,18.5654118 L253.15065,24.0369412 C251.223483,22.8877647 249.192983,21.9456471 247.084983,21.2209412 L246.31515,11.8825882 L233.718817,10.8058824 L231.38865,19.8543529 C229.182483,20.2115294 226.996983,20.8016471 224.868317,21.6247059 L218.332483,15.0247059 L218.037983,15.2369412 L207.993983,22.3131765 L212.003317,30.7249412 C210.515317,32.4642353 209.228817,34.3381176 208.15415,36.3 L198.910983,35.4562353 L195.671483,47.6882353 L204.196483,51.5809412 C204.175817,53.8171765 204.382483,56.0585882 204.826817,58.2741176 L197.143983,63.6110588 L202.51215,75.0717647 L211.636483,72.5404706 C213.062483,74.2694118 214.638317,75.8223529 216.33815,77.1785882 L213.852983,86.3150588 L225.317817,91.6416471 L230.727317,83.7578824 C232.866317,84.1409412 235.04665,84.3272941 237.226983,84.2807059 L241.220817,92.9512941 L253.419317,89.6435294 L252.954317,84.7672941 L252.494483,80.0774118 C253.403817,79.5545882 254.29765,78.9903529 255.170817,78.3795294 C256.090483,77.7324706 256.958483,77.044 257.790317,76.3244706 L266.439317,80.4138824 L273.662317,70.0247059 L266.826817,63.2901176 C267.59665,61.2557647 268.144317,59.1385882 268.490483,57.0007059 L277.712983,54.5625882 Z" id="Fill-12" fill="#00FF00" mask="url(#mask-4)"></path>
                        <path d="M339.2113,58.2202824 C338.363967,58.8207529 337.470133,59.3125176 336.571133,59.7628706 C327.808467,64.1421647 316.948133,61.5901647 311.135633,53.3233412 C304.7393,44.2075765 306.919633,31.6184 316.0233,25.1944 C316.818967,24.6353412 317.645633,24.1694588 318.4878,23.7346353 C327.2763,19.2466353 338.2503,21.7624 344.0938,30.0913412 C350.500467,39.2071059 348.314967,51.7962824 339.2113,58.2202824 L339.2113,58.2202824 Z M368.7853,44.4042824 L367.6538,31.7944 L358.172967,31.0438118 C357.465133,28.9991059 356.535133,27.0009882 355.382967,25.0753412 L360.838967,17.3416941 L351.879967,8.40710588 L344.222967,13.8838118 C342.2958,12.7294588 340.2653,11.7873412 338.1573,11.0626353 L337.3823,1.72428235 L324.791133,0.647576471 L322.460967,9.69604706 C320.2548,10.0532235 318.0693,10.6433412 315.935467,11.4664 L309.4048,4.8664 L309.1103,5.07863529 L299.0663,12.1548706 L303.075633,20.5718118 C301.587633,22.3059294 300.295967,24.1798118 299.226467,26.1416941 L289.9833,25.2979294 L286.7438,37.5299294 L295.2688,41.4226353 C295.242967,43.6588706 295.4548,45.9002824 295.899133,48.1158118 L288.2163,53.4527529 L293.584467,64.9134588 L302.703633,62.3873412 C304.129633,64.1111059 305.710633,65.6640471 307.410467,67.0254588 L304.920133,76.1567529 L316.390133,81.4833412 L321.799633,73.5995765 C323.938633,73.9826353 326.118967,74.1689882 328.2993,74.1224 L332.293133,82.7929882 L344.486467,79.4904 L344.021467,74.6089882 L343.5668,69.9191059 C344.476133,69.3962824 345.369967,68.8320471 346.237967,68.2212235 C347.157633,67.5741647 348.0308,66.8856941 348.862633,66.1661647 L357.511633,70.2555765 L364.734633,59.8664 L357.899133,53.1318118 C358.668967,51.0974588 359.216633,48.9802824 359.5628,46.8424 L368.7853,44.4042824 Z" id="Fill-13" fill="#00FF00" mask="url(#mask-4)"></path>
                        <polygon id="Fill-14" fill="#7D7CFB" mask="url(#mask-4)" points="40.3568333 243.584 76.7198333 243.584 76.7198333 180.622588 40.3568333 180.622588"></polygon>
                        <polygon id="Fill-15" fill="#00FF00" mask="url(#mask-4)" points="83.917 243.584 120.28 243.584 120.28 147.669176 83.917 147.669176"></polygon>
                        <polygon id="Fill-16" fill="#7D7CFB" mask="url(#mask-4)" points="127.477167 243.584 163.840167 243.584 163.840167 117.169412 127.477167 117.169412"></polygon>
                        <polygon id="Fill-17" fill="#7D7CFB" mask="url(#mask-4)" points="171.037333 243.584 207.400333 243.584 207.400333 171.330824 171.037333 171.330824"></polygon>
                        <polygon id="Fill-18" fill="#00FF00" mask="url(#mask-4)" points="217.118833 243.584 253.481833 243.584 253.481833 142.736 217.118833 142.736"></polygon>
                        <polygon id="Fill-19" fill="#00FF00" mask="url(#mask-4)" points="260.679 243.584 297.042 243.584 297.042 169.845176 260.679 169.845176"></polygon>
                        <path d="M306.95735,129.187106 C305.800017,129.999812 304.591017,130.672753 303.356183,131.288753 C291.431517,137.246871 276.634183,133.773459 268.724017,122.519812 C260.013017,110.106635 262.98385,92.9621647 275.378683,84.2139294 C276.458517,83.4529882 277.58485,82.8162824 278.737017,82.2261647 C290.703017,76.1075765 305.650183,79.5395765 313.60685,90.8812235 C322.328183,103.2944 319.352183,120.438871 306.95735,129.187106 L306.95735,129.187106 Z M347.231517,110.370635 L345.686683,93.1951059 L332.78035,92.1805176 C331.814183,89.3955765 330.54835,86.6779294 328.98285,84.0534588 L336.40735,73.5141647 L324.20885,61.3546353 L313.77735,68.8035765 C311.152683,67.2351059 308.388517,65.9513412 305.526183,64.9626353 L304.472183,52.2492235 L287.31885,50.7842824 L284.146517,63.1094588 C281.139517,63.5960471 278.163517,64.3932235 275.25985,65.5113412 L266.368017,56.5301647 L265.965017,56.8200471 L252.28885,66.4534588 L257.74485,77.9089882 C255.719517,80.2798118 253.96285,82.8266353 252.500683,85.5028706 L239.914683,84.3485176 L235.50235,101.011576 L247.11185,106.312282 C247.08085,109.361224 247.365017,112.404988 247.974683,115.428047 L237.507017,122.695812 L244.823017,138.302871 L257.238517,134.860518 C259.18635,137.210635 261.335683,139.327812 263.645183,141.170635 L260.261017,153.614871 L275.874683,160.872282 L283.247517,150.125929 C286.15635,150.653929 289.127183,150.9024 292.098017,150.845459 L297.538517,162.647812 L314.144183,158.149459 L313.508683,151.508047 L312.888683,145.115106 C314.123517,144.405929 315.348017,143.639812 316.531183,142.8064 C317.781517,141.921224 318.964683,140.989459 320.096183,140.011106 L331.88135,145.580988 L341.718683,131.428518 L332.40835,122.255812 C333.452017,119.4864 334.196017,116.603106 334.676517,113.688753 L347.231517,110.370635 Z" id="Fill-20" fill="#7D7CFB" mask="url(#mask-4)"></path>
                    </g>
                </g>
            </g>
        </g>
    </g>
</svg>