<?xml version="1.0" encoding="UTF-8"?>
<svg width="100px" height="91px" viewBox="0 0 100 91" version="1.1" xmlns="http://www.w3.org/2000/svg" xmlns:xlink="http://www.w3.org/1999/xlink">
    <!-- Generator: Sketch 57.1 (83088) - https://sketch.com -->
    <title>laptop-2</title>
    <desc>Created with Sketch.</desc>
    <g id="UI" stroke="none" stroke-width="1" fill="none" fill-rule="evenodd">
        <g id="Home" transform="translate(-522.000000, -2122.000000)" fill-rule="nonzero">
            <g id="laptop-2" transform="translate(522.000000, 2122.000000)">
                <rect id="Rectangle" fill="#7D7CFB" x="41.3450135" y="12.50087" width="17.3430493" height="36.4612108"></rect>
                <path d="M1.86407175,90.8506457 L98.0873901,90.8506457 L98.0873901,90.8506457 C99.1075695,90.8506457 99.9441166,90.0140987 99.9441166,88.9939193 C99.9441166,88.6470583 99.8420987,88.3001973 99.67887,88.0349507 L90.3544305,69.1208251 L90.3544305,18.1730673 C90.3544305,17.1528879 89.5178834,16.3163408 88.497704,16.3163408 L67.9920987,16.3163408 C66.9719193,16.3163408 66.1353722,17.1528879 66.1353722,18.1730673 C66.1353722,19.1932466 66.9719193,20.0297937 67.9920987,20.0297937 L86.6613812,20.0297937 L86.6613812,67.7129776 L13.4125022,67.7129776 L13.4125022,20.0297937 L31.6125022,20.0297937 C32.6326816,20.0297937 33.4692287,19.1932466 33.4692287,18.1730673 C33.4692287,17.1528879 32.6326816,16.3163408 31.6125022,16.3163408 L11.5353722,16.3163408 C10.5151928,16.3163408 9.67864574,17.1528879 9.67864574,18.1730673 L9.67864574,69.1208251 L0.190977578,88.1777758 C-0.0946726457,88.7490762 -0.0538654709,89.4223946 0.272591928,89.9732915 C0.619452915,90.5241883 1.23156054,90.8506457 1.86407175,90.8506457 Z M37.2234888,87.1575964 L38.8557758,83.8930224 L61.1364933,83.8930224 L62.7483767,87.1575964 L37.2234888,87.1575964 Z M12.6779731,71.4060269 L87.3346996,71.4060269 L95.0880628,87.1371928 L66.8494978,87.1371928 L63.9317848,81.1997489 C63.6257309,80.5672377 62.9728161,80.1591659 62.2790942,80.1591659 L37.6927713,80.1591659 C36.9990493,80.1591659 36.3461345,80.5468341 36.0400807,81.1793453 L33.0815605,87.1167892 L4.84299552,87.1167892 L12.6779731,71.4060269 Z" id="Shape" fill="#000000"></path>
                <path d="M60.5243857,6.78786547 C60.5243857,3.11521973 57.5454619,0.115892377 53.8524126,0.115892377 L46.1398565,0.115892377 C42.4672108,0.115892377 39.4678834,3.09481614 39.4678834,6.78786547 L39.4678834,11.8479552 C39.4678834,11.9703767 39.488287,12.0723946 39.5086906,12.1744126 C39.488287,12.2764305 39.4678834,12.398852 39.4678834,12.50087 L39.4678834,48.9620807 C39.4678834,48.9824843 39.4678834,49.0028879 39.4678834,49.0028879 C39.4678834,49.0845022 39.488287,49.1865202 39.488287,49.2681345 C39.488287,49.2885381 39.488287,49.3089417 39.5086906,49.3497489 C39.5290942,49.4517668 39.5699013,49.5537848 39.6107085,49.6558027 C39.6311121,49.6762063 39.6311121,49.6966099 39.6515157,49.737417 C39.6923229,49.8190314 39.73313,49.8802422 39.7739372,49.9414529 C39.7943408,49.9618565 39.8147444,50.0026637 39.835148,50.0230673 C39.8555516,50.0434709 39.8555516,50.0638744 39.8759552,50.084278 L48.5474798,61.4490762 C48.8943408,61.8979552 49.4452377,62.1836054 50.0165381,62.1836054 C50.5878386,62.1836054 51.1387354,61.9183587 51.4855964,61.4490762 L60.1571211,50.084278 C60.1775247,50.0638744 60.1775247,50.0434709 60.1979283,50.0230673 C60.2183318,50.0026637 60.2387354,49.9618565 60.259139,49.9414529 C60.2999462,49.8802422 60.3407534,49.7986278 60.3815605,49.737417 C60.4019641,49.7170135 60.4019641,49.6966099 60.4223677,49.6558027 C60.4631749,49.5537848 60.4835785,49.4517668 60.5243857,49.3497489 C60.5243857,49.3293453 60.5243857,49.3089417 60.5447892,49.2681345 C60.5651928,49.1865202 60.5651928,49.0845022 60.5651928,49.0028879 C60.5651928,48.9824843 60.5651928,48.9620807 60.5651928,48.9620807 L60.5651928,12.4396592 C60.5651928,12.3376413 60.5447892,12.2356233 60.5447892,12.1336054 C60.5651928,12.0315874 60.5651928,11.9295695 60.5651928,11.8275516 L60.5651928,6.78786547 L60.5243857,6.78786547 L60.5243857,6.78786547 Z M43.2017399,13.7046816 L48.1802152,13.7046816 L48.1802152,47.1053543 L43.2017399,47.1053543 L43.2017399,13.7046816 Z M51.8732646,13.7046816 L56.8517399,13.7046816 L56.8517399,47.1053543 L51.8732646,47.1053543 L51.8732646,13.7046816 L51.8732646,13.7046816 Z M43.2017399,6.78786547 C43.2017399,5.15557848 44.5279731,3.82934529 46.1602601,3.82934529 L53.8728161,3.82934529 C55.5051031,3.82934529 56.8313363,5.15557848 56.8313363,6.78786547 L56.8313363,9.9912287 L43.2017399,9.9912287 L43.2017399,6.78786547 L43.2017399,6.78786547 Z M50.0165381,57.2867444 L45.07887,50.8188072 L54.9338027,50.8188072 L50.0165381,57.2867444 Z" id="Shape" fill="#000000"></path>
            </g>
        </g>
    </g>
</svg>