<?xml version="1.0" encoding="UTF-8"?>
<svg width="110px" height="91px" viewBox="0 0 110 91" version="1.1" xmlns="http://www.w3.org/2000/svg" xmlns:xlink="http://www.w3.org/1999/xlink">
    <!-- Generator: Sketch 57.1 (83088) - https://sketch.com -->
    <title>laptop</title>
    <desc>Created with Sketch.</desc>
    <g id="UI" stroke="none" stroke-width="1" fill="none" fill-rule="evenodd">
        <g id="Home" transform="translate(-666.000000, -1257.000000)" fill-rule="nonzero">
            <g id="laptop" transform="translate(666.000000, 1257.000000)">
                <path d="M44.8085784,73.357598 L19.1367647,73.357598 C17.910049,73.357598 16.9286765,74.3389706 16.9286765,75.5656863 C16.9286765,76.792402 17.910049,77.7737745 19.1367647,77.7737745 L42.9127451,77.7737745 C43.6041667,79.6919118 45.4553922,81.052451 47.5965686,81.052451 L61.6926471,81.052451 C63.8338235,81.052451 65.685049,79.6919118 66.3764706,77.7737745 L90.1747549,77.7737745 C91.4014706,77.7737745 92.3828431,76.792402 92.3828431,75.5656863 C92.3828431,74.3389706 91.4014706,73.357598 90.1747549,73.357598 L64.5029412,73.357598 C63.2762255,73.357598 62.2948529,74.3389706 62.2948529,75.5656863 L62.2948529,76.0563725 C62.2948529,76.3686275 62.0272059,76.6362745 61.714951,76.6362745 L47.6188725,76.6362745 C47.3066176,76.6362745 47.0389706,76.3686275 47.0389706,76.0563725 L47.0389706,75.5656863 C47.0166667,74.3389706 46.0352941,73.357598 44.8085784,73.357598 Z" id="Path" fill="#2C2F33"></path>
                <path d="M107.125735,73.357598 L101.326716,73.357598 L101.326716,22.4823529 C101.326716,21.2556373 100.345343,20.2742647 99.1186275,20.2742647 C97.8919118,20.2742647 96.9105392,21.2556373 96.9105392,22.4823529 L96.9105392,75.5656863 C96.9105392,76.792402 97.9142157,77.7737745 99.1409314,77.7737745 L104.917647,77.7737745 L104.917647,80.8071078 C104.917647,83.9296569 102.375,86.4723039 99.252451,86.4723039 L10.0813725,86.4723039 C6.95882353,86.4723039 4.41617647,83.9296569 4.41617647,80.8071078 L4.41617647,77.7737745 L10.1928922,77.7737745 C11.4196078,77.7737745 12.4009804,76.792402 12.4009804,75.5656863 L12.4009804,22.4823529 C12.4009804,21.2556373 11.4196078,20.2742647 10.1928922,20.2742647 C8.96617647,20.2742647 7.98480392,21.2556373 7.98480392,22.4823529 L7.98480392,73.357598 L2.20808824,73.357598 C0.981372549,73.357598 0,74.3389706 0,75.5656863 L0,80.8071078 C0,86.3607843 4.52769608,90.8884804 10.0813725,90.8884804 L99.252451,90.8884804 C104.806127,90.8884804 109.333824,86.3607843 109.333824,80.8071078 L109.333824,75.5656863 C109.333824,74.3389706 108.352451,73.357598 107.125735,73.357598 Z" id="Path" fill="#2C2F33"></path>
                <path d="M63.2539216,15.6796569 L50.5183824,28.3482843 L46.079902,23.8875 C45.210049,23.0176471 43.8272059,23.0176471 42.9573529,23.8875 C42.0875,24.7573529 42.0875,26.1401961 42.9573529,27.010049 L48.9348039,33.0321078 C49.3585784,33.4558824 49.9384804,33.6789216 50.4960784,33.6789216 C51.0536765,33.6789216 51.6112745,33.4558824 52.0573529,33.0321078 L66.3764706,18.8022059 C67.2463235,17.9323529 67.2463235,16.5495098 66.3764706,15.6796569 C65.5289216,14.8321078 64.1237745,14.8098039 63.2539216,15.6796569 Z" id="Path" fill="#7D7CFB"></path>
                <path d="M81.9223039,0.156127451 L27.4115196,0.156127451 C22.9507353,0.156127451 19.3151961,3.79166667 19.3151961,8.25245098 L19.3151961,40.4593137 C19.3151961,44.920098 22.9507353,48.5556373 27.4115196,48.5556373 L29.7088235,48.5556373 L29.7088235,58.2578431 C29.7088235,60.0644608 31.1808824,61.5142157 32.9875,61.5142157 C33.9242647,61.5142157 34.8164216,61.1127451 35.4409314,60.3767157 L45.6561275,48.5556373 L81.9223039,48.5556373 C86.3830882,48.5556373 90.0186275,44.920098 90.0186275,40.4593137 L90.0186275,8.25245098 C90.0186275,3.79166667 86.3830882,0.156127451 81.9223039,0.156127451 Z M85.602451,40.4593137 C85.602451,42.4889706 83.9519608,44.1394608 81.9223039,44.1394608 L44.6301471,44.1394608 C43.9833333,44.1394608 43.3811275,44.4071078 42.9573529,44.8977941 L34.1026961,55.1352941 L34.1026961,46.347549 C34.1026961,45.1208333 33.1213235,44.1394608 31.8946078,44.1394608 L27.3892157,44.1394608 C25.3595588,44.1394608 23.7090686,42.4889706 23.7090686,40.4593137 L23.7090686,8.25245098 C23.7090686,6.22279412 25.3595588,4.57230392 27.3892157,4.57230392 L81.9,4.57230392 C83.9296569,4.57230392 85.5801471,6.22279412 85.5801471,8.25245098 L85.5801471,40.4593137 L85.602451,40.4593137 Z" id="Shape" fill="#2C2F33"></path>
            </g>
        </g>
    </g>
</svg>