<?xml version="1.0" encoding="UTF-8"?>
<svg width="113px" height="91px" viewBox="0 0 113 91" version="1.1" xmlns="http://www.w3.org/2000/svg" xmlns:xlink="http://www.w3.org/1999/xlink">
    <!-- Generator: Sketch 57.1 (83088) - https://sketch.com -->
    <title>networking-3</title>
    <desc>Created with Sketch.</desc>
    <g id="UI" stroke="none" stroke-width="1" fill="none" fill-rule="evenodd">
        <g id="Home" transform="translate(-816.000000, -2122.000000)" fill-rule="nonzero">
            <g id="networking-3" transform="translate(872.500000, 2167.500000) scale(1, -1) translate(-872.500000, -2167.500000) translate(816.000000, 2122.000000)">
                <path d="M78.1313131,37.8936869 L34.3777778,37.8936869 C32.8611111,37.8936869 31.620202,36.6527778 31.620202,35.1361111 L31.620202,4.84873737 C31.620202,3.33207071 32.8611111,2.09116162 34.3777778,2.09116162 L78.1313131,2.09116162 C79.6479798,2.09116162 80.8888889,3.33207071 80.8888889,4.84873737 L80.8888889,35.1361111 C80.8888889,36.6527778 79.6479798,37.8936869 78.1313131,37.8936869 Z" id="XMLID_2049_" fill="#7D7CFB"></path>
                <path d="M5.81388889,90.9310606 L26.7714646,90.9310606 C29.9886364,90.9310606 32.5853535,88.3113636 32.5853535,85.1171717 L32.5853535,73.7651515 C32.5853535,70.5479798 29.9656566,67.9512626 26.7714646,67.9512626 L18.3838384,67.9512626 L18.3838384,58.1388889 C18.3838384,56.415404 19.7856061,54.9906566 21.5320707,54.9906566 L54.1863636,54.9906566 L54.1863636,67.9512626 L45.7987374,67.9512626 C42.5815657,67.9512626 39.9848485,70.5709596 39.9848485,73.7651515 L39.9848485,85.1171717 C39.9848485,88.3343434 42.6045455,90.9310606 45.7987374,90.9310606 L66.7563131,90.9310606 C69.9734848,90.9310606 72.570202,88.3113636 72.570202,85.1171717 L72.570202,73.7651515 C72.570202,70.5479798 69.9505051,67.9512626 66.7563131,67.9512626 L58.3686869,67.9512626 L58.3686869,54.9906566 L91.0229798,54.9906566 C92.7464646,54.9906566 94.1712121,56.3924242 94.1712121,58.1388889 L94.1712121,67.9512626 L85.7835859,67.9512626 C82.5664141,67.9512626 79.969697,70.5709596 79.969697,73.7651515 L79.969697,85.1171717 C79.969697,88.3343434 82.5893939,90.9310606 85.7835859,90.9310606 L106.741162,90.9310606 C109.958333,90.9310606 112.555051,88.3113636 112.555051,85.1171717 L112.555051,73.7651515 C112.555051,70.5479798 109.935354,67.9512626 106.741162,67.9512626 L98.3535354,67.9512626 L98.3535354,58.1388889 C98.3535354,54.1174242 95.0674242,50.8313131 91.0459596,50.8313131 L58.3457071,50.8313131 L58.3457071,39.9618687 L75.3507576,39.9618687 C79.5560606,39.9618687 82.9800505,36.5378788 82.9800505,32.3325758 L82.9800505,7.65227273 C82.9800505,3.4469697 79.5560606,0.022979798 75.3507576,0.022979798 L37.1813131,0.022979798 C32.9760101,0.022979798 29.5520202,3.4469697 29.5520202,7.65227273 L29.5520202,32.3325758 C29.5520202,36.5378788 32.9760101,39.9618687 37.1813131,39.9618687 L54.1863636,39.9618687 L54.1863636,50.8083333 L21.5320707,50.8083333 C17.5106061,50.8083333 14.2244949,54.0944444 14.2244949,58.1159091 L14.2244949,67.9282828 L5.81388889,67.9282828 C2.59671717,67.9282828 0,70.5479798 0,73.7421717 L0,85.0941919 C0,88.3343434 2.61969697,90.9310606 5.81388889,90.9310606 Z M68.3878788,73.7651515 L68.3878788,85.1171717 C68.3878788,86.0363636 67.6525253,86.7717172 66.7333333,86.7717172 L45.7757576,86.7717172 C44.8565657,86.7717172 44.1212121,86.0363636 44.1212121,85.1171717 L44.1212121,73.7651515 C44.1212121,72.8459596 44.8565657,72.1106061 45.7757576,72.1106061 L66.7333333,72.1106061 C67.6525253,72.1106061 68.3878788,72.8689394 68.3878788,73.7651515 Z M108.349747,73.7651515 L108.349747,85.1171717 C108.349747,86.0363636 107.614394,86.7717172 106.695202,86.7717172 L85.7376263,86.7717172 C84.8184343,86.7717172 84.0830808,86.0363636 84.0830808,85.1171717 L84.0830808,73.7651515 C84.0830808,72.8459596 84.8184343,72.1106061 85.7376263,72.1106061 L106.695202,72.1106061 C107.591414,72.1106061 108.349747,72.8689394 108.349747,73.7651515 Z M33.7113636,32.3325758 L33.7113636,7.65227273 C33.7113636,5.74494949 35.2739899,4.18232323 37.1813131,4.18232323 L75.3277778,4.18232323 C77.235101,4.18232323 78.7977273,5.74494949 78.7977273,7.65227273 L78.7977273,32.3325758 C78.7977273,34.239899 77.235101,35.8025253 75.3277778,35.8025253 L37.1813131,35.8025253 C35.2510101,35.8025253 33.7113636,34.239899 33.7113636,32.3325758 Z M4.15934343,73.7651515 C4.15934343,72.8459596 4.89469697,72.1106061 5.81388889,72.1106061 L26.7714646,72.1106061 C27.6906566,72.1106061 28.4260101,72.8459596 28.4260101,73.7651515 L28.4260101,85.1171717 C28.4260101,86.0363636 27.6906566,86.7717172 26.7714646,86.7717172 L5.81388889,86.7717172 C4.89469697,86.7717172 4.15934343,86.0363636 4.15934343,85.1171717 C4.15934343,85.1171717 4.15934343,73.7651515 4.15934343,73.7651515 Z" id="Shape" fill="#000000"></path>
                <path d="M45.2931818,17.2578283 L67.2159091,17.2578283 C68.364899,17.2578283 69.3070707,16.3156566 69.3070707,15.1666667 C69.3070707,14.0176768 68.364899,13.0755051 67.2159091,13.0755051 L45.2931818,13.0755051 C44.1441919,13.0755051 43.2020202,14.0176768 43.2020202,15.1666667 C43.2020202,16.3156566 44.1441919,17.2578283 45.2931818,17.2578283 Z" id="Path" fill="#000000"></path>
                <path d="M69.3070707,24.795202 C69.3070707,23.6462121 68.364899,22.7040404 67.2159091,22.7040404 L45.2931818,22.7040404 C44.1441919,22.7040404 43.2020202,23.6462121 43.2020202,24.795202 C43.2020202,25.9441919 44.1441919,26.8863636 45.2931818,26.8863636 L67.2159091,26.8863636 C68.364899,26.8863636 69.3070707,25.9441919 69.3070707,24.795202 Z" id="Path" fill="#000000"></path>
            </g>
        </g>
    </g>
</svg>