<?xml version="1.0" encoding="UTF-8"?>
<svg width="114px" height="114px" viewBox="0 0 114 114" version="1.1" xmlns="http://www.w3.org/2000/svg" xmlns:xlink="http://www.w3.org/1999/xlink">
    <!-- Generator: Sketch 56.3 (81716) - https://sketch.com -->
    <title>network</title>
    <desc>Created with Sketch.</desc>
    <g id="Landing-Page" stroke="none" stroke-width="1" fill="none" fill-rule="evenodd">
        <g id="Landing---Desktop-ver1" transform="translate(-663.000000, -1678.000000)">
            <g id="Group-6" transform="translate(40.000000, 1440.000000)">
                <g id="network" transform="translate(623.000000, 238.000000)">
                    <rect id="Rectangle" fill="#7D7CFB" transform="translate(57.000000, 57.000000) rotate(21.000000) translate(-57.000000, -57.000000) " x="13" y="13" width="88" height="88"></rect>
                    <g transform="translate(31.000000, 31.000000)" fill-rule="nonzero">
                        <path d="M51.0714286,30.8095238 L51.0714286,42.547619 C51.0714286,43.6657738 50.1480159,44.5714286 49.0079365,44.5714286 C47.4161587,44.5714286 32.4422222,44.5714286 30.8492063,44.5714286 C29.709127,44.5714286 28.7857143,43.6657738 28.7857143,42.547619 L28.7857143,30.8095238 C28.7857143,29.691369 29.709127,28.7857143 30.8492063,28.7857143 L49.0079365,28.7857143 C50.1480159,28.7857143 51.0714286,29.691369 51.0714286,30.8095238 Z" id="Path" fill="#BFDBFF"></path>
                        <polygon id="Path" fill="#ECF2F3" points="37.1428571 44.5714286 43.6428571 44.5714286 43.6428571 51.0714286 37.1428571 51.0714286"></polygon>
                        <path d="M37.1428571,2.95238095 L37.1428571,14.6904762 C37.1428571,15.808631 36.2326361,16.7142857 35.1088435,16.7142857 C33.1321891,16.7142857 19.9278813,16.7142857 17.8197279,16.7142857 C16.6959354,16.7142857 15.7857143,15.808631 15.7857143,14.6904762 L15.7857143,2.95238095 C15.7857143,1.83422619 16.6959354,0.928571429 17.8197279,0.928571429 L35.1088435,0.928571429 C36.2326361,0.928571429 37.1428571,1.83422619 37.1428571,2.95238095 Z" id="Path" fill="#BFDBFF"></path>
                        <polygon id="Path" fill="#ECF2F3" points="23.2142857 16.7142857 29.7142857 16.7142857 29.7142857 23.2142857 23.2142857 23.2142857"></polygon>
                        <path d="M23.2142857,30.8095238 L23.2142857,42.547619 C23.2142857,43.6657738 22.290873,44.5714286 21.1507937,44.5714286 C19.5590159,44.5714286 4.58507937,44.5714286 2.99206349,44.5714286 C1.85198413,44.5714286 0.928571429,43.6657738 0.928571429,42.547619 L0.928571429,30.8095238 C0.928571429,29.691369 1.85198413,28.7857143 2.99206349,28.7857143 L21.1507937,28.7857143 C22.290873,28.7857143 23.2142857,29.691369 23.2142857,30.8095238 Z" id="Path" fill="#BFDBFF"></path>
                        <polygon id="Path" fill="#ECF2F3" points="8.35714286 44.5714286 14.8571429 44.5714286 14.8571429 51.0714286 8.35714286 51.0714286"></polygon>
                        <path d="M50.984375,23.96875 C51.5453047,23.96875 52,23.5139531 52,22.953125 C52,22.3922969 51.5453047,21.9375 50.984375,21.9375 L30.0625,21.9375 L30.0625,17.875 L34.6328125,17.875 C36.3128594,17.875 37.6796875,16.5081719 37.6796875,14.828125 L37.6796875,3.046875 C37.6796875,1.36682813 36.3128594,0 34.6328125,0 L30.5703125,0 C30.0093828,0 29.5546875,0.454796875 29.5546875,1.015625 C29.5546875,1.57645313 30.0093828,2.03125 30.5703125,2.03125 L34.6328125,2.03125 C35.1928281,2.03125 35.6484375,2.48685938 35.6484375,3.046875 L35.6484375,14.828125 C35.6484375,15.3881406 35.1928281,15.84375 34.6328125,15.84375 L17.3671875,15.84375 C16.8071719,15.84375 16.3515625,15.3881406 16.3515625,14.828125 L16.3515625,3.046875 C16.3515625,2.48685938 16.8071719,2.03125 17.3671875,2.03125 L21.4296875,2.03125 C21.9906172,2.03125 22.4453125,1.57645313 22.4453125,1.015625 C22.4453125,0.454796875 21.9906172,0 21.4296875,0 L17.3671875,0 C15.6871406,0 14.3203125,1.36682813 14.3203125,3.046875 L14.3203125,14.828125 C14.3203125,16.5081719 15.6871406,17.875 17.3671875,17.875 L21.9375,17.875 L21.9375,21.9375 L1.015625,21.9375 C0.454695313,21.9375 0,22.3922969 0,22.953125 C0,23.5139531 0.454695313,23.96875 1.015625,23.96875 L10.96875,23.96875 L10.96875,28.03125 L3.046875,28.03125 C1.36682813,28.03125 0,29.3980781 0,31.078125 L0,42.859375 C0,44.5394219 1.36682813,45.90625 3.046875,45.90625 L7.921875,45.90625 L7.921875,49.96875 L4.3671875,49.96875 C3.80625781,49.96875 3.3515625,50.4235469 3.3515625,50.984375 C3.3515625,51.5452031 3.80625781,52 4.3671875,52 L19.6015625,52 C20.1624922,52 20.6171875,51.5452031 20.6171875,50.984375 C20.6171875,50.4235469 20.1624922,49.96875 19.6015625,49.96875 L16.046875,49.96875 L16.046875,45.90625 L20.921875,45.90625 C22.6019219,45.90625 23.96875,44.5394219 23.96875,42.859375 L23.96875,31.078125 C23.96875,29.3980781 22.6019219,28.03125 20.921875,28.03125 L13,28.03125 L13,23.96875 L39,23.96875 L39,28.03125 L31.078125,28.03125 C29.3980781,28.03125 28.03125,29.3980781 28.03125,31.078125 L28.03125,42.859375 C28.03125,44.5394219 29.3980781,45.90625 31.078125,45.90625 L35.953125,45.90625 L35.953125,49.96875 L32.3984375,49.96875 C31.8375078,49.96875 31.3828125,50.4235469 31.3828125,50.984375 C31.3828125,51.5452031 31.8375078,52 32.3984375,52 L47.6328125,52 C48.1937422,52 48.6484375,51.5452031 48.6484375,50.984375 C48.6484375,50.4235469 48.1937422,49.96875 47.6328125,49.96875 L44.078125,49.96875 L44.078125,45.90625 L48.953125,45.90625 C50.6331719,45.90625 52,44.5394219 52,42.859375 L52,31.078125 C52,29.3980781 50.6331719,28.03125 48.953125,28.03125 L41.03125,28.03125 L41.03125,23.96875 L50.984375,23.96875 Z M14.015625,49.96875 L9.953125,49.96875 L9.953125,45.90625 L14.015625,45.90625 L14.015625,49.96875 Z M21.9375,31.078125 L21.9375,42.859375 C21.9375,43.4193906 21.4818906,43.875 20.921875,43.875 L3.046875,43.875 C2.48685938,43.875 2.03125,43.4193906 2.03125,42.859375 L2.03125,31.078125 C2.03125,30.5181094 2.48685938,30.0625 3.046875,30.0625 L20.921875,30.0625 C21.4818906,30.0625 21.9375,30.5182109 21.9375,31.078125 Z M42.046875,49.96875 L37.984375,49.96875 L37.984375,45.90625 L42.046875,45.90625 L42.046875,49.96875 Z M49.96875,31.078125 L49.96875,42.859375 C49.96875,43.4193906 49.5131406,43.875 48.953125,43.875 L31.078125,43.875 C30.5181094,43.875 30.0625,43.4193906 30.0625,42.859375 L30.0625,31.078125 C30.0625,30.5181094 30.5181094,30.0625 31.078125,30.0625 L48.953125,30.0625 C49.5131406,30.0625 49.96875,30.5182109 49.96875,31.078125 Z M23.96875,17.875 L28.03125,17.875 L28.03125,21.9375 L23.96875,21.9375 L23.96875,17.875 Z" id="Shape" fill="#000000"></path>
                        <circle id="Oval" fill="#000000" cx="26" cy="0.928571429" r="1"></circle>
                    </g>
                </g>
            </g>
        </g>
    </g>
</svg>
