<?xml version="1.0" encoding="UTF-8"?>
<svg width="114px" height="114px" viewBox="0 0 114 114" version="1.1" xmlns="http://www.w3.org/2000/svg" xmlns:xlink="http://www.w3.org/1999/xlink">
    <!-- Generator: Sketch 56.3 (81716) - https://sketch.com -->
    <title>scroll</title>
    <desc>Created with Sketch.</desc>
    <g id="Landing-Page" stroke="none" stroke-width="1" fill="none" fill-rule="evenodd">
        <g id="Landing---Desktop-ver1" transform="translate(-1043.000000, -1678.000000)">
            <g id="Group-6" transform="translate(40.000000, 1440.000000)">
                <g id="scroll" transform="translate(1003.000000, 238.000000)">
                    <rect id="Rectangle" fill="#7D7CFB" transform="translate(57.000000, 57.000000) rotate(21.000000) translate(-57.000000, -57.000000) " x="13" y="13" width="88" height="88"></rect>
                    <g transform="translate(26.000000, 25.000000)" fill-rule="nonzero">
                        <path d="M58.5609756,12 L3.43902439,12 C2.09146341,12 1,13.0938889 1,14.4444444 L1,45 L61,45 L61,14.4444444 C61,13.0938889 59.9085366,12 58.5609756,12 Z" id="Path" fill="#BFDBFF"></path>
                        <path d="M47.625,1 L22.5416667,1 C19.5734722,1 17.1666667,3.48516667 17.1666667,6.55 L17.1666667,30.6 L10,30.6 L10,32.45 C10,35.5148333 12.4068056,38 15.375,38 L36.875,38 C39.8431944,38 42.25,35.5148333 42.25,32.45 C42.25,29.8146133 42.25,22.1409367 42.25,19.5 L53,19.5 C53,16.8590633 53,9.18526333 53,6.55 C53,3.48356333 50.5921194,1 47.625,1 Z" id="Path" fill="#ECF2F3"></path>
                        <path d="M1,45 L1,50.5757576 C1,51.9151515 2.09146341,53 3.43902439,53 L23.6829268,53 L23.6829268,61 L38.3170732,61 L38.3170732,53 L58.5609756,53 C59.9085366,53 61,51.9151515 61,50.5757576 L61,45 L1,45 Z" id="Path" fill="#F5F5FA"></path>
                        <path d="M58.3671875,10.8984375 L54.0078125,10.8984375 L54.0078125,6.66015625 C54.0078125,2.97914844 51.0289062,0 47.3476562,0 L21.9179688,0 C18.2455586,0 15.2578125,2.98774609 15.2578125,6.66015625 L15.2578125,10.8984375 L3.6328125,10.8984375 C1.62967969,10.8984375 0,12.5281172 0,14.53125 L0,50.375 C0,52.3781328 1.62967969,54.0078125 3.6328125,54.0078125 L22.5234375,54.0078125 L22.5234375,59.578125 L16.46875,59.578125 C15.8000703,59.578125 15.2578125,60.1203828 15.2578125,60.7890625 C15.2578125,61.4577422 15.8000703,62 16.46875,62 L45.53125,62 C46.1999297,62 46.7421875,61.4577422 46.7421875,60.7890625 C46.7421875,60.1203828 46.1999297,59.578125 45.53125,59.578125 L39.4765625,59.578125 L39.4765625,54.0078125 L58.3671875,54.0078125 C60.3703203,54.0078125 62,52.3781328 62,50.375 L62,14.53125 C62,12.5281172 60.3703203,10.8984375 58.3671875,10.8984375 Z M51.5859375,6.66015625 L51.5859375,18.1640625 L43.109375,18.1640625 L43.109375,6.66015625 C43.109375,4.32316797 45.010668,2.421875 47.3476563,2.421875 C49.6903359,2.421875 51.5859375,4.31747656 51.5859375,6.66015625 Z M17.6796875,6.66015625 C17.6796875,4.32316797 19.5809805,2.421875 21.9179688,2.42066406 L42.2138867,2.42066406 C41.2608789,3.57420313 40.6875,5.05142578 40.6875,6.66015625 L40.6875,32.0898438 C40.6875,34.426832 38.786207,36.328125 36.4492188,36.328125 C34.1122305,36.328125 32.2109375,34.426832 32.2109375,32.0898438 L32.2109375,30.2734375 C32.2109375,29.6047578 31.6686797,29.0625 31,29.0625 L17.6796875,29.0625 L17.6796875,6.66015625 Z M29.7890625,31.484375 L29.7890625,32.0898438 C29.7890625,33.6985742 30.3621992,35.1756758 31.3153281,36.328125 L14.6523438,36.328125 C12.3153555,36.328125 10.4140625,34.426832 10.4140625,32.0898438 L10.4140625,31.484375 L29.7890625,31.484375 Z M37.0546875,59.578125 L24.9453125,59.578125 L24.9453125,54.0078125 L37.0546875,54.0078125 L37.0546875,59.578125 Z M58.3671875,51.5859375 L3.6328125,51.5859375 C2.96510156,51.5859375 2.421875,51.0427109 2.421875,50.375 L2.421875,46.015625 L25.5507813,46.015625 C26.2194609,46.015625 26.7617188,45.4733672 26.7617188,44.8046875 C26.7617188,44.1360078 26.2194609,43.59375 25.5507813,43.59375 L2.421875,43.59375 L2.421875,14.53125 C2.421875,13.8635391 2.96510156,13.3203125 3.6328125,13.3203125 L15.2578125,13.3203125 L15.2578125,29.0625 L9.203125,29.0625 C8.53444531,29.0625 7.9921875,29.6047578 7.9921875,30.2734375 L7.9921875,32.0898438 C7.9921875,35.7622539 10.9799336,38.75 14.6523438,38.75 L36.4492188,38.75 C40.1216289,38.75 43.109375,35.7622539 43.109375,32.0898438 C43.109375,30.9669414 43.109375,21.7186484 43.109375,20.5859375 L52.796875,20.5859375 C53.4655547,20.5859375 54.0078125,20.0436797 54.0078125,19.375 L54.0078125,13.3203125 L58.3671875,13.3203125 C59.0348984,13.3203125 59.578125,13.8635391 59.578125,14.53125 L59.578125,43.59375 L36.4492188,43.59375 C35.7805391,43.59375 35.2382813,44.1360078 35.2382813,44.8046875 C35.2382813,45.4733672 35.7805391,46.015625 36.4492188,46.015625 L59.578125,46.015625 L59.578125,50.375 C59.578125,51.0427109 59.0348984,51.5859375 58.3671875,51.5859375 Z" id="Shape" fill="#000000"></path>
                        <path d="M24.1818182,10 L34.8181818,10 C35.4707818,10 36,9.5522 36,9 C36,8.4478 35.4707818,8 34.8181818,8 L24.1818182,8 C23.5292182,8 23,8.4478 23,9 C23,9.5522 23.5292182,10 24.1818182,10 Z" id="Path" fill="#000000"></path>
                        <path d="M24.1818182,17 L34.8181818,17 C35.4707818,17 36,16.5522 36,16 C36,15.4478 35.4707818,15 34.8181818,15 L24.1818182,15 C23.5292182,15 23,15.4478 23,16 C23,16.5522 23.5292182,17 24.1818182,17 Z" id="Path" fill="#000000"></path>
                        <path d="M24.1818182,24 L34.8181818,24 C35.4707818,24 36,23.5522 36,23 C36,22.4478 35.4707818,22 34.8181818,22 L24.1818182,22 C23.5292182,22 23,22.4478 23,23 C23,23.5522 23.5292182,24 24.1818182,24 Z" id="Path" fill="#000000"></path>
                        <path d="M31,44 C30.4477,44 30,44.4477 30,45 C30,45.5523 30.4477,46 31,46 C31.5523,46 32,45.5523 32,45 C32,44.4477 31.5523,44 31,44 Z" id="Path" fill="#000000"></path>
                    </g>
                </g>
            </g>
        </g>
    </g>
</svg>
