<?xml version="1.0" encoding="UTF-8"?>
<svg width="114px" height="114px" viewBox="0 0 114 114" version="1.1" xmlns="http://www.w3.org/2000/svg" xmlns:xlink="http://www.w3.org/1999/xlink">
    <!-- Generator: Sketch 56.3 (81716) - https://sketch.com -->
    <title>shield</title>
    <desc>Created with Sketch.</desc>
    <g id="Landing-Page" stroke="none" stroke-width="1" fill="none" fill-rule="evenodd">
        <g id="Landing---Desktop-ver1" transform="translate(-283.000000, -1678.000000)">
            <g id="Group-6" transform="translate(40.000000, 1440.000000)">
                <g id="shield" transform="translate(243.000000, 238.000000)">
                    <rect id="bg" fill="#7D7CFB" transform="translate(57.000000, 57.000000) rotate(21.000000) translate(-57.000000, -57.000000) " x="13" y="13" width="88" height="88"></rect>
                    <g transform="translate(57.500000, 57.000000) scale(-1, 1) translate(-57.500000, -57.000000) translate(38.000000, 31.000000)" fill-rule="nonzero">
                        <path d="M38.1521739,6.97560976 L38.1521739,25.6174666 C38.1521739,37.2070024 30.6384565,47.4965382 19.5,51.1612903 C8.36154348,47.4965382 0.847826087,37.2070024 0.847826087,25.6174666 L0.847826087,6.97560976 L3.95652174,6.97560976 C5.67355797,6.97560976 7.2279058,6.28827695 8.35325362,5.17852085 C9.47756522,4.06774194 10.173913,2.53351692 10.173913,0.838709677 L28.826087,0.838709677 C28.826087,4.22832415 31.6094058,6.97560976 35.0434783,6.97560976 L38.1521739,6.97560976 Z" id="Path" fill="#ECF2F3"></path>
                        <path d="M23.7988315,6.70967742 C22.6569723,6.70967742 15.5027826,6.70967742 14.3533424,6.70967742 C12.7203587,9.52936511 10.0055489,11.6449007 6.7826087,12.4794133 L6.7826087,25.4179511 C6.7826087,33.7086746 11.6446793,41.1166419 19.076087,44.4516129 C26.5074946,41.1166419 31.3695652,33.7086746 31.3695652,25.4179511 L31.3695652,12.4794133 C28.146625,11.6449007 25.4318152,9.52936511 23.7988315,6.70967742 Z" id="Path" fill="#BFDBFF"></path>
                        <path d="M19.1754789,51.9478984 C19.2807789,51.9826328 19.3903895,52 19.5,52 C19.6096105,52 19.7192211,51.9826328 19.8245211,51.9478984 C31.2940105,48.1644922 39,37.5843203 39,25.6201563 L39,7.109375 C39,6.54854688 38.5404158,6.09375 37.9736842,6.09375 L34.8947368,6.09375 C32.0651842,6.09375 29.7631579,3.81570313 29.7631579,1.015625 C29.7631579,0.454796875 29.3035737,0 28.7368421,0 L10.2631579,0 C9.69632368,0 9.23684211,0.454796875 9.23684211,1.015625 C9.23684211,3.82880469 6.93522632,6.09375 4.10526316,6.09375 L1.02631579,6.09375 C0.459481579,6.09375 0,6.54854688 0,7.109375 L0,25.6201563 C0,37.5843203 7.70598947,48.1644922 19.1754789,51.9478984 Z M2.05263158,8.125 L4.10526316,8.125 C7.75155789,8.125 10.7257184,5.45157031 11.2171184,2.03125 L27.7836,2.03125 C28.2831079,5.47198437 31.2817974,8.125 34.8947368,8.125 L36.9473684,8.125 L36.9473684,25.6201562 C36.9473684,36.5955078 29.9507684,46.3142266 19.5,49.9115703 C9.04912895,46.3142266 2.05263158,36.5955078 2.05263158,25.6201562 L2.05263158,8.125 Z" id="Shape" fill="#000000"></path>
                        <path d="M18.6627913,45.2017334 C18.6649142,45.2026486 18.6671381,45.2032586 18.6692609,45.2041737 C18.9348174,45.3220188 19.2307001,45.3160198 19.4828119,45.2041737 C19.4849347,45.2032586 19.4871586,45.2026486 19.4892815,45.2017334 C27.2212503,41.7184407 32.2173913,33.953376 32.2173913,25.419624 L32.2173913,12.6030833 C32.2173913,12.1394305 31.9056379,11.7346495 31.4594384,11.6186347 C28.5995763,10.8751634 26.1032243,8.96483288 24.6104675,6.37732532 C24.4296222,6.06385134 24.0964383,5.87096774 23.736163,5.87096774 L14.4159098,5.87096774 C14.0555334,5.87096774 13.7224506,6.06385134 13.5416053,6.377427 C12.0488485,8.96483288 9.55259761,10.8751634 6.69273552,11.6186347 C6.24653598,11.7346495 5.93478261,12.1394305 5.93478261,12.6030833 L5.93478261,25.419624 C5.93478261,33.953376 10.9307214,41.7184407 18.6627913,45.2017334 L18.6627913,45.2017334 Z M7.95642843,13.3651616 C10.8314536,12.4244346 13.3385209,10.4780083 14.9826055,7.90453232 L18.065163,7.90453232 L18.065163,21.2243803 C18.065163,21.7858475 18.5178321,22.2411626 19.0760364,22.2411626 C19.6342407,22.2411626 20.0869099,21.7858475 20.0869099,21.2243803 L20.0869099,7.90453232 L23.1694674,7.90453232 C24.813552,10.47811 27.3205181,12.4244346 30.1956444,13.3651616 L30.1956444,25.419624 C30.1956444,32.6156973 26.2761848,39.2077002 20.0869099,42.6321213 L20.0869099,30.3754209 C20.0869099,29.8139537 19.6342407,29.3586386 19.0760364,29.3586386 C18.5178321,29.3586386 18.065163,29.8139537 18.065163,30.3754209 L18.065163,42.6321213 C11.8758881,39.2075985 7.95642843,32.6156973 7.95642843,25.4195223 L7.95642843,13.3651616 Z" id="Shape" fill="#000000"></path>
                        <ellipse id="Oval" fill="#000000" cx="19.5" cy="26" rx="1" ry="1"></ellipse>
                    </g>
                </g>
            </g>
        </g>
    </g>
</svg>
