<?xml version="1.0" encoding="UTF-8"?>
<svg width="103px" height="91px" viewBox="0 0 103 91" version="1.1" xmlns="http://www.w3.org/2000/svg" xmlns:xlink="http://www.w3.org/1999/xlink">
    <!-- Generator: Sketch 57.1 (83088) - https://sketch.com -->
    <title>teamwork</title>
    <desc>Created with Sketch.</desc>
    <g id="UI" stroke="none" stroke-width="1" fill="none" fill-rule="evenodd">
        <g id="Home" transform="translate(-269.000000, -1257.000000)" fill-rule="nonzero">
            <g id="teamwork" transform="translate(269.000000, 1257.000000)">
                <path d="M51.5387097,64.5282258 C53.2370968,64.5282258 54.7887097,63.8782258 55.9629032,62.8298387 L63.616129,67.2540323 C63.9516129,67.4427419 64.3080645,67.5266129 64.6435484,67.5266129 C65.3564516,67.5266129 66.0693548,67.1491935 66.4467742,66.4782258 C67.0129032,65.4927419 66.6774194,64.2137097 65.6919355,63.6475806 L58.0596774,59.2443548 C58.1435484,58.8040323 58.2064516,58.3427419 58.2064516,57.8814516 C58.2064516,54.9459677 56.2774194,52.4298387 53.6354839,51.5701613 L53.6354839,42.7427419 C53.6354839,41.5895161 52.7129032,40.6669355 51.5596774,40.6669355 C50.4064516,40.6669355 49.483871,41.5895161 49.483871,42.7427419 L49.483871,51.5701613 C46.8,52.4298387 44.8709677,54.925 44.8709677,57.8604839 C44.8709677,58.3217742 44.9129032,58.7830645 45.0177419,59.2233871 L37.3854839,63.6266129 C36.4,64.1927419 36.0435484,65.4717742 36.6306452,66.4572581 C37.0080645,67.1282258 37.7209677,67.5056452 38.433871,67.5056452 C38.7903226,67.5056452 39.1467742,67.4217742 39.4612903,67.2330645 L47.1145161,62.808871 C48.2887097,63.8782258 49.8403226,64.5282258 51.5387097,64.5282258 Z M51.5387097,55.3653226 C52.9225806,55.3653226 54.033871,56.4766129 54.033871,57.8604839 C54.033871,59.2443548 52.9225806,60.3556452 51.5387097,60.3556452 C50.1548387,60.3556452 49.0435484,59.2443548 49.0435484,57.8604839 C49.0225806,56.4975806 50.1548387,55.3653226 51.5387097,55.3653226 Z" id="Shape" fill="#7D7CFB"></path>
                <path d="M69.5919355,43.6024194 C70.7451613,43.6024194 71.6677419,42.6798387 71.6677419,41.5266129 L71.6677419,36.3895161 C71.6677419,34.6701613 70.9129032,33.0556452 69.5919355,31.9862903 C65.6709677,28.7572581 61.4564516,26.408871 59.4854839,25.3814516 L59.4854839,20.1814516 C60.45,19.175 60.9951613,17.8330645 60.9951613,16.4072581 L60.9951613,8.90080645 C60.9951613,4.03629032 57.0322581,0.0733870968 52.1677419,0.0733870968 L50.5532258,0.0733870968 C45.6887097,0.0733870968 41.7258065,4.03629032 41.7258065,8.90080645 L41.7258065,16.4072581 C41.7258065,17.8330645 42.2709677,19.175 43.2354839,20.1814516 L43.2354839,25.3604839 C41.2645161,26.3879032 37.0709677,28.7362903 33.1290323,31.9653226 C31.8080645,33.0556452 31.0532258,34.6491935 31.0532258,36.3685484 L31.0532258,41.5056452 C31.0532258,42.658871 31.9758065,43.5814516 33.1290323,43.5814516 C34.2822581,43.5814516 35.2048387,42.658871 35.2048387,41.5056452 L35.2048387,36.3685484 C35.2048387,35.9072581 35.4145161,35.4669355 35.7709677,35.1733871 C40.2580645,31.4830645 45.1016129,29.0508065 46.0241935,28.5895161 C46.8629032,28.191129 47.366129,27.3524194 47.366129,26.4298387 L47.366129,19.1959677 C47.366129,18.5040323 47.0096774,17.8540323 46.4435484,17.4766129 C46.0870968,17.225 45.8564516,16.8266129 45.8564516,16.3862903 L45.8564516,8.90080645 C45.8564516,6.32177419 47.9532258,4.225 50.5322581,4.225 L52.1467742,4.225 C54.7258065,4.225 56.8225806,6.32177419 56.8225806,8.90080645 L56.8225806,16.3862903 C56.8225806,16.8266129 56.6129032,17.225 56.2354839,17.4766129 C55.6483871,17.8540323 55.3129032,18.5040323 55.3129032,19.1959677 L55.3129032,26.4298387 C55.3129032,27.3524194 55.8370968,28.191129 56.6548387,28.5895161 C57.5774194,29.0508065 62.4419355,31.5040323 66.9080645,35.1733871 C67.2645161,35.4669355 67.4741935,35.9072581 67.4741935,36.3685484 L67.4741935,41.5056452 C67.516129,42.6798387 68.4596774,43.6024194 69.5919355,43.6024194 Z" id="Path" fill="#2C2F33"></path>
                <path d="M102.741935,88.8298387 L102.741935,83.6927419 C102.741935,81.9733871 101.987097,80.358871 100.666129,79.2895161 C96.7451613,76.0604839 92.5516129,73.7120968 90.5596774,72.6846774 L90.5596774,67.4846774 C91.5241935,66.4782258 92.0693548,65.1362903 92.0693548,63.7104839 L92.0693548,56.225 C92.0693548,51.3604839 88.1064516,47.3975806 83.2419355,47.3975806 L81.6274194,47.3975806 C76.7629032,47.3975806 72.8,51.3604839 72.8,56.225 L72.8,63.7314516 C72.8,65.1572581 73.3451613,66.4991935 74.3096774,67.5056452 L74.3096774,72.7056452 C72.3387097,73.7330645 68.1451613,76.0814516 64.2032258,79.3104839 C62.8822581,80.4008065 62.1274194,81.9943548 62.1274194,83.7137097 L62.1274194,88.8508065 C62.1274194,90.0040323 63.05,90.9266129 64.2032258,90.9266129 C65.3564516,90.9266129 66.2790323,90.0040323 66.2790323,88.8508065 L66.2790323,83.7137097 C66.2790323,83.2524194 66.4887097,82.8120968 66.8451613,82.5185484 C71.3322581,78.8282258 76.1758065,76.3959677 77.0983871,75.9346774 C77.916129,75.5362903 78.4612903,74.6766129 78.4612903,73.775 L78.4612903,66.541129 C78.4612903,65.8491935 78.1048387,65.1991935 77.5387097,64.8217742 C77.1822581,64.5701613 76.9516129,64.1717742 76.9516129,63.7314516 L76.9516129,56.225 C76.9516129,53.6459677 79.0483871,51.5491935 81.6274194,51.5491935 L83.2419355,51.5491935 C85.8209677,51.5491935 87.9177419,53.6459677 87.9177419,56.225 L87.9177419,63.7104839 C87.9177419,64.1508065 87.7080645,64.5491935 87.3306452,64.8008065 C86.7435484,65.1782258 86.4080645,65.8282258 86.4080645,66.5201613 L86.4080645,73.7540323 C86.4080645,74.6766129 86.9322581,75.5153226 87.75,75.9137097 C88.6725806,76.375 93.5370968,78.8282258 98.0032258,82.4975806 C98.3596774,82.791129 98.5693548,83.2314516 98.5693548,83.6927419 L98.5693548,88.8298387 C98.5693548,89.9830645 99.4919355,90.9056452 100.645161,90.9056452 C101.819355,90.9056452 102.741935,89.9830645 102.741935,88.8298387 Z" id="Path" fill="#2C2F33"></path>
                <path d="M38.5177419,90.9056452 C39.6709677,90.9056452 40.5935484,89.9830645 40.5935484,88.8298387 L40.5935484,83.6927419 C40.5935484,81.9733871 39.8387097,80.358871 38.5177419,79.2895161 C34.5967742,76.0604839 30.4032258,73.7120968 28.4112903,72.6846774 L28.4112903,67.4846774 C29.3758065,66.4782258 29.9209677,65.1362903 29.9209677,63.7104839 L29.9209677,56.225 C29.9209677,51.3604839 25.9580645,47.3975806 21.0935484,47.3975806 L19.5,47.3975806 C14.6354839,47.3975806 10.6725806,51.3604839 10.6725806,56.225 L10.6725806,63.7314516 C10.6725806,65.1572581 11.2177419,66.4991935 12.1822581,67.5056452 L12.1822581,72.7056452 C10.2112903,73.7330645 6.01774194,76.0814516 2.07580645,79.3104839 C0.75483871,80.4008065 0,81.9943548 0,83.7137097 L0,88.8508065 C0,90.0040323 0.922580645,90.9266129 2.07580645,90.9266129 C3.22903226,90.9266129 4.1516129,90.0040323 4.1516129,88.8508065 L4.1516129,83.7137097 C4.1516129,83.2524194 4.36129032,82.8120968 4.71774194,82.5185484 C9.18387097,78.8491935 14.0483871,76.3959677 14.9709677,75.9346774 C15.7887097,75.5362903 16.333871,74.6766129 16.333871,73.775 L16.333871,66.541129 C16.333871,65.8491935 15.9774194,65.1991935 15.4112903,64.8217742 C15.0548387,64.5701613 14.8241935,64.1717742 14.8241935,63.7314516 L14.8241935,56.225 C14.8241935,53.6459677 16.9209677,51.5491935 19.5,51.5491935 L21.1145161,51.5491935 C23.6935484,51.5491935 25.7903226,53.6459677 25.7903226,56.225 L25.7903226,63.7104839 C25.7903226,64.1508065 25.5806452,64.5491935 25.2032258,64.8008065 C24.616129,65.1782258 24.2806452,65.8282258 24.2806452,66.5201613 L24.2806452,73.7540323 C24.2806452,74.6766129 24.8048387,75.5153226 25.6225806,75.9137097 C26.5451613,76.375 31.4096774,78.8282258 35.8758065,82.4975806 C36.2322581,82.791129 36.4419355,83.2314516 36.4419355,83.6927419 L36.4419355,88.8298387 C36.4419355,89.9830645 37.3854839,90.9056452 38.5177419,90.9056452 Z" id="Path" fill="#2C2F33"></path>
            </g>
        </g>
    </g>
</svg>