<?xml version="1.0" encoding="UTF-8"?>
<svg width="545px" height="545px" viewBox="0 0 545 545" version="1.1" xmlns="http://www.w3.org/2000/svg" xmlns:xlink="http://www.w3.org/1999/xlink">
    <!-- Generator: Sketch 57.1 (83088) - https://sketch.com -->
    <title>utiliqo</title>
    <desc>Created with Sketch.</desc>
    <g id="UI" stroke="none" stroke-width="1" fill="none" fill-rule="evenodd">
        <g id="images" transform="translate(-1020.000000, -89.000000)">
            <g id="utiliqo" transform="translate(1020.000000, 89.000000)">
                <circle id="Oval" fill="#FFFFFF" cx="272.5" cy="272.5" r="272.5"></circle>
                <g id="Group" transform="translate(108.000000, 139.000000)">
                    <g id="Group-3" transform="translate(95.000000, 0.000000)">
                        <path d="M86.7779464,1.93884059 C100.875639,7.38124912 111.531855,19.9032163 114.517083,35.2161001 C129.84125,36.3259868 142,49.1646768 142,65.0030608 C142,81.5613712 128.746667,95 112.416667,95 L112.416667,95 L35.5,95 C15.88625,95 0,78.8916436 0,59.0036729 C0,43.3284025 9.88814542,30.004738 23.6662583,25.0605753 L23.6666667,62.0026527 C23.6666667,65.8686459 26.8006734,69.0026527 30.6666667,69.0026527 L30.6666667,69.0026527 L79.7777778,69.0026527 C83.643771,69.0026527 86.7777778,65.8686459 86.7777778,62.0026527 L86.7777778,62.0026527 Z" id="Combined-Shape" fill="#008FCB" fill-rule="nonzero"></path>
                        <path d="M44.2800609,48.1351161 C44.8323456,48.1351161 45.2800609,48.5828314 45.2800609,49.1351161 L45.2800609,57.1632653 C45.2800609,57.7155501 44.8323456,58.1632653 44.2800609,58.1632653 L36.0136986,58.1632653 C35.4614139,58.1632653 35.0136986,57.7155501 35.0136986,57.1632653 L35.0136986,49.1351161 C35.0136986,48.5828314 35.4614139,48.1351161 36.0136986,48.1351161 L44.2800609,48.1351161 Z M57.6263318,48.1351161 C58.1786166,48.1351161 58.6263318,48.5828314 58.6263318,49.1351161 L58.6263318,57.1632653 C58.6263318,57.7155501 58.1786166,58.1632653 57.6263318,58.1632653 L49.3599696,58.1632653 C48.8076848,58.1632653 48.3599696,57.7155501 48.3599696,57.1632653 L48.3599696,49.1351161 C48.3599696,48.5828314 48.8076848,48.1351161 49.3599696,48.1351161 L57.6263318,48.1351161 Z M70.9726027,48.1351161 C71.5248875,48.1351161 71.9726027,48.5828314 71.9726027,49.1351161 L71.9726027,57.1632653 C71.9726027,57.7155501 71.5248875,58.1632653 70.9726027,58.1632653 L62.7062405,58.1632653 C62.1539557,58.1632653 61.7062405,57.7155501 61.7062405,57.1632653 L61.7062405,49.1351161 C61.7062405,48.5828314 62.1539557,48.1351161 62.7062405,48.1351161 L70.9726027,48.1351161 Z M44.2800609,36.1013371 C44.8323456,36.1013371 45.2800609,36.5490523 45.2800609,37.1013371 L45.2800609,45.1294863 C45.2800609,45.681771 44.8323456,46.1294863 44.2800609,46.1294863 L36.0136986,46.1294863 C35.4614139,46.1294863 35.0136986,45.681771 35.0136986,45.1294863 L35.0136986,37.1013371 C35.0136986,36.5490523 35.4614139,36.1013371 36.0136986,36.1013371 L44.2800609,36.1013371 Z M57.6263318,36.1013371 C58.1786166,36.1013371 58.6263318,36.5490523 58.6263318,37.1013371 L58.6263318,45.1294863 C58.6263318,45.681771 58.1786166,46.1294863 57.6263318,46.1294863 L49.3599696,46.1294863 C48.8076848,46.1294863 48.3599696,45.681771 48.3599696,45.1294863 L48.3599696,37.1013371 C48.3599696,36.5490523 48.8076848,36.1013371 49.3599696,36.1013371 L57.6263318,36.1013371 Z M70.9726027,36.1013371 C71.5248875,36.1013371 71.9726027,36.5490523 71.9726027,37.1013371 L71.9726027,45.1294863 C71.9726027,45.681771 71.5248875,46.1294863 70.9726027,46.1294863 L62.7062405,46.1294863 C62.1539557,46.1294863 61.7062405,45.681771 61.7062405,45.1294863 L61.7062405,37.1013371 C61.7062405,36.5490523 62.1539557,36.1013371 62.7062405,36.1013371 L70.9726027,36.1013371 Z M44.2800609,24.0675581 C44.8323456,24.0675581 45.2800609,24.5152733 45.2800609,25.0675581 L45.2800609,33.0957072 C45.2800609,33.647992 44.8323456,34.0957072 44.2800609,34.0957072 L36.0136986,34.0957072 C35.4614139,34.0957072 35.0136986,33.647992 35.0136986,33.0957072 L35.0136986,25.0675581 C35.0136986,24.5152733 35.4614139,24.0675581 36.0136986,24.0675581 L44.2800609,24.0675581 Z M57.6263318,24.0675581 C58.1786166,24.0675581 58.6263318,24.5152733 58.6263318,25.0675581 L58.6263318,33.0957072 C58.6263318,33.647992 58.1786166,34.0957072 57.6263318,34.0957072 L49.3599696,34.0957072 C48.8076848,34.0957072 48.3599696,33.647992 48.3599696,33.0957072 L48.3599696,25.0675581 C48.3599696,24.5152733 48.8076848,24.0675581 49.3599696,24.0675581 L57.6263318,24.0675581 Z M70.9726027,24.0675581 C71.5248875,24.0675581 71.9726027,24.5152733 71.9726027,25.0675581 L71.9726027,33.0957072 C71.9726027,33.647992 71.5248875,34.0957072 70.9726027,34.0957072 L62.7062405,34.0957072 C62.1539557,34.0957072 61.7062405,33.647992 61.7062405,33.0957072 L61.7062405,25.0675581 C61.7062405,24.5152733 62.1539557,24.0675581 62.7062405,24.0675581 L70.9726027,24.0675581 Z M44.2800609,12.033779 C44.8323456,12.033779 45.2800609,12.4814943 45.2800609,13.033779 L45.2800609,21.0619282 C45.2800609,21.614213 44.8323456,22.0619282 44.2800609,22.0619282 L36.0136986,22.0619282 C35.4614139,22.0619282 35.0136986,21.614213 35.0136986,21.0619282 L35.0136986,13.033779 C35.0136986,12.4814943 35.4614139,12.033779 36.0136986,12.033779 L44.2800609,12.033779 Z M57.6263318,12.033779 C58.1786166,12.033779 58.6263318,12.4814943 58.6263318,13.033779 L58.6263318,21.0619282 C58.6263318,21.614213 58.1786166,22.0619282 57.6263318,22.0619282 L49.3599696,22.0619282 C48.8076848,22.0619282 48.3599696,21.614213 48.3599696,21.0619282 L48.3599696,13.033779 C48.3599696,12.4814943 48.8076848,12.033779 49.3599696,12.033779 L57.6263318,12.033779 Z M70.9726027,12.033779 C71.5248875,12.033779 71.9726027,12.4814943 71.9726027,13.033779 L71.9726027,21.0619282 C71.9726027,21.614213 71.5248875,22.0619282 70.9726027,22.0619282 L62.7062405,22.0619282 C62.1539557,22.0619282 61.7062405,21.614213 61.7062405,21.0619282 L61.7062405,13.033779 C61.7062405,12.4814943 62.1539557,12.033779 62.7062405,12.033779 L70.9726027,12.033779 Z M57.6263318,0 C58.1786166,-1.01453063e-16 58.6263318,0.44771525 58.6263318,1 L58.6263318,9.02814919 C58.6263318,9.58043394 58.1786166,10.0281492 57.6263318,10.0281492 L49.3599696,10.0281492 C48.8076848,10.0281492 48.3599696,9.58043394 48.3599696,9.02814919 L48.3599696,1 C48.3599696,0.44771525 48.8076848,1.01453063e-16 49.3599696,0 L57.6263318,0 Z M70.9726027,0 C71.5248875,-1.01453063e-16 71.9726027,0.44771525 71.9726027,1 L71.9726027,9.02814919 C71.9726027,9.58043394 71.5248875,10.0281492 70.9726027,10.0281492 L62.7062405,10.0281492 C62.1539557,10.0281492 61.7062405,9.58043394 61.7062405,9.02814919 L61.7062405,1 C61.7062405,0.44771525 62.1539557,1.01453063e-16 62.7062405,0 L70.9726027,0 Z" id="Combined-Shape" fill="#FB1880"></path>
                    </g>
                    <g id="Utiliqo" transform="translate(0.000000, 128.000000)" fill-rule="nonzero">
                        <polygon id="Path" fill="#008FCB" points="81.5294118 8.96470398e-14 95.3636231 0 95.3636231 21.3529412 120.352941 21.3529412 120.352941 35.0021256 95.3636231 35.0021256 95.3636231 84.9010908 95.3636231 99 81.5294118 99"></polygon>
                        <polygon id="Path" fill="#008FCB" points="120.352941 46.5882353 120.352941 99 106.764706 99 106.764706 46.5882353"></polygon>
                        <polygon id="Path" fill="#008FCB" points="170.823529 21.3529412 170.823529 34.9411765 157.235294 34.9411765 157.235294 21.3529412"></polygon>
                        <polygon id="Path" fill="#008FCB" points="145.588235 0 145.588235 99 132 99 132 0"></polygon>
                        <polygon id="Path" fill="#008FCB" points="170.823529 46.5882353 170.823529 99 157.235294 99 157.235294 46.5882353"></polygon>
                        <path d="M182.470588,37.2876164 C182.470588,35.3460383 182.843227,33.5228765 183.588516,31.8180762 C184.333805,30.113276 185.343537,28.6334369 186.617741,27.3785145 C187.891945,26.1235921 189.394521,25.1291402 191.125515,24.395129 C192.856509,23.6611178 194.683642,23.2941176 196.606969,23.2941176 L236.20326,23.2941176 C238.17467,23.2941176 240.025844,23.6611178 241.756838,24.395129 C243.487832,25.1291402 244.990408,26.1235921 246.264612,27.3785145 C247.538816,28.6334369 248.548548,30.113276 249.293837,31.8180762 C250.039126,33.5228765 250.411765,35.3460383 250.411765,37.2876164 C250.411765,62.6286351 250.411765,78.7185309 250.411765,85.5573036 C250.411765,94.5794725 242.252205,99.0229647 236.186508,99 C229.677712,98.9752025 216.484532,98.9566192 196.606969,98.9442502 C194.683642,98.9442502 192.856509,98.5772501 191.125515,97.8432389 C189.394521,97.1092277 187.891945,96.1147758 186.617741,94.8598534 C185.343537,93.604931 184.333805,92.1250919 183.588516,90.4202916 C182.843227,88.7154914 182.470588,86.8923296 182.470588,84.9507515 L182.470588,37.2876164 Z M236.20326,84.9507515 L236.20326,37.2876164 L196.606969,37.2876164 L196.606969,84.9507515 L220.651134,84.9507515 L206.495924,69.7646428 L220.651134,69.7646428 L236.20326,84.9507515 Z" id="q" fill="#FB1880"></path>
                        <path d="M330,84.9961889 C330,86.9391978 329.618864,88.7637032 328.856582,90.4697597 C328.094299,92.1758163 327.061544,93.656746 325.758287,94.9125932 C324.45503,96.1684404 322.930487,97.1636252 321.184614,97.8981773 C319.438741,98.6327294 317.557652,99 315.541291,99 L276.517532,99 C274.550351,99 272.681557,98.6327294 270.911094,97.8981773 C269.140631,97.1636252 267.603794,96.1684404 266.300537,94.9125932 C264.997279,93.656746 263.964524,92.1758163 263.202242,90.4697597 C262.439959,88.7637032 262.058824,86.9391978 262.058824,84.9961889 L262.058824,37.2979287 C262.058824,35.3549199 262.439959,33.5304145 263.202242,31.8243579 C263.964524,30.1183013 264.997279,28.6373716 266.300537,27.3815244 C267.603794,26.1256772 269.140631,25.1304925 270.911094,24.3959403 C272.681557,23.6613882 274.550351,23.2941176 276.517532,23.2941176 L315.541291,23.2941176 C317.557652,23.2941176 319.438741,23.6613882 321.184614,24.3959403 C322.930487,25.1304925 324.45503,26.1256772 325.758287,27.3815244 C327.061544,28.6373716 328.094299,30.1183013 328.856582,31.8243579 C329.618864,33.5304145 330,35.3549199 330,37.2979287 L330,84.9961889 Z M276.517532,37.2979287 L276.517532,84.9961889 L315.541291,84.9961889 L315.541291,37.2979287 L276.517532,37.2979287 Z" id="o" fill="#008FCB"></path>
                        <path d="M0,23.2941176 L15.0182929,23.2941176 L15.0182929,84.5982563 L54.86406,84.5982563 L54.86406,23.2941176 L69.8823529,23.2941176 L69.8823529,84.5982563 C69.8823529,86.5653336 69.491637,88.4270038 68.7101935,90.1833228 C67.92875,91.9396418 66.8542812,93.4734707 65.486755,94.7848555 C64.1192288,96.0962404 62.5197356,97.1265987 60.6882273,97.8759615 C58.856719,98.6253242 56.9153493,99 54.86406,99 L15.0182929,99 C12.9670036,99 11.0256339,98.6253242 9.19412565,97.8759615 C7.36261736,97.1265987 5.76312411,96.0962404 4.39559792,94.7848555 C3.02807173,93.4734707 1.95360298,91.9396418 1.17215945,90.1833228 C0.390715908,88.4270038 0,86.5653336 0,84.5982563 L0,23.2941176 Z" id="Path" fill="#008FCB"></path>
                    </g>
                </g>
            </g>
        </g>
    </g>
</svg>