<?xml version="1.0" encoding="UTF-8"?>
<svg width="206px" height="61px" viewBox="0 0 206 61" version="1.1" xmlns="http://www.w3.org/2000/svg" xmlns:xlink="http://www.w3.org/1999/xlink">
    <!-- Generator: Sketch 57.1 (83088) - https://sketch.com -->
    <title>wavecode-logo</title>
    <desc>Created with Sketch.</desc>
    <defs>
        <linearGradient x1="25.0097022%" y1="3.52853363%" x2="60.8516466%" y2="70.1802666%" id="linearGradient-1">
            <stop stop-color="#00FF00" offset="0%"></stop>
            <stop stop-color="#7D7CFB" offset="100%"></stop>
        </linearGradient>
    </defs>
    <g id="Symbols" stroke="none" stroke-width="1" fill="none" fill-rule="evenodd">
        <g id="navigation" transform="translate(-135.000000, -15.000000)">
            <g id="wavecode-logo">
                <g transform="translate(135.000000, 15.000000)">
                    <g id="Group">
                        <g fill-rule="nonzero" id="Path">
                            <path d="M45.9,55.8 C59.94,47.22 64.38,28.86 55.8,14.82 C47.22,0.78 28.92,-3.66 14.82,4.92 C0.78,13.5 -3.66,31.86 4.92,45.9 C13.5,59.94 31.86,64.38 45.9,55.8 Z" fill="url(#linearGradient-1)"></path>
                            <path d="M43.98,52.62 C56.28,45.12 60.18,29.04 52.68,16.74 C45.18,4.44 29.1,0.54 16.8,8.04 C4.5,15.6 0.6,31.68 8.1,43.98 C15.6,56.28 31.68,60.12 43.98,52.62 Z" fill="#231F20"></path>
                        </g>
                        <path d="M23.28,30.84 C22.74,30.84 22.38,30.42 22.38,29.94 C22.38,29.46 22.8,29.04 23.28,29.04 C24.78,29.04 26.22,28.44 27.3,27.36 C32.88,21.78 42,21.78 47.58,27.36 C47.94,27.72 47.94,28.32 47.58,28.68 C47.22,29.04 46.62,29.04 46.26,28.68 C41.4,23.82 33.48,23.82 28.56,28.68 C27.18,30.06 25.32,30.84 23.28,30.84 Z" id="Path" fill="#FFFFFF" fill-rule="nonzero"></path>
                        <path d="M23.28,34.2 L23.28,34.2 C20.34,34.2 17.58,33.06 15.54,31.02 C15.18,30.66 15.18,30.06 15.54,29.7 C15.9,29.34 16.5,29.34 16.86,29.7 C18.6,31.44 20.88,32.34 23.28,32.34 L23.28,32.34 C25.68,32.34 28.02,31.38 29.7,29.7 C33.96,25.44 40.92,25.44 45.18,29.7 C45.54,30.06 45.54,30.66 45.18,31.02 C44.82,31.38 44.22,31.38 43.86,31.02 C40.32,27.48 34.56,27.48 31.02,31.02 C28.98,33.06 26.22,34.2 23.28,34.2 Z" id="Path" fill="#FFFFFF" fill-rule="nonzero"></path>
                        <path d="M23.28,37.62 C19.62,37.62 15.9,36.24 13.14,33.42 C12.78,33.06 12.78,32.46 13.14,32.1 C13.5,31.74 14.1,31.74 14.46,32.1 C19.32,36.96 27.24,36.96 32.16,32.1 C33.6,30.66 35.46,29.88 37.5,29.88 L37.5,29.88 C38.04,29.88 38.4,30.3 38.4,30.78 C38.4,31.32 37.98,31.68 37.5,31.68 L37.5,31.68 C36,31.68 34.56,32.28 33.48,33.36 C30.66,36.24 26.94,37.62 23.28,37.62 Z" id="Path" fill="#FFFFFF" fill-rule="nonzero"></path>
                    </g>
                    <g id="Group" transform="translate(73.000000, 22.000000)" fill="#231F20">
                        <polygon id="Path" fill-rule="nonzero" points="7.26 9.36 10.02 0.42 13.62 0.42 16.38 9.36 19.44 0.42 23.22 0.42 17.82 15.96 15.24 15.96 11.82 5.16 8.46 15.96 5.88 15.96 0.48 0.42 4.26 0.42"></polygon>
                        <path d="M35.22,15.96 L33.78,12.6 L27.3,12.6 L25.86,15.96 L22.2,15.96 L28.92,0.42 L32.28,0.42 L39,15.96 L35.22,15.96 Z M30.54,5.04 L28.56,9.54 L32.46,9.54 L30.54,5.04 Z" id="Shape" fill-rule="nonzero"></path>
                        <polygon id="Path" fill-rule="nonzero" points="45.48 10.32 49.44 0.42 53.22 0.42 46.98 15.96 44.04 15.96 37.8 0.42 41.58 0.42"></polygon>
                        <polygon id="Path" fill-rule="nonzero" points="66.24 0.42 66.24 3.48 58.5 3.48 58.5 6.66 65.46 6.66 65.46 9.6 58.5 9.6 58.5 12.84 66.48 12.84 66.48 15.9 55.02 15.9 55.02 0.36"></polygon>
                        <path d="M76.68,12.9 C78.36,12.9 79.8,12.24 80.88,10.86 L83.1,13.14 C81.36,15.12 79.26,16.14 76.86,16.14 C74.46,16.14 72.48,15.36 70.98,13.86 C69.42,12.36 68.64,10.44 68.64,8.16 C68.64,5.88 69.42,3.96 70.98,2.4 C72.54,0.84 74.46,0.12 76.74,0.12 C79.26,0.12 81.42,1.08 83.16,3 L81,5.46 C79.92,4.08 78.54,3.42 76.92,3.42 C75.6,3.42 74.52,3.84 73.56,4.68 C72.66,5.52 72.18,6.66 72.18,8.1 C72.18,9.54 72.6,10.68 73.5,11.58 C74.4,12.48 75.48,12.9 76.68,12.9 Z" id="Path" fill-rule="nonzero"></path>
                        <path d="M98.52,13.8 C96.96,15.36 95.04,16.08 92.7,16.08 C90.36,16.08 88.5,15.3 86.88,13.8 C85.26,12.3 84.54,10.38 84.54,8.1 C84.54,5.82 85.32,3.9 86.88,2.4 C88.44,0.84 90.36,0.12 92.7,0.12 C95.04,0.12 96.9,0.9 98.52,2.4 C100.08,3.96 100.86,5.82 100.86,8.1 C100.86,10.38 100.08,12.3 98.52,13.8 Z M97.38,8.1 C97.38,6.72 96.96,5.52 96.06,4.56 C95.16,3.6 94.08,3.12 92.76,3.12 C91.44,3.12 90.36,3.6 89.46,4.56 C88.56,5.52 88.14,6.72 88.14,8.1 C88.14,9.48 88.56,10.68 89.46,11.64 C90.36,12.6 91.44,13.08 92.76,13.08 C94.08,13.08 95.16,12.6 96.06,11.64 C96.9,10.68 97.38,9.48 97.38,8.1 Z" id="Shape" fill-rule="nonzero"></path>
                        <path d="M115.68,2.46 C117.18,3.84 117.9,5.7 117.9,8.1 C117.9,10.5 117.18,12.42 115.74,13.8 C114.3,15.18 112.08,15.9 109.14,15.9 L103.8,15.9 L103.8,0.36 L109.26,0.36 C112.08,0.42 114.18,1.14 115.68,2.46 Z M113.16,11.7 C114,10.92 114.42,9.72 114.42,8.22 C114.42,6.72 114,5.52 113.16,4.68 C112.32,3.84 111,3.42 109.26,3.42 L107.34,3.42 L107.34,12.84 L109.56,12.84 C111.06,12.9 112.26,12.48 113.16,11.7 Z" id="Shape" fill-rule="nonzero"></path>
                        <polygon id="Path" fill-rule="nonzero" points="132.06 0.42 132.06 3.48 124.32 3.48 124.32 6.66 131.28 6.66 131.28 9.6 124.32 9.6 124.32 12.84 132.3 12.84 132.3 15.9 120.84 15.9 120.84 0.36"></polygon>
                    </g>
                </g>
            </g>
        </g>
    </g>
</svg>