<?xml version="1.0" encoding="UTF-8"?>
<svg width="91px" height="91px" viewBox="0 0 91 91" version="1.1" xmlns="http://www.w3.org/2000/svg" xmlns:xlink="http://www.w3.org/1999/xlink">
    <!-- Generator: Sketch 57.1 (83088) - https://sketch.com -->
    <title>worldwide</title>
    <desc>Created with Sketch.</desc>
    <g id="UI" stroke="none" stroke-width="1" fill="none" fill-rule="evenodd">
        <g id="Home" transform="translate(-227.000000, -2122.000000)" fill-rule="nonzero">
            <g id="worldwide" transform="translate(227.000000, 2122.000000)">
                <g id="XMLID_307_" transform="translate(19.500000, 19.500000)" fill="#7D7CFB">
                    <path d="M35.7808286,49.6993714 C22.6508286,55.1408 7.5894,48.9008 2.14797143,35.7708 C-3.29345714,22.6408 2.94654286,7.57937143 16.0765429,2.13794286 C29.2065429,-3.30348571 44.2679714,2.93651429 49.7094,16.0665143 C55.1508286,29.1965143 48.9108286,44.2579429 35.7808286,49.6993714 Z" id="XMLID_308_"></path>
                </g>
                <path d="M80.3894,18.3879429 C80.7051143,18.0722286 80.8722571,17.6450857 80.8722571,17.1993714 L80.7608286,8.04365714 C80.7422571,7.11508571 79.9808286,6.37222857 79.0522571,6.37222857 C78.1236857,6.3908 77.3808286,7.15222857 77.3808286,8.0808 L77.4365429,13.1693714 L77.1951143,12.9279429 C59.2736857,-4.58491429 30.4508286,-4.25062857 12.9379714,13.6708 C6.86511429,19.8922286 2.72368571,27.6550857 0.9594,36.1236571 C-0.749171429,44.3693714 -0.173457143,52.9122286 2.66797143,60.8050857 C2.9094,61.4922286 3.5594,61.9193714 4.24654286,61.9193714 C4.43225714,61.9193714 4.63654286,61.8822286 4.82225714,61.8265143 C5.69511429,61.5108 6.1594,60.5450857 5.84368571,59.6722286 C0.346542857,44.3693714 4.00511429,27.6365143 15.3522571,16.0293714 C31.5651143,-0.554914286 58.2522571,-0.870628571 74.8365429,15.3422286 L75.0965429,15.6022286 L70.0079714,15.6579429 C69.0794,15.6765143 68.3365429,16.4379429 68.3365429,17.3665143 C68.3551143,18.2950857 69.0979714,19.0379429 70.0265429,19.0379429 L70.0451143,19.0379429 L79.2008286,18.9265143 C79.6465429,18.8893714 80.0736857,18.7222286 80.3894,18.3879429 Z" id="Path" fill="#000000"></path>
                <path d="M88.2079714,30.0322286 C87.8922571,29.1593714 86.9265429,28.6950857 86.0536857,29.0108 C85.1808286,29.3265143 84.7165429,30.2922286 85.0322571,31.1650857 C90.5294,46.4679429 86.8708286,63.2008 75.5236857,74.8079429 C67.6679714,82.8493714 57.1565429,87.3436571 45.9208286,87.4736571 C34.6665429,87.6222286 24.0622571,83.3508 16.0394,75.5136571 L15.7794,75.2536571 L20.8679714,75.1979429 C21.7965429,75.1793714 22.5394,74.4179429 22.5394,73.4893714 C22.5208286,72.5608 21.7779714,71.7993714 20.8308286,71.8179429 L11.6751143,71.9293714 C10.7465429,71.9479429 10.0036857,72.7093714 10.0036857,73.6379429 L10.1151143,82.7936571 C10.1336857,83.7222286 10.8765429,84.4650857 11.8051143,84.4650857 L11.8236857,84.4650857 C12.7522571,84.4465143 13.4951143,83.6850857 13.4951143,82.7565143 L13.4394,77.6679429 L13.6994,77.9279429 C22.2608286,86.2850857 33.4965429,90.8722286 45.4379714,90.8722286 C45.6236857,90.8722286 45.7908286,90.8722286 45.9765429,90.8722286 C58.1036857,90.7236571 69.4694,85.8765143 77.9565429,77.2036571 C84.0294,70.9822286 88.1708286,63.2193714 89.9351143,54.7508 C91.6251143,46.4865143 91.0494,37.9436571 88.2079714,30.0322286 Z" id="Path" fill="#000000"></path>
                <path d="M45.4194,17.9979429 C41.8165429,17.9979429 38.2879714,18.7036571 34.9451143,20.0965143 C28.1851143,22.9008 22.9108286,28.1750857 20.1065429,34.9350857 C17.3022571,41.6950857 17.3022571,49.1608 20.1065429,55.9208 C24.3594,66.2093714 34.3136857,72.8579429 45.4565429,72.8579429 C49.0594,72.8579429 52.5879714,72.1522286 55.9308286,70.7593714 C69.8965429,64.9836571 76.5636857,48.9008 70.7694,34.9350857 C66.5165429,24.6465143 56.5622571,17.9979429 45.4194,17.9979429 Z M66.5536857,33.8950857 L61.0008286,33.8950857 C59.9051143,29.8836571 58.2522571,26.4665143 56.1908286,23.8850857 C60.5179714,26.0393714 64.1579714,29.5122286 66.5536857,33.8950857 Z M22.8179714,53.5622286 C20.9051143,48.2693714 20.9051143,42.5493714 22.8179714,37.2565143 L30.4694,37.2565143 C30.0051143,39.8008 29.7636857,42.5493714 29.7636857,45.4093714 C29.7636857,48.2508 30.0422571,50.9808 30.5251143,53.5622286 L22.8179714,53.5622286 Z M33.1251143,45.4093714 C33.1251143,42.5308 33.4036857,39.7822286 33.8865429,37.2565143 L44.4165429,37.2565143 L44.4165429,53.5622286 L33.9794,53.5622286 C33.4408286,50.9993714 33.1251143,48.2508 33.1251143,45.4093714 Z M47.7965429,22.0279429 C52.0308286,22.9750857 55.5594,27.4879429 57.4908286,33.9136571 L47.7965429,33.9136571 L47.7965429,22.0279429 Z M44.4351143,22.0279429 L44.4351143,33.8950857 L34.7408286,33.8950857 C36.6722571,27.4879429 40.2008286,22.9750857 44.4351143,22.0279429 Z M44.4351143,56.9422286 L44.4351143,68.7908 C40.4608286,67.7508 36.9322571,63.1636571 34.9079714,56.9422286 L44.4351143,56.9422286 Z M47.7965429,68.7908 L47.7965429,56.9422286 L57.3236857,56.9422286 C55.2994,63.1636571 51.7708286,67.7508 47.7965429,68.7908 Z M47.7965429,53.5622286 L47.7965429,37.2565143 L58.3265429,37.2565143 C58.8279714,39.7822286 59.0879714,42.5308 59.0879714,45.4093714 C59.0879714,48.2508 58.7722571,50.9993714 58.2151143,53.5622286 L47.7965429,53.5622286 Z M61.7622571,37.2565143 L68.0765429,37.2565143 C70.0451143,42.6979429 69.9151143,48.4550857 68.0579714,53.5622286 L61.6879714,53.5622286 C62.1894,50.9808 62.4494,48.2508 62.4494,45.4093714 C62.4494,42.5493714 62.2079714,39.8193714 61.7622571,37.2565143 Z M36.2451143,23.1979429 C36.4308286,23.1236571 36.6351143,23.0493714 36.8208286,22.9750857 C34.3879714,25.6493714 32.4565429,29.4193714 31.2308286,33.9136571 L24.3222571,33.9136571 C26.9408286,29.0850857 31.1008286,25.3150857 36.2451143,23.1979429 Z M24.3222571,56.9422286 L31.3236857,56.9422286 C32.6236857,61.4922286 34.6851143,65.3179429 37.2294,68.0479429 C31.7694,66.0608 27.1636857,62.1608 24.3222571,56.9422286 Z M55.7822571,67.1379429 C57.9551143,64.5008 59.7194,60.9908 60.8894,56.9422286 L66.5351143,56.9422286 C64.1765429,61.2508 60.4994,64.8908 55.7822571,67.1379429 Z" id="Shape" fill="#000000"></path>
            </g>
        </g>
    </g>
</svg>