<?xml version="1.0" encoding="UTF-8"?>
<svg width="545px" height="545px" viewBox="0 0 545 545" version="1.1" xmlns="http://www.w3.org/2000/svg" xmlns:xlink="http://www.w3.org/1999/xlink">
    <!-- Generator: Sketch 57.1 (83088) - https://sketch.com -->
    <title>xml</title>
    <desc>Created with Sketch.</desc>
    <defs>
        <polygon id="path-1" points="0.107451176 0.331075678 76.5758322 0.331075678 76.5758322 58 0.107451176 58"></polygon>
    </defs>
    <g id="UI" stroke="none" stroke-width="1" fill="none" fill-rule="evenodd">
        <g id="images" transform="translate(-310.000000, -647.000000)">
            <g id="xml" transform="translate(310.000000, 647.000000)">
                <circle id="Oval" fill="#FFFFFF" cx="272.5" cy="272.5" r="272.5"></circle>
                <g id="Group-61" transform="translate(125.000000, 176.000000)">
                    <path d="M13.1129363,15 L20,15 L20,59 L10.2833676,59 L10.2833676,21.9497648 C9.21149897,22.6285983 7.70841889,23.1584196 5.75359343,23.5350894 C3.80287474,23.9076199 1.88501027,24.0938852 0,24.0938852 L0,20.4968956 C2.67351129,20.2982126 5.2073922,19.7228598 7.61806982,18.7749765 C10.0205339,17.8270931 11.8521561,16.5687676 13.1129363,15" id="Fill-6" fill="#848AB8"></path>
                    <path d="M57.1356223,26.3368886 C57.1356223,22.0752115 55.397057,19.7830085 51.9199264,19.4685546 C51.3737584,19.418904 50.594114,19.3899412 49.5726548,19.3899412 C48.5428571,19.3899412 47.5630901,19.4933799 46.6250153,19.6961199 C45.6827713,19.8905848 44.8239117,20.4822545 44.0359289,21.4669915 C43.2562845,22.4517286 42.8643777,24.0612357 42.8643777,26.3079257 L42.8643777,47.7404377 L42.8643777,47.9390401 C42.8643777,51.9028135 43.8066217,54.2653549 45.6911097,55.0308018 C46.6500307,55.4280066 47.804905,55.6307466 49.1640711,55.6307466 C50.5190681,55.6307466 51.4904966,55.5935086 52.06168,55.5314454 C52.666217,55.498345 53.3207848,55.332843 54.0253832,55.0308018 C56.1016554,54.1950166 57.1356223,51.8242001 57.1356223,47.9142148 L57.1356223,47.7404377 L57.1356223,26.3368886 Z M33,26.6099669 C33,22.7165318 34.1715512,19.8036962 36.522992,17.8797352 C38.8660944,15.9599117 43.3354997,15 49.9270386,15 C56.5227468,15 61.0171674,15.9557742 63.4103004,17.8673225 C65.8034335,19.7830085 67,22.6958441 67,26.6099669 L67,47.6163111 C67,51.6586981 65.8451257,54.7328981 63.5312078,56.8389114 C61.2131208,58.9490622 56.6978541,60 49.9770693,60 C43.2562845,60 38.745187,58.9573373 36.447946,56.8678742 C34.1465359,54.7784112 33,51.6917985 33,47.6163111 L33,26.6099669 Z" id="Fill-8" fill="#848AB8"></path>
                    <path d="M101.135622,26.3368886 C101.135622,22.0752115 99.3928878,19.7830085 95.9157572,19.4685546 C95.3737584,19.418904 94.594114,19.3899412 93.5726548,19.3899412 C92.5428571,19.3899412 91.5630901,19.4933799 90.6250153,19.6961199 C89.6827713,19.8905848 88.8239117,20.4822545 88.0359289,21.4669915 C87.2562845,22.4517286 86.8602085,24.0612357 86.8602085,26.3079257 L86.8602085,47.7404377 L86.8602085,47.9390401 C86.8602085,51.9028135 87.8066217,54.2653549 89.6911097,55.0308018 C90.6500307,55.4280066 91.804905,55.6307466 93.1640711,55.6307466 C94.5148988,55.6307466 95.4863274,55.5935086 96.0575107,55.5314454 C96.666217,55.498345 97.3166156,55.332843 98.0253832,55.0308018 C100.101655,54.1950166 101.135622,51.8242001 101.135622,47.9142148 L101.135622,47.7404377 L101.135622,26.3368886 Z M77,26.6099669 C77,22.7165318 78.1715512,19.8036962 80.522992,17.8797352 C82.8660944,15.9599117 87.3354997,15 93.9270386,15 C100.522747,15 105.017167,15.9557742 107.4103,17.8673225 C109.803433,19.7830085 111,22.6958441 111,26.6099669 L111,47.6163111 C111,51.6586981 109.840956,54.7328981 107.531208,56.8389114 C105.213121,58.9490622 100.697854,60 93.9770693,60 C87.2562845,60 82.745187,58.9573373 80.4437768,56.8678742 C78.1465359,54.7784112 77,51.6917985 77,47.6163111 L77,26.6099669 Z" id="Fill-10" fill="#848AB8"></path>
                    <path d="M131.10883,15 L138,15 L138,59 L128.283368,59 L128.283368,21.9497648 C127.211499,22.6285983 125.704312,23.1584196 123.753593,23.5350894 C121.802875,23.9076199 119.88501,24.0938852 118,24.0938852 L118,20.4968956 C120.669405,20.2982126 123.207392,19.7228598 125.613963,18.7749765 C128.020534,17.8270931 129.848049,16.5687676 131.10883,15" id="Fill-12" fill="#848AB8"></path>
                    <path d="M175.136832,26.3368886 C175.136832,22.0752115 173.394311,19.7830085 169.917607,19.4685546 C169.371506,19.418904 168.596126,19.3899412 167.570623,19.3899412 C166.54512,19.3899412 165.565473,19.4933799 164.627513,19.6961199 C163.681216,19.8905848 162.822462,20.4822545 162.038744,21.4669915 C161.259196,22.4517286 160.863168,24.0612357 160.863168,26.3079257 L160.863168,47.7404377 L160.863168,47.9390401 C160.863168,51.9028135 161.809465,54.2653549 163.689554,55.0308018 C164.648357,55.4280066 165.807258,55.6307466 167.162089,55.6307466 C168.51692,55.6307466 169.48823,55.5935086 170.059343,55.5314454 C170.663806,55.498345 171.318293,55.332843 172.022805,55.0308018 C174.098823,54.1950166 175.136832,51.8242001 175.136832,47.9142148 L175.136832,47.7404377 L175.136832,26.3368886 Z M151,26.6099669 C151,22.7165318 152.175576,19.8036962 154.526729,17.8797352 C156.865375,15.9599117 161.338401,15 167.929132,15 C174.519863,15 179.017901,15.9557742 181.410741,17.8673225 C183.80358,19.7830085 185,22.6958441 185,26.6099669 L185,47.6163111 C185,51.6586981 183.841099,54.7328981 181.531633,56.8389114 C179.21383,58.9490622 174.694949,60 167.974988,60 C161.259196,60 156.748651,58.9573373 154.447523,56.8678742 C152.146395,54.7784112 151,51.6917985 151,47.6163111 L151,26.6099669 Z" id="Fill-14" fill="#848AB8"></path>
                    <path d="M218.135622,26.3368886 C218.135622,22.0752115 216.397057,19.7830085 212.919926,19.4685546 C212.373758,19.418904 211.594114,19.3899412 210.572655,19.3899412 C209.547026,19.3899412 208.567259,19.4933799 207.625015,19.6961199 C206.682771,19.8905848 205.823912,20.4822545 205.035929,21.4669915 C204.260454,22.4517286 203.864378,24.0612357 203.864378,26.3079257 L203.864378,47.7404377 L203.864378,47.9390401 C203.864378,51.9028135 204.810791,54.2653549 206.69111,55.0308018 C207.650031,55.4280066 208.804905,55.6307466 210.164071,55.6307466 C211.519068,55.6307466 212.490497,55.5935086 213.06168,55.5314454 C213.666217,55.498345 214.320785,55.332843 215.025383,55.0308018 C217.101655,54.1950166 218.135622,51.8242001 218.135622,47.9142148 L218.135622,47.7404377 L218.135622,26.3368886 Z M194,26.6099669 C194,22.7165318 195.17572,19.8036962 197.522992,17.8797352 C199.866094,15.9599117 204.3355,15 210.931208,15 C217.522747,15 222.017167,15.9557742 224.4103,17.8673225 C226.807603,19.7830085 228,22.6958441 228,26.6099669 L228,47.6163111 C228,51.6586981 226.845126,54.7328981 224.531208,56.8389114 C222.21729,58.9490622 217.697854,60 210.977069,60 C204.260454,60 199.745187,58.9573373 197.447946,56.8678742 C195.146536,54.7784112 194,51.6917985 194,47.6163111 L194,26.6099669 Z" id="Fill-16" fill="#848AB8"></path>
                    <path d="M31.1356223,86.3358463 C31.1356223,82.074561 29.397057,79.7825687 25.9199264,79.4681438 C25.3737584,79.4184977 24.594114,79.3936747 23.5726548,79.3936747 C22.5428571,79.3936747 21.5630901,79.4929668 20.6250153,79.6956881 C19.6827713,79.8901351 18.8239117,80.4858877 18.0359289,81.466397 C17.2562845,82.4510435 16.8643777,84.0604027 16.8643777,86.3110233 L16.8643777,107.737428 L16.8643777,107.936012 C16.8643777,111.899421 17.8066217,114.261745 19.6911097,115.031259 C20.6500307,115.428427 21.804905,115.627011 23.1640711,115.627011 C24.5148988,115.627011 25.4863274,115.593914 26.06168,115.527719 C26.666217,115.494622 27.3207848,115.329135 28.0253832,115.031259 C30.1016554,114.19555 31.1356223,111.820815 31.1356223,107.911189 L31.1356223,107.737428 L31.1356223,86.3358463 Z M7,86.6088995 C7,82.7158224 8.1715512,79.8073917 10.522992,77.8836076 C12.8660944,75.9598235 17.3354997,75 23.9270386,75 C30.5227468,75 35.0171674,75.9556863 37.4103004,77.8711961 C39.8034335,79.7825687 41,82.6992737 41,86.6088995 L41,107.613312 C41,111.655328 39.8451257,114.729245 37.5312078,116.839202 C35.2131208,118.945022 30.6978541,120 23.9770693,120 C17.2562845,120 12.745187,118.953296 10.4437768,116.864025 C8.14653587,114.774754 7,111.688425 7,107.613312 L7,86.6088995 Z" id="Fill-18" fill="#848AB8"></path>
                    <path d="M75.1368318,86.3358463 C75.1368318,82.074561 73.3943109,79.7825687 69.9176067,79.4681438 C69.3715056,79.4184977 68.5961256,79.3936747 67.5706229,79.3936747 C66.5451202,79.3936747 65.5654733,79.4929668 64.6275135,79.6956881 C63.6812163,79.8901351 62.822462,80.4858877 62.0387445,81.466397 C61.2591957,82.4510435 60.8631682,84.0604027 60.8631682,86.3110233 L60.8631682,107.737428 L60.8631682,107.936012 C60.8631682,111.899421 61.8094654,114.261745 63.6937224,115.031259 C64.648357,115.428427 65.8072585,115.627011 67.166258,115.627011 C68.5169201,115.627011 69.4882295,115.593914 70.0593428,115.527719 C70.6679745,115.494622 71.3182933,115.329135 72.026974,115.031259 C74.098823,114.19555 75.1368318,111.820815 75.1368318,107.911189 L75.1368318,107.737428 L75.1368318,86.3358463 Z M51,86.6088995 C51,82.7158224 52.1755763,79.8073917 54.5267288,77.8836076 C56.8695439,75.9598235 61.3384012,75 67.9291319,75 C74.5198627,75 79.0179009,75.9556863 81.4107406,77.8711961 C83.8035802,79.7825687 85,82.6992737 85,86.6088995 L85,107.613312 C85,111.655328 83.8410986,114.729245 81.5316332,116.839202 C79.2138303,118.945022 74.6991172,120 67.9749877,120 C61.2591957,120 56.7486513,118.953296 54.4475233,116.864025 C52.150564,114.774754 51,111.688425 51,107.613312 L51,86.6088995 Z" id="Fill-20" fill="#848AB8"></path>
                    <path d="M105.10883,76 L112,76 L112,120 L102.283368,120 L102.283368,82.9497648 C101.211499,83.6327375 99.7043121,84.1625588 97.7535934,84.5350894 C95.798768,84.9076199 93.8809035,85.0938852 92,85.0938852 L92,81.4968956 C94.6694045,81.2982126 97.2073922,80.7269991 99.613963,79.7749765 C102.020534,78.8270931 103.848049,77.5687676 105.10883,76" id="Fill-22" fill="#848AB8"></path>
                    <path d="M135.111522,76 L142,76 L142,120 L132.28548,120 L132.28548,82.9497648 C131.213391,83.6327375 129.705894,84.1625588 127.754775,84.5350894 C125.799548,84.9076199 123.88129,85.0938852 122,85.0938852 L122,81.4968956 C124.669953,81.2982126 127.208462,80.7269991 129.615527,79.7749765 C132.022592,78.8270931 133.850483,77.5687676 135.111522,76" id="Fill-24" fill="#848AB8"></path>
                    <path d="M179.135622,86.3358463 C179.135622,82.074561 177.397057,79.7825687 173.919926,79.4681438 C173.373758,79.4184977 172.594114,79.3936747 171.572655,79.3936747 C170.547026,79.3936747 169.567259,79.4929668 168.625015,79.6956881 C167.682771,79.8901351 166.823912,80.4858877 166.035929,81.466397 C165.260454,82.4510435 164.864378,84.0604027 164.864378,86.3110233 L164.864378,107.737428 L164.864378,107.936012 C164.864378,111.899421 165.810791,114.261745 167.69111,115.031259 C168.650031,115.428427 169.804905,115.627011 171.164071,115.627011 C172.519068,115.627011 173.490497,115.593914 174.06168,115.527719 C174.666217,115.494622 175.320785,115.329135 176.025383,115.031259 C178.101655,114.19555 179.135622,111.820815 179.135622,107.911189 L179.135622,107.737428 L179.135622,86.3358463 Z M155,86.6088995 C155,82.7158224 156.171551,79.8073917 158.522992,77.8836076 C160.866094,75.9598235 165.3355,75 171.931208,75 C178.522747,75 183.017167,75.9556863 185.41447,77.8711961 C187.807603,79.7825687 189,82.6992737 189,86.6088995 L189,107.613312 C189,111.655328 187.845126,114.729245 185.531208,116.839202 C183.21729,118.945022 178.697854,120 171.977069,120 C165.260454,120 160.745187,118.953296 158.447946,116.864025 C156.146536,114.774754 155,111.688425 155,107.613312 L155,86.6088995 Z" id="Fill-26" fill="#848AB8"></path>
                    <path d="M214.112936,76 L221,76 L221,120 L211.283368,120 L211.283368,82.9497648 C210.211499,83.6327375 208.704312,84.1625588 206.753593,84.5350894 C204.802875,84.9076199 202.88501,85.0938852 201,85.0938852 L201,81.4968956 C203.673511,81.2982126 206.207392,80.7269991 208.61807,79.7749765 C211.020534,78.8270931 212.852156,77.5687676 214.112936,76" id="Fill-28" fill="#848AB8"></path>
                    <path d="M18.1115219,136 L25,136 L25,180 L15.2854796,180 L15.2854796,142.946279 C14.2133908,143.629316 12.7058944,144.159187 10.7547751,144.531753 C8.79954816,144.904318 6.88128979,145.090601 5,145.090601 L5,141.493273 C7.66995276,141.294571 10.2084617,140.723304 12.6155268,139.771192 C15.0225919,138.823219 16.8504826,137.564776 18.1115219,136" id="Fill-30" fill="#848AB8"></path>
                    <path d="M62.1397915,147.335846 C62.1397915,143.074561 60.397057,140.786706 56.9199264,140.468144 C56.3737584,140.418498 55.594114,140.393675 54.5726548,140.393675 C53.5470264,140.393675 52.5672594,140.497104 51.6291845,140.695688 C50.6827713,140.890135 49.8239117,141.485888 49.0359289,142.466397 C48.2604537,143.451043 47.8643777,145.06454 47.8643777,147.311023 L47.8643777,168.737428 L47.8643777,168.936012 C47.8643777,172.899421 48.8107909,175.261745 50.6911097,176.031259 C51.6500307,176.428427 52.804905,176.627011 54.1640711,176.627011 C55.5190681,176.627011 56.4904966,176.593914 57.06168,176.527719 C57.666217,176.494622 58.3207848,176.329135 59.0253832,176.031259 C61.1016554,175.19555 62.1397915,172.824952 62.1397915,168.911189 L62.1397915,168.737428 L62.1397915,147.335846 Z M38,147.6089 C38,143.715822 39.1757204,140.807392 41.522992,138.883608 C43.8660944,136.959823 48.3354997,136 54.9312078,136 C61.5227468,136 66.0171674,136.955686 68.4144697,138.871196 C70.8076027,140.786706 72,143.699274 72,147.6089 L72,168.613312 C72,172.655328 70.8451257,175.733382 68.5312078,177.839202 C66.21729,179.945022 61.6978541,181 54.9770693,181 C48.2604537,181 43.745187,179.953296 41.447946,177.864025 C39.1465359,175.774754 38,172.692562 38,168.613312 L38,147.6089 Z" id="Fill-32" fill="#848AB8"></path>
                    <path d="M92.1129363,136 L99,136 L99,180 L89.2833676,180 L89.2833676,142.946279 C88.211499,143.629316 86.7043121,144.159187 84.7535934,144.531753 C82.8028747,144.904318 80.8850103,145.090601 79,145.090601 L79,141.493273 C81.6735113,141.294571 84.2073922,140.723304 86.6180698,139.771192 C89.0205339,138.823219 90.8521561,137.564776 92.1129363,136" id="Fill-34" fill="#848AB8"></path>
                    <path d="M136.135622,147.335846 C136.135622,143.074561 134.397057,140.786706 130.919926,140.468144 C130.373758,140.418498 129.594114,140.393675 128.572655,140.393675 C127.542857,140.393675 126.56309,140.497104 125.625015,140.695688 C124.682771,140.890135 123.823912,141.485888 123.035929,142.466397 C122.260454,143.451043 121.864378,145.06454 121.864378,147.311023 L121.864378,168.737428 L121.864378,168.936012 C121.864378,172.899421 122.806622,175.261745 124.69111,176.031259 C125.650031,176.428427 126.804905,176.627011 128.164071,176.627011 C129.519068,176.627011 130.490497,176.593914 131.06168,176.527719 C131.666217,176.494622 132.320785,176.329135 133.025383,176.031259 C135.101655,175.19555 136.135622,172.824952 136.135622,168.911189 L136.135622,168.737428 L136.135622,147.335846 Z M112,147.6089 C112,143.715822 113.171551,140.807392 115.522992,138.883608 C117.866094,136.959823 122.3355,136 128.927039,136 C135.522747,136 140.017167,136.955686 142.4103,138.871196 C144.807603,140.786706 146,143.699274 146,147.6089 L146,168.613312 C146,172.655328 144.845126,175.733382 142.531208,177.839202 C140.213121,179.945022 135.697854,181 128.977069,181 C122.260454,181 117.745187,179.953296 115.447946,177.864025 C113.146536,175.774754 112,172.692562 112,168.613312 L112,147.6089 Z" id="Fill-36" fill="#848AB8"></path>
                    <path d="M186.135622,147.335846 C186.135622,143.074561 184.397057,140.786706 180.919926,140.468144 C180.373758,140.418498 179.594114,140.393675 178.572655,140.393675 C177.547026,140.393675 176.567259,140.497104 175.625015,140.695688 C174.682771,140.890135 173.823912,141.485888 173.035929,142.466397 C172.260454,143.451043 171.864378,145.06454 171.864378,147.311023 L171.864378,168.737428 L171.864378,168.936012 C171.864378,172.899421 172.810791,175.261745 174.69111,176.031259 C175.650031,176.428427 176.804905,176.627011 178.164071,176.627011 C179.519068,176.627011 180.490497,176.593914 181.06168,176.527719 C181.666217,176.494622 182.320785,176.329135 183.025383,176.031259 C185.101655,175.19555 186.135622,172.824952 186.135622,168.911189 L186.135622,168.737428 L186.135622,147.335846 Z M162,147.6089 C162,143.715822 163.171551,140.807392 165.522992,138.883608 C167.866094,136.959823 165.898222,136 172.489761,136 C179.0813,136 190.017167,136.955686 192.4103,138.871196 C194.807603,140.786706 196,143.699274 196,147.6089 L196,168.613312 C196,172.655328 194.845126,175.733382 192.531208,177.839202 C190.21729,179.945022 185.697854,181 178.977069,181 C172.260454,181 167.745187,179.953296 165.447946,177.864025 C163.146536,175.774754 162,172.692562 162,168.613312 L162,147.6089 Z" id="Fill-38" fill="#848AB8"></path>
                    <path d="M216.112936,136 L223,136 L223,180 L213.283368,180 L213.283368,142.946279 C212.211499,143.629316 210.704312,144.159187 208.753593,144.531753 C206.802875,144.904318 204.88501,145.090601 203,145.090601 L203,141.493273 C205.673511,141.294571 208.207392,140.723304 210.61807,139.771192 C213.020534,138.823219 214.852156,137.564776 216.112936,136" id="Fill-40" fill="#848AB8"></path>
                    <path d="M184.106581,130.741786 L190.855347,118.517311 C191.160022,117.965769 192.044832,117.834057 192.833649,118.225076 L230.634249,137.142143 C231.677657,137.664873 232.249445,138.615666 231.894686,139.257759 L224.035734,153.482604 C223.680975,154.128814 222.562441,154.174089 221.552422,153.593735 L184.928787,132.536356 C184.173359,132.100061 183.801906,131.293328 184.106581,130.741786" id="Fill-42" fill="#3A426D"></path>
                    <path d="M218.084204,152.530951 L227.312316,135.442144 C227.627702,134.859571 228.749985,134.851308 229.794445,135.425617 L240.583103,141.350508 C241.631659,141.928949 242.23376,142.879246 241.914278,143.470082 L232.690262,160.554757 C232.374876,161.141462 231.256689,161.149726 230.204037,160.571284 L219.419475,154.650525 C218.366823,154.072084 217.768818,153.121787 218.084204,152.530951" id="Fill-44" fill="#3A426D"></path>
                    <g id="Group-48" transform="translate(219.000000, 134.000000)">
                        <mask id="mask-2" fill="white">
                            <use xlink:href="#path-1"></use>
                        </mask>
                        <g id="Clip-47"></g>
                        <path d="M0.219536842,20.3571714 L10.8304842,0.947885714 C11.3086421,0.0737428571 13.1921684,0.135885714 15.0341158,1.08874286 L73.0118,30.6356 C75.4608,31.9074571 77.0200105,33.7841714 76.4628526,34.7991714 L64.1180632,57.3901714 C63.5567474,58.4093143 61.1285368,58.1193143 58.7335895,56.7604571 L2.61864211,23.8040286 C0.818273684,22.7807429 -0.254463158,21.2354571 0.219536842,20.3571714" id="Fill-46" fill="#7D7CFB" mask="url(#mask-2)"></path>
                    </g>
                    <polygon id="Fill-49" fill="#3A426D" points="204.338192 124 196 139.138149 197.768707 140.161784 211.324587 147.976365 213.097506 149 222 132.846538"></polygon>
                    <path d="M197.12867,142.967796 L208.230786,122.625447 C208.614336,121.926854 209.727466,121.793789 210.711356,122.32605 L220.779554,127.798358 C221.759275,128.326461 222.25122,129.336925 221.871838,130.035518 L210.765553,150.373709 C210.386172,151.072302 209.268873,151.205367 208.289152,150.677264 L198.220955,145.204956 C197.237064,144.672695 196.749288,143.666389 197.12867,142.967796" id="Fill-51" fill="#7D7CFB"></path>
                    <polygon id="Fill-53" fill="#3A426D" points="190.803949 120 292 175.214318 287.200171 184 186 128.785682"></polygon>
                    <path d="M148.628061,148.416053 C112.499058,163.672295 70.8403172,146.757137 55.5840155,110.628275 C40.3277138,74.4994128 57.2429372,32.8408331 93.3719394,17.5845905 C129.500942,2.32834794 171.159683,19.2435057 186.415984,55.372368 C201.672286,91.5012303 184.757063,133.15981 148.628061,148.416053 M153.282945,159.442474 C195.498787,141.615326 215.269666,92.9331795 197.442449,50.7133748 C179.615231,8.49769678 130.932896,-11.2689795 88.7170548,6.55816905 C46.5012132,24.3853176 26.7303337,73.0633369 44.5575513,115.283142 C62.3888956,157.49882 111.067104,177.269623 153.282945,159.442474" id="Fill-55" fill="#3A426D"></path>
                    <path d="M149.13387,153.213365 C111.759389,168.972465 68.6397597,151.43711 52.827161,114.044876 C37.0145623,76.648511 54.4899036,33.5516068 91.8643848,17.788376 C129.238866,2.02514523 172.354359,19.564631 188.171094,56.956865 C203.987829,94.3532298 186.508351,137.450134 149.13387,153.213365 M148.087418,146.492511 C183.083598,131.733071 199.471125,91.4327361 184.69257,56.4818201 C169.909879,21.5309041 129.561488,5.16457274 94.5653074,19.9240129 C59.5732632,34.6875838 43.1815999,74.9879191 57.9601548,109.934704 C72.7387096,144.88562 113.091237,161.251952 148.087418,146.492511" id="Fill-57" fill="#7D7CFB"></path>
                    <path d="M71.0763103,125.722267 C61.6944241,114.968963 55.6504442,101.433709 55.0892769,86.9848564 C54.5031688,71.7129419 56.648075,56.7825981 66.1588219,44.4531301 C70.473575,38.8604241 75.7402342,33.9878973 81.6636671,30.1030449 C84.5401692,28.218233 87.5746295,26.5638785 90.7254801,25.1770191 C93.0906964,24.1358458 98.0663799,23.5843943 99.9119969,22 C90.3804661,30.1853511 81.8091549,39.9386352 77.4320498,51.6549221 C71.8993557,66.4782679 74.3393943,83.511535 82.6737682,96.8327927 C86.7973088,103.429634 92.3923548,109.149915 99.1014219,113.187034 C106.521301,117.652145 115.366961,117.598646 122.691233,121.755109 C127.467391,124.467098 131.86528,128.092686 133.910423,133.310898 C139.929462,148.67335 119.511285,150.34005 109.352078,148.294741 C94.5663586,145.319372 80.9694823,137.064061 71.0763103,125.722267" id="Fill-59" fill="#DFE2ED"></path>
                </g>
            </g>
        </g>
    </g>
</svg>