<?xml version="1.0" encoding="UTF-8"?>
<svg width="90px" height="114px" viewBox="0 0 90 114" version="1.1" xmlns="http://www.w3.org/2000/svg" xmlns:xlink="http://www.w3.org/1999/xlink">
    <!-- Generator: Sketch 57.1 (83088) - https://sketch.com -->
    <title>config</title>
    <desc>Created with Sketch.</desc>
    <g id="UI" stroke="none" stroke-width="1" fill="none" fill-rule="evenodd">
        <g id="Artboard" transform="translate(-458.000000, -358.000000)">
            <g id="config" transform="translate(458.000000, 358.000000)">
                <rect id="Rectangle" fill="#FFFFFF" x="0" y="0" width="90" height="114"></rect>
                <g id="user-9" transform="translate(14.000000, 30.000000)" fill-rule="nonzero">
                    <ellipse id="XMLID_1944_" fill="#7D7CFB" cx="31.5" cy="6" rx="5.5" ry="5"></ellipse>
                    <circle id="XMLID_1942_" fill="#7D7CFB" cx="56" cy="49" r="5"></circle>
                    <ellipse id="XMLID_1940_" fill="#7D7CFB" cx="6.5" cy="49" rx="5.5" ry="5"></ellipse>
                    <path d="M62,20.6422299 C62,16.9928528 59.0321404,14.0338983 55.3717803,14.0338983 C53.3790745,14.0338983 51.5983588,14.9074944 50.3829496,16.3024301 L37.2819695,8.73596079 C37.5080921,8.0737186 37.6352861,7.35511538 37.6352861,6.60833163 C37.6352861,2.95895446 34.6674265,0 31.0070663,0 C27.3467062,0 24.3788466,2.95895446 24.3788466,6.60833163 C24.3788466,7.35511538 24.5060406,8.05962834 24.7321632,8.72187053 L11.631183,16.2883398 C10.4157739,14.9074944 8.63505813,14.019808 6.6423524,14.019808 C2.98199225,14.019808 0.0141326647,16.9787625 0.0141326647,20.6281397 C0.0141326647,23.7843578 2.24709369,26.4333265 5.21495327,27.0814785 L5.22908594,41.9044313 C2.24709369,42.5525832 0,45.201552 0,48.3577701 C0,52.0071472 2.96785959,54.9661017 6.62821974,54.9661017 C8.57852747,54.9661017 10.3309779,54.1206861 11.5463871,52.7821115 L24.6897652,60.3485808 C24.4777752,60.9967327 24.3647139,61.6730651 24.3647139,62.3916684 C24.3647139,66.0410455 27.3325735,69 30.9929337,69 C34.6532938,69 37.6211534,66.0410455 37.6211534,62.3916684 C37.6211534,61.6730651 37.5080921,60.9967327 37.2961021,60.3485808 L50.4394803,52.7821115 C51.6548894,54.1206861 53.4073399,54.9661017 55.3576476,54.9661017 C59.0180078,54.9661017 61.9858673,52.0071472 61.9858673,48.3577701 C61.9858673,45.1592812 59.682243,42.4680417 56.6437201,41.8762508 L56.6437201,27.109659 C59.6963757,26.5319583 62,23.8548091 62,20.6422299 Z M55.3717803,16.5842352 C57.6188739,16.5842352 59.4419877,18.4018787 59.4419877,20.6422299 C59.4419877,22.8825812 57.6188739,24.7002246 55.3717803,24.7002246 C53.1246866,24.7002246 51.3015728,22.8825812 51.3015728,20.6422299 C51.3015728,18.4018787 53.1388192,16.5842352 55.3717803,16.5842352 Z M31.0070663,2.5644272 C33.25416,2.5644272 35.0772738,4.38207066 35.0772738,6.62242189 C35.0772738,7.3128446 34.9076818,7.96099653 34.5967632,8.53869716 C34.5684978,8.56687768 34.5543652,8.5950582 34.5260998,8.63732898 C34.5119672,8.6655095 34.4978345,8.69369001 34.4837018,8.72187053 C33.7770686,9.89136206 32.4768635,10.6804166 31.0070663,10.6804166 C28.7599726,10.6804166 26.9368589,8.86277313 26.9368589,6.62242189 C26.9368589,4.38207066 28.7599726,2.5644272 31.0070663,2.5644272 Z M2.57214497,20.6422299 C2.57214497,18.4018787 4.39525872,16.5842352 6.6423524,16.5842352 C8.88944609,16.5842352 10.7125598,18.4018787 10.7125598,20.6422299 C10.7125598,22.8825812 8.88944609,24.7002246 6.6423524,24.7002246 C4.39525872,24.7002246 2.57214497,22.8825812 2.57214497,20.6422299 Z M6.6423524,52.429855 C4.39525872,52.429855 2.57214497,50.6122116 2.57214497,48.3718603 C2.57214497,46.1315091 4.39525872,44.3138656 6.6423524,44.3138656 C8.88944609,44.3138656 10.7125598,46.1315091 10.7125598,48.3718603 C10.6984272,50.6122116 8.87531343,52.429855 6.6423524,52.429855 Z M31.0070663,66.4496631 C28.7599726,66.4496631 26.9368589,64.6320196 26.9368589,62.3916684 C26.9368589,60.1513171 28.7599726,58.3336737 31.0070663,58.3336737 C33.25416,58.3336737 35.0772738,60.1513171 35.0772738,62.3916684 C35.0772738,64.6320196 33.25416,66.4496631 31.0070663,66.4496631 Z M36.0524276,58.1223198 C34.8370185,56.6992036 33.0280374,55.7833367 31.0070663,55.7833367 C28.9860953,55.7833367 27.1771142,56.6851133 25.961705,58.1223198 L12.8748575,50.5981213 C13.1292455,49.9076986 13.2705721,49.1468246 13.2705721,48.3718603 C13.2705721,45.1170104 10.9104171,42.4116806 7.80123091,41.8621605 L7.78709824,27.1378395 C10.8962845,26.6024096 13.2705721,23.8829896 13.2705721,20.6281397 C13.2705721,19.8813559 13.1433782,19.1627527 12.9172555,18.5005105 L26.0182357,10.9340412 C27.2336449,12.3289769 29.0284933,13.202573 31.021199,13.202573 C33.0139047,13.202573 34.7946205,12.3289769 36.0100296,10.9340412 L49.1110098,18.5005105 C48.8848872,19.1627527 48.7576932,19.8813559 48.7576932,20.6281397 C48.7576932,23.8266285 51.0613175,26.5178681 54.0998404,27.109659 L54.0998404,41.8762508 C51.0613175,42.4680417 48.7576932,45.1451909 48.7576932,48.3577701 C48.7576932,49.1468246 48.8990198,49.8936083 49.1534078,50.584031 L36.0524276,58.1223198 Z M59.4419877,48.3718603 C59.4419877,50.6122116 57.6188739,52.429855 55.3717803,52.429855 C53.1246866,52.429855 51.3015728,50.6122116 51.3015728,48.3718603 C51.3015728,46.1315091 53.1246866,44.3138656 55.3717803,44.3138656 C57.6188739,44.3138656 59.4419877,46.1315091 59.4419877,48.3718603 Z" id="Shape" fill="#000000"></path>
                    <path d="M37.1788386,40.3108929 L37.1788386,35.6889987 C37.9579901,34.9398844 38.3971482,33.9080854 38.3971482,32.8056152 L38.3971482,26.7420292 C38.3971482,23.0247259 35.3655406,20 31.6397798,20 L30.3364719,20 C26.6107111,20 23.5791035,23.0247259 23.5791035,26.7420292 L23.5791035,32.8056152 C23.5791035,33.9080854 24.032428,34.9398844 24.7974131,35.6889987 L24.7974131,40.3108929 C23.3241084,41.0741415 19.7825108,43.0105315 16.4675753,45.7243042 C15.9150861,46.1765997 15.8442541,46.982251 16.2975787,47.5334861 C16.7509032,48.0847211 17.5583874,48.1553923 18.1108767,47.7030968 C21.7799719,44.6925052 25.7465613,42.6995783 26.5115464,42.3320883 C27.0498692,42.0635378 27.3756962,41.5405712 27.3756962,40.9327992 L27.3756962,35.0812267 C27.3756962,34.6571997 27.1632003,34.247307 26.8090406,34.0211592 C26.3982152,33.7526088 26.1573866,33.3003133 26.1573866,32.8056152 L26.1573866,26.7420292 C26.1573866,24.4381492 28.0415166,22.5582962 30.3506382,22.5582962 L31.6539462,22.5582962 C33.9630679,22.5582962 35.8471978,24.4381492 35.8471978,26.7420292 L35.8471978,32.8056152 C35.8471978,33.2861791 35.6063692,33.7384746 35.1955439,34.0211592 C34.8413841,34.2614412 34.6288882,34.6571997 34.6288882,35.0812267 L34.6288882,40.9327992 C34.6288882,41.526437 34.9688816,42.0635378 35.5072045,42.3320883 C36.2721896,42.6995783 40.238779,44.7066394 43.9078742,47.7030968 C44.1487028,47.9009761 44.4320306,48 44.7153584,48 C45.0836846,48 45.4520108,47.8444392 45.7070058,47.5334861 C46.1603303,46.982251 46.0753319,46.1765997 45.5370091,45.7243042 C42.1937409,43.0105315 38.6521432,41.0600073 37.1788386,40.3108929 Z" id="Path" fill="#000000"></path>
                </g>
            </g>
        </g>
    </g>
</svg>