<?xml version="1.0" encoding="UTF-8"?>
<svg width="90px" height="114px" viewBox="0 0 90 114" version="1.1" xmlns="http://www.w3.org/2000/svg" xmlns:xlink="http://www.w3.org/1999/xlink">
    <!-- Generator: Sketch 57.1 (83088) - https://sketch.com -->
    <title>custom</title>
    <desc>Created with Sketch.</desc>
    <g id="UI" stroke="none" stroke-width="1" fill="none" fill-rule="evenodd">
        <g id="Artboard" transform="translate(-166.000000, -371.000000)">
            <g id="custom" transform="translate(166.000000, 371.000000)">
                <rect id="Rectangle" fill="#FFFFFF" x="0" y="0" width="90" height="114"></rect>
                <g id="browser" transform="translate(8.000000, 27.000000)" fill-rule="nonzero">
                    <path d="M55.6205425,53 L59.3541603,53 C60.2685157,53 61,52.2915129 61,51.4059041 L61,47.0516605 C61,46.1660517 60.2685157,45.4575646 59.3541603,45.4575646 L55.6205425,45.4575646 C55.1024078,42.904059 54.0661384,40.5424354 52.6336483,38.4612546 L55.2852789,35.8929889 C55.9253276,35.2730627 55.9253276,34.2546125 55.2852789,33.6346863 L52.1002743,30.5498155 C51.4602255,29.9298893 50.4087169,29.9298893 49.7686681,30.5498155 L47.1170375,33.103321 C44.9683023,31.701107 42.5300213,30.7121771 39.89363,30.2103321 L39.89363,26.5940959 C39.89363,25.7084871 39.1621457,25 38.2477903,25 L33.7522097,25 C32.8378543,25 32.10637,25.7084871 32.10637,26.5940959 L32.10637,30.2103321 C29.4699787,30.7121771 27.0316977,31.7158672 24.8829625,33.103321 L22.2313319,30.5350554 C21.5912831,29.9151292 20.5397745,29.9151292 19.8997257,30.5350554 L16.7147211,33.6199262 C16.0746724,34.2398524 16.0746724,35.2583026 16.7147211,35.8782288 L19.3663517,38.4464945 C17.9186224,40.5276753 16.8975922,42.8892989 16.3794575,45.4428044 L12.6458397,45.4428044 C11.7314843,45.4428044 11,46.1512915 11,47.0369004 L11,51.3911439 C11,52.2767528 11.7314843,52.9852399 12.6458397,52.9852399 L16.3794575,52.9852399 L24.3495885,49.2066421 C24.3495885,42.9778598 29.5766535,37.9151292 36.0076196,37.9151292 C42.4385858,37.9151292 47.6656507,42.9778598 47.6656507,49.2066421" id="Path" fill="#848AB8"></path>
                    <path d="M74,56.264655 L74,5.72000989 C74,2.56096958 71.4758987,0 68.3623366,0 L5.6376634,0 C2.52410131,0 0,2.56096958 0,5.72000989 L0,56.2799901 C0,59.4390304 2.52410131,62 5.6376634,62 L68.3623366,62 C71.4758987,62 74,59.4236953 74,56.264655 Z M5.6376634,2.77566164 L68.3623366,2.77566164 C69.9644608,2.77566164 71.2642974,4.09448429 71.2642974,5.72000989 L71.2642974,12.5441504 L2.73570261,12.5441504 L2.73570261,5.72000989 C2.73570261,4.09448429 4.03553922,2.77566164 5.6376634,2.77566164 Z M2.73570261,56.264655 L2.73570261,15.319812 L71.2642974,15.319812 L71.2642974,56.264655 C71.2642974,57.8901806 69.9644608,59.2090032 68.3623366,59.2090032 L5.6376634,59.2090032 C4.03553922,59.2090032 2.73570261,57.8901806 2.73570261,56.264655 Z" id="Shape" fill="#000000"></path>
                    <path d="M36.9848131,36 C29.8165888,36 24,42.4947146 24,50.4608879 C24,51.3065539 24.6226636,52 25.3820093,52 C26.1413551,52 26.7640187,51.3065539 26.7640187,50.4608879 C26.7640187,44.1691332 31.3504673,39.0613108 37,39.0613108 C42.6495327,39.0613108 47.2359813,44.1691332 47.2359813,50.4608879 C47.2359813,51.3065539 47.8586449,52 48.6179907,52 C49.3773364,52 50,51.3065539 50,50.4608879 C49.9696262,42.4778013 44.1530374,36 36.9848131,36 Z" id="Path" fill="#000000"></path>
                    <path d="M59.0302855,43.3128304 L56.435535,43.3128304 C55.9405826,41.2984142 55.1606576,39.3916386 54.1257571,37.6078808 L55.9555812,35.7318597 C56.5255264,35.1475252 56.8254975,34.3786641 56.8254975,33.5636713 C56.8254975,32.7486785 56.5105278,31.9798174 55.9555812,31.3954829 L52.8208826,28.1816434 C51.6509951,26.9822201 49.7611768,26.9822201 48.6062879,28.1816434 L46.7764638,30.0576646 C45.0366311,28.9966362 43.1768099,28.2123979 41.2119988,27.6895723 L41.2119988,25.0600673 C41.2119988,23.3685728 39.8771272,22 38.2272858,22 L33.8027113,22 C32.1528699,22 30.8179983,23.3685728 30.8179983,25.0600673 L30.8179983,27.7203268 C28.8531872,28.2277751 26.993366,29.0273907 25.2535333,30.088419 L23.4237093,28.2123979 C22.8537641,27.6280634 22.1038362,27.320519 21.3089126,27.320519 C20.513989,27.320519 19.7640611,27.6434407 19.194116,28.2123979 L16.0594174,31.4262374 C15.4894722,32.0105718 15.189501,32.779433 15.189501,33.5944258 C15.189501,34.4094185 15.5044707,35.1782797 16.0594174,35.7626141 L17.8892414,37.6386353 C16.8543409,39.4223931 16.0894145,41.3291687 15.5794635,43.3435848 L12.984713,43.3435848 C11.3348716,43.3435848 10,44.7121576 10,46.4036521 L10,50.9399327 C10,52.6314272 11.3348716,54 12.984713,54 L16.6593597,54 C17.4092876,54 18.0242284,53.3695339 18.0242284,52.6006728 C18.0242284,51.8318116 17.4092876,51.2013455 16.6593597,51.2013455 L12.984713,51.2013455 C12.8347274,51.2013455 12.714739,51.0783277 12.714739,50.9245555 L12.714739,46.3882749 C12.714739,46.2345026 12.8347274,46.1114849 12.984713,46.1114849 L16.6593597,46.1114849 C17.3042977,46.1114849 17.8742429,45.634791 17.9942313,44.9889476 C18.4591866,42.5593465 19.3890972,40.2681403 20.7389674,38.2075925 C21.0989328,37.6540125 21.02394,36.9159058 20.5739833,36.4392119 L17.9642342,33.7635752 C17.90424,33.7020663 17.8892414,33.6251802 17.8892414,33.5790485 C17.8892414,33.5329169 17.90424,33.4560308 17.9642342,33.3945219 L21.0989328,30.1806824 C21.158927,30.1191735 21.2339198,30.1037963 21.2789155,30.1037963 C21.3239112,30.1037963 21.398904,30.1191735 21.4738967,30.1806824 L24.0836458,32.8563191 C24.5486011,33.333013 25.2685319,33.3945219 25.80848,33.0254685 C27.8182867,31.6415185 30.0530718,30.7035079 32.422844,30.2114368 C33.0527834,30.088419 33.5177387,29.5040846 33.5177387,28.842864 L33.5177387,25.0600673 C33.5177387,24.9062951 33.6377271,24.7832773 33.7877127,24.7832773 L38.2122873,24.7832773 C38.3622729,24.7832773 38.4822613,24.9062951 38.4822613,25.0600673 L38.4822613,28.8274868 C38.4822613,29.4887074 38.9472166,30.0730418 39.577156,30.1960596 C41.9469282,30.6727535 44.1817133,31.6261413 46.19152,33.0100913 C46.7314681,33.3791446 47.4513989,33.3022585 47.9163542,32.8409419 L50.5261033,30.1653051 C50.6310932,30.0576646 50.7960773,30.0576646 50.9010672,30.1653051 L54.0357658,33.3791446 C54.09576,33.4406535 54.1107586,33.5175396 54.1107586,33.5636713 C54.1107586,33.609803 54.09576,33.6866891 54.0357658,33.7635752 L51.4260167,36.4392119 C50.9610614,36.9159058 50.9010672,37.6540125 51.2610326,38.2075925 C52.6109028,40.2681403 53.5258148,42.5593465 54.0057687,44.9889476 C54.1257571,45.634791 54.6957023,46.1114849 55.3406403,46.1114849 L59.015287,46.1114849 C59.1652726,46.1114849 59.285261,46.2345026 59.285261,46.3882749 L59.285261,50.9245555 C59.285261,51.0783277 59.1652726,51.2013455 59.015287,51.2013455 L55.3406403,51.2013455 C54.5907124,51.2013455 53.9757716,51.8318116 53.9757716,52.6006728 C53.9757716,53.3695339 54.5907124,54 55.3406403,54 L59.015287,54 C60.6651284,54 62,52.6314272 62,50.9399327 L62,46.4036521 C62,44.6814032 60.6651284,43.3128304 59.0302855,43.3128304 Z" id="Path" fill="#000000"></path>
                    <path d="M12.5,9 C12.8956044,9 13.2747253,8.83516484 13.5549451,8.55494505 C13.8351648,8.27472527 14,7.8956044 14,7.5 C14,7.1043956 13.8351648,6.72527473 13.5549451,6.44505495 C13.2747253,6.16483516 12.8956044,6 12.5,6 C12.1043956,6 11.7252747,6.16483516 11.4450549,6.44505495 C11.1648352,6.72527473 11,7.1043956 11,7.5 C11,7.8956044 11.1648352,8.27472527 11.4450549,8.55494505 C11.7252747,8.85164835 12.1043956,9 12.5,9 Z" id="Path" fill="#000000"></path>
                    <path d="M17.5,9 C17.8956044,9 18.2747253,8.83516484 18.5549451,8.55494505 C18.8351648,8.27472527 19,7.8956044 19,7.5 C19,7.1043956 18.8351648,6.72527473 18.5549451,6.44505495 C18.2747253,6.16483516 17.8956044,6 17.5,6 C17.1043956,6 16.7252747,6.16483516 16.4450549,6.44505495 C16.1648352,6.72527473 16,7.1043956 16,7.5 C16,7.8956044 16.1648352,8.27472527 16.4450549,8.55494505 C16.7252747,8.85164835 17.1043956,9 17.5,9 Z" id="Path" fill="#000000"></path>
                    <path d="M7.5,9 C7.8956044,9 8.27472527,8.83516484 8.55494505,8.55494505 C8.83516484,8.27472527 9,7.8956044 9,7.5 C9,7.1043956 8.83516484,6.72527473 8.55494505,6.44505495 C8.27472527,6.16483516 7.8956044,6 7.5,6 C7.1043956,6 6.72527473,6.16483516 6.44505495,6.44505495 C6.16483516,6.72527473 6,7.1043956 6,7.5 C6,7.8956044 6.16483516,8.27472527 6.44505495,8.55494505 C6.72527473,8.85164835 7.1043956,9 7.5,9 Z" id="Path" fill="#000000"></path>
                </g>
            </g>
        </g>
    </g>
</svg>