<?xml version="1.0" encoding="UTF-8"?>
<svg width="90px" height="114px" viewBox="0 0 90 114" version="1.1" xmlns="http://www.w3.org/2000/svg" xmlns:xlink="http://www.w3.org/1999/xlink">
    <!-- Generator: Sketch 57.1 (83088) - https://sketch.com -->
    <title>fast</title>
    <desc>Created with Sketch.</desc>
    <g id="UI" stroke="none" stroke-width="1" fill="none" fill-rule="evenodd">
        <g id="Artboard" transform="translate(-166.000000, -227.000000)">
            <g id="fast" transform="translate(166.000000, 227.000000)">
                <rect id="Rectangle" fill="#FFFFFF" x="0" y="0" width="90" height="114"></rect>
                <g id="mouse" transform="translate(29.000000, 39.000000)" fill-rule="nonzero">
                    <path d="M18.3057953,65 L13.6942047,65 C8.90628853,65 5,61.0607187 5,56.2627014 L5,40.7372986 C5,35.9256506 8.91985203,32 13.6942047,32 L18.3057953,32 C23.0937115,32 27,35.9392813 27,40.7372986 L27,56.2627014 C27,61.0607187 23.0937115,65 18.3057953,65 Z" id="Path" fill="#7D7CFB"></path>
                    <path d="M13.2182828,30.9311824 C7.95557454,30.9311824 3.67706109,35.1496835 3.67706109,40.3385746 L3.67706109,56.5926077 C3.67706109,61.7814989 7.95557454,66 13.2182828,66 L18.7817172,66 C24.0444255,66 28.3229389,61.7814989 28.3229389,56.5926077 L28.3229389,40.3385746 C28.3229389,35.1496835 24.0444255,30.9311824 18.7817172,30.9311824 L17.3874413,30.9311824 L17.3874413,24.9471105 C17.3874413,22.7367776 15.5694148,20.9442516 13.3276378,20.9442516 L4.62024776,20.9442516 C3.44468176,20.9442516 2.48782572,20.0008168 2.48782572,18.8417398 C2.48782572,17.6826629 3.44468176,16.7392281 4.62024776,16.7392281 L27.5301153,16.7392281 C29.9906023,16.7392281 32,14.7580151 32,12.33204 C32,9.90606494 29.9906023,7.92485195 27.5301153,7.92485195 L19.1097821,7.92485195 C18.1529261,7.92485195 17.3874413,7.15662651 17.3874413,6.22666939 L17.3874413,1.22646518 C17.3874413,0.552583214 16.826997,0 16.1435284,0 C15.4600598,0 14.8996155,0.552583214 14.8996155,1.22646518 L14.8996155,6.19971411 C14.8996155,8.47743516 16.7859889,10.3373494 19.0961128,10.3373494 L27.516446,10.3373494 C28.6099957,10.3373494 29.5121743,11.213396 29.5121743,12.3050847 C29.5121743,13.3967735 28.6236651,14.2728201 27.516446,14.2728201 L4.62024776,14.2728201 C2.07774455,14.2728201 0,16.3214213 0,18.8282622 C0,21.3351031 2.06407518,23.3837043 4.62024776,23.3837043 L13.3276378,23.3837043 C14.2024776,23.3837043 14.9132849,24.0845416 14.9132849,24.9471105 L14.9132849,30.9311824 L13.2182828,30.9311824 Z M25.8624519,40.3385746 L25.8624519,56.5926077 C25.8624519,60.4337349 22.6911576,63.5605473 18.7953866,63.5605473 L13.2319522,63.5605473 C9.33618112,63.5605473 6.1648868,60.4337349 6.1648868,56.5926077 L6.1648868,40.3385746 C6.1648868,36.4974474 9.33618112,33.3706351 13.2319522,33.3706351 L18.7953866,33.3706351 C22.6911576,33.3706351 25.8624519,36.4974474 25.8624519,40.3385746 Z" id="Shape" fill="#000000"></path>
                    <path d="M15,39.2465753 L15,43.7534247 C15,44.4383562 15.6758242,45 16.5,45 C17.3241758,45 18,44.4383562 18,43.7534247 L18,39.2465753 C18,38.5616438 17.3241758,38 16.5,38 C15.6758242,38.0136986 15,38.5616438 15,39.2465753 Z" id="Path" fill="#000000"></path>
                </g>
            </g>
        </g>
    </g>
</svg>