<?xml version="1.0" encoding="UTF-8"?>
<svg width="90px" height="114px" viewBox="0 0 90 114" version="1.1" xmlns="http://www.w3.org/2000/svg" xmlns:xlink="http://www.w3.org/1999/xlink">
    <!-- Generator: Sketch 57.1 (83088) - https://sketch.com -->
    <title>guided</title>
    <desc>Created with Sketch.</desc>
    <g id="UI" stroke="none" stroke-width="1" fill="none" fill-rule="evenodd">
        <g id="Artboard" transform="translate(-321.000000, -366.000000)">
            <g id="guided" transform="translate(321.000000, 366.000000)">
                <rect id="Rectangle" fill="#FFFFFF" x="0" y="0" width="90" height="114"></rect>
                <g id="networking-2" transform="translate(9.000000, 15.000000)" fill-rule="nonzero">
                    <path d="M2.24313409,58 L18.7568659,58 C19.4321486,58 20,58.5714286 20,59.2857143 L20,69.7142857 C20,70.4126984 19.447496,71 18.7568659,71 L2.24313409,71 C1.56785137,71 1,70.4285714 1,69.7142857 L1,59.2857143 C1,58.5714286 1.56785137,58 2.24313409,58 Z" id="XMLID_2094_" fill="#A7A9AC"></path>
                    <path d="M28.244139,58 L44.755861,58 C45.4316896,58 46,58.5714286 46,59.2857143 L46,69.7142857 C46,70.4126984 45.4470493,71 44.755861,71 L28.244139,71 C27.5683104,71 27,70.4285714 27,69.7142857 L27,59.2857143 C27,58.5714286 27.5683104,58 28.244139,58 Z" id="XMLID_2093_" fill="#7D7CFB"></path>
                    <path d="M55.244139,58 L71.755861,58 C72.4316896,58 73,58.5714286 73,59.2857143 L73,69.7142857 C73,70.4126984 72.4470493,71 71.755861,71 L55.244139,71 C54.5683104,71 54,70.4285714 54,69.7142857 L54,59.2857143 C54.0153597,58.5714286 54.5683104,58 55.244139,58 Z" id="XMLID_2092_" fill="#A7A9AC"></path>
                    <path d="M3.82393791,72 L17.6082516,72 C19.7242647,72 21.4321895,70.2744141 21.4321895,68.1704102 L21.4321895,60.6928711 C21.4321895,58.5737305 19.7091503,56.8632813 17.6082516,56.8632813 L12.0915033,56.8632813 L12.0915033,48.3261719 C23.2416939,48.3261719 29.6149237,48.3261719 31.2111928,48.3261719 C32.8074619,48.3261719 34.2785948,48.3261719 35.6245915,48.3261719 L35.6245915,56.8632813 L30.1078431,56.8632813 C27.9918301,56.8632813 26.2839052,58.5888672 26.2839052,60.6928711 L26.2839052,68.1552734 C26.2839052,70.2744141 28.0069444,71.9848633 30.1078431,71.9848633 L43.8921569,71.9848633 C46.0081699,71.9848633 47.7160948,70.2592773 47.7160948,68.1552734 L47.7160948,60.6928711 C47.7160948,58.5737305 45.9930556,56.8632813 43.8921569,56.8632813 L38.3754085,56.8632813 L38.3754085,48.3261719 L61.9084967,48.3261719 L61.9084967,56.8632813 L56.3917484,56.8632813 C54.2757353,56.8632813 52.5678105,58.5888672 52.5678105,60.6928711 L52.5678105,68.1552734 C52.5678105,70.2744141 54.2908497,71.9848633 56.3917484,71.9848633 L70.1760621,71.9848633 C72.2920752,71.9848633 74,70.2592773 74,68.1552734 L74,60.6928711 C74,58.5737305 72.2769608,56.8632813 70.1760621,56.8632813 L64.6593137,56.8632813 L64.6593137,46.9638672 C64.6593137,46.2070313 64.0396242,45.5864258 63.2839052,45.5864258 L42.7736928,45.5864258 C42.1540033,42.9677734 39.7961601,41 36.9848856,41 C34.1736111,41 31.815768,42.9677734 31.1960784,45.5864258 L10.7160948,45.5864258 C9.96037582,45.5864258 9.34068627,46.2070313 9.34068627,46.9638672 L9.34068627,56.8632813 L3.82393791,56.8632813 C1.70792484,56.8632813 0,58.5888672 0,60.6928711 L0,68.1552734 C0,70.2744141 1.70792484,72 3.82393791,72 Z M44.9652778,60.6928711 L44.9652778,68.1552734 C44.9652778,68.7607422 44.4816176,69.2451172 43.8770425,69.2451172 L30.0927288,69.2451172 C29.4881536,69.2451172 29.0044935,68.7607422 29.0044935,68.1552734 L29.0044935,60.6928711 C29.0044935,60.0874023 29.4881536,59.6030273 30.0927288,59.6030273 L43.8770425,59.6030273 C44.4816176,59.6030273 44.9652778,60.1025391 44.9652778,60.6928711 Z M71.2340686,60.6928711 L71.2340686,68.1552734 C71.2340686,68.7607422 70.7504085,69.2451172 70.1458333,69.2451172 L56.3615196,69.2451172 C55.7569444,69.2451172 55.2732843,68.7607422 55.2732843,68.1552734 L55.2732843,60.6928711 C55.2732843,60.0874023 55.7569444,59.6030273 56.3615196,59.6030273 L70.1458333,59.6030273 C70.7504085,59.6030273 71.2340686,60.1025391 71.2340686,60.6928711 Z M2.73570261,60.6928711 C2.73570261,60.0874023 3.21936275,59.6030273 3.82393791,59.6030273 L17.6082516,59.6030273 C18.2128268,59.6030273 18.6964869,60.0874023 18.6964869,60.6928711 L18.6964869,68.1552734 C18.6964869,68.7607422 18.2128268,69.2451172 17.6082516,69.2451172 L3.82393791,69.2451172 C3.21936275,69.2451172 2.73570261,68.7607422 2.73570261,68.1552734 C2.73570261,68.1552734 2.73570261,60.6928711 2.73570261,60.6928711 Z" id="Shape" fill="#000000"></path>
                    <path d="M18.3536104,41 C19.113909,41 19.7373538,40.373696 19.7373538,39.6099106 L19.7373538,34.6300298 C19.7373538,33.9884501 20.0262672,33.3774218 20.5128583,32.9802534 C24.8921779,29.3599106 29.6516467,26.9616244 30.548799,26.5033532 C31.1418318,26.2131148 31.5067751,25.6326379 31.5067751,24.9757824 L31.5067751,17.9642325 C31.5067751,17.5059613 31.2786856,17.0629657 30.8985363,16.8185544 C30.3663273,16.4672131 30.0470019,15.8714605 30.0470019,15.2451565 L30.0470019,7.94336811 C30.0470019,5.08681073 32.3583095,2.76490313 35.201826,2.76490313 L36.768041,2.76490313 C39.6115576,2.76490313 41.9228651,5.08681073 41.9228651,7.94336811 L41.9228651,15.2146051 C41.9228651,15.8561848 41.6035397,16.4366617 41.0713308,16.788003 C40.6911815,17.04769 40.4630919,17.4754098 40.4630919,17.9336811 L40.4630919,24.945231 C40.4630919,25.6020864 40.8280352,26.197839 41.4210681,26.4880775 C42.3334263,26.931073 47.0776892,29.3446349 51.4570088,32.9649776 C51.9435999,33.3774218 52.2325133,33.9731744 52.2325133,34.6147541 L52.2325133,39.6099106 C52.2325133,40.373696 52.8559581,41 53.6162567,41 C54.3765552,41 55,40.373696 55,39.6099106 L55,34.6300298 C55,33.1482861 54.3461433,31.7734724 53.2209014,30.8416542 C49.2217311,27.5421013 44.9336473,25.1896423 43.2305786,24.318927 L43.2305786,18.6210879 C44.1581428,17.7503726 44.6903518,16.5283159 44.6903518,15.2298808 L44.6903518,7.94336811 C44.6903518,3.55923994 41.1473606,0 36.783247,0 L35.217032,0 C30.8529184,0 27.3099272,3.55923994 27.3099272,7.94336811 L27.3099272,15.2146051 C27.3099272,16.5130402 27.8421362,17.7350969 28.7697004,18.6058122 L28.7697004,24.3036513 C27.0666317,25.1743666 22.7785479,27.5268256 18.7793776,30.8263785 C17.6541358,31.7581967 17,33.1482861 17,34.6147541 L17,39.6099106 C16.985073,40.3889717 17.5933119,41 18.3536104,41 Z" id="Path" fill="#000000"></path>
                </g>
            </g>
        </g>
    </g>
</svg>