<?xml version="1.0" encoding="UTF-8"?>
<svg width="90px" height="114px" viewBox="0 0 90 114" version="1.1" xmlns="http://www.w3.org/2000/svg" xmlns:xlink="http://www.w3.org/1999/xlink">
    <!-- Generator: Sketch 57.1 (83088) - https://sketch.com -->
    <title>increase</title>
    <desc>Created with Sketch.</desc>
    <g id="UI" stroke="none" stroke-width="1" fill="none" fill-rule="evenodd">
        <g id="Artboard" transform="translate(-606.000000, -515.000000)">
            <g id="increase" transform="translate(606.000000, 515.000000)">
                <rect id="Rectangle" fill="#F5F5FA" x="0" y="0" width="90" height="114"></rect>
                <g id="worldwide-2" transform="translate(11.000000, 31.000000)" fill-rule="nonzero">
                    <g id="XMLID_1350_" transform="translate(19.000000, 20.000000)" fill="#7D7CFB">
                        <path d="M23.4408938,32.5745575 C14.8205398,36.1400442 4.95151327,32.0480088 1.38602655,23.4276549 C-2.17946018,14.8073009 1.91257522,4.93827434 10.5329292,1.37278761 C19.1532832,-2.19269912 29.0223097,1.89933628 32.5877965,10.5196903 C36.1532832,19.1400442 32.0612478,29.0090708 23.4408938,32.5745575 Z" id="XMLID_1351_"></path>
                    </g>
                    <path d="M36.5,14 C37.2266629,14 37.8225266,13.4083999 37.8225266,12.6869364 L37.8225266,4.462252 L40.7582448,7.3769647 C41.0198435,7.63669157 41.3541084,7.76655501 41.6883734,7.76655501 C42.0226383,7.76655501 42.3569033,7.63669157 42.618502,7.3769647 C43.127166,6.87194022 43.127166,6.03504251 42.618502,5.53001804 L37.4301286,0.378768359 C36.9214645,-0.12625612 36.0785355,-0.12625612 35.5698714,0.378768359 L30.381498,5.53001804 C29.872834,6.03504251 29.872834,6.87194022 30.381498,7.3769647 C30.8901621,7.88198918 31.7330911,7.88198918 32.2417552,7.3769647 L35.1774734,4.462252 L35.1774734,12.7013656 C35.1774734,13.4228292 35.7733371,14 36.5,14 Z" id="Path" fill="#000000"></path>
                    <path d="M36.5,59 C35.7733371,59 35.1774734,59.590535 35.1774734,60.3106996 L35.1774734,68.5349794 L32.2417552,65.6255144 C31.7330911,65.1213992 30.8901621,65.1213992 30.381498,65.6255144 C29.872834,66.1296296 29.872834,66.9650206 30.381498,67.4691358 L35.5698714,72.6111111 C35.8314701,72.8703704 36.165735,73 36.5,73 C36.834265,73 37.1685299,72.8703704 37.4301286,72.6111111 L42.618502,67.4691358 C43.127166,66.9650206 43.127166,66.1296296 42.618502,65.6255144 C42.1098379,65.1213992 41.2669089,65.1213992 40.7582448,65.6255144 L37.8225266,68.5349794 L37.8225266,60.3106996 C37.8225266,59.5761317 37.2266629,59 36.5,59 Z" id="Path" fill="#000000"></path>
                    <path d="M14,36.4945546 C14,35.7685004 13.4083999,35.173136 12.6869364,35.173136 L4.462252,35.173136 L7.3769647,32.2398771 C7.88198918,31.7316392 7.88198918,30.8894164 7.3769647,30.3811784 C6.87194022,29.8729405 6.03504251,29.8729405 5.53001804,30.3811784 L0.378768359,35.5652052 C-0.12625612,36.0734432 -0.12625612,36.915666 0.378768359,37.4239039 L5.53001804,42.6079307 C5.78974491,42.8693102 6.12161814,43 6.45349137,43 C6.7853646,43 7.11723783,42.8693102 7.3769647,42.6079307 C7.88198918,42.0996928 7.88198918,41.25747 7.3769647,40.7492321 L4.462252,37.8159732 L12.7013656,37.8159732 C13.4228292,37.8159732 14,37.2206088 14,36.4945546 Z" id="Path" fill="#000000"></path>
                    <path d="M67.4756757,30.3811784 C66.9711712,29.8729405 66.1351351,29.8729405 65.6306306,30.3811784 C65.1261261,30.8894164 65.1261261,31.7316392 65.6306306,32.2398771 L68.5423423,35.173136 L60.3117117,35.173136 C59.590991,35.173136 59,35.7685004 59,36.4945546 C59,37.2206088 59.590991,37.8159732 60.3117117,37.8159732 L68.5423423,37.8159732 L65.6306306,40.7492321 C65.1261261,41.25747 65.1261261,42.0996928 65.6306306,42.6079307 C65.8900901,42.8693102 66.2216216,43 66.5531532,43 C66.8846847,43 67.2162162,42.8693102 67.4756757,42.6079307 L72.6216216,37.4239039 C73.1261261,36.915666 73.1261261,36.0734432 72.6216216,35.5652052 L67.4756757,30.3811784 Z" id="Path" fill="#000000"></path>
                    <path d="M10,11.3508772 L10,18.8475034 C10,19.5897436 10.6092536,20.1983806 11.3522459,20.1983806 C12.0952381,20.1983806 12.7044917,19.5897436 12.7044917,18.8475034 L12.7044917,14.6018893 L18.707869,20.5991903 C18.9753462,20.8663968 19.3171226,21 19.658899,21 C20.0006754,21 20.3424519,20.8663968 20.6099291,20.5991903 C21.1300236,20.0796221 21.1300236,19.2186235 20.6099291,18.6990553 L14.6065518,12.7017544 L18.8564674,12.7017544 C19.5994596,12.7017544 20.2087133,12.0931174 20.2087133,11.3508772 C20.2087133,10.608637 19.5994596,10 18.8564674,10 L11.3522459,10 C10.6092536,10 10,10.608637 10,11.3508772 Z" id="Path" fill="#000000"></path>
                    <path d="M52.7912867,61.6477541 C52.7912867,62.3907464 53.4005404,63 54.1435326,63 L61.6477541,63 C62.3907464,63 63,62.3907464 63,61.6477541 L63,54.1435326 C63,53.4005404 62.3907464,52.7912867 61.6477541,52.7912867 C60.9047619,52.7912867 60.2955083,53.4005404 60.2955083,54.1435326 L60.2955083,58.3934482 L54.292131,52.3900709 C53.7720365,51.8699764 52.9101655,51.8699764 52.3900709,52.3900709 C51.8699764,52.9101655 51.8699764,53.7720365 52.3900709,54.292131 L58.3934482,60.2955083 L54.1435326,60.2955083 C53.4003918,60.3103681 52.7912867,60.9047619 52.7912867,61.6477541 Z" id="Path" fill="#000000"></path>
                    <path d="M20.6099291,52.3900709 C20.0898345,51.8699764 19.2279635,51.8699764 18.707869,52.3900709 L12.7044917,58.3934482 L12.7044917,54.1435326 C12.7044917,53.4005404 12.0952381,52.7912867 11.3522459,52.7912867 C10.6092536,52.7912867 10,53.4005404 10,54.1435326 L10,61.6477541 C10,62.3907464 10.6092536,63 11.3522459,63 L18.8564674,63 C19.5994596,63 20.2087133,62.3907464 20.2087133,61.6477541 C20.2087133,60.9047619 19.5994596,60.2955083 18.8564674,60.2955083 L14.6065518,60.2955083 L20.6099291,54.292131 C21.1300236,53.7720365 21.1300236,52.9101655 20.6099291,52.3900709 Z" id="Path" fill="#000000"></path>
                    <path d="M61.6477541,20.1835358 C62.3907464,20.1835358 63,19.5748988 63,18.8326586 L63,11.3508772 C63,10.608637 62.3907464,10 61.6477541,10 L54.1435326,10 C53.4005404,10 52.7912867,10.608637 52.7912867,11.3508772 C52.7912867,12.0931174 53.4005404,12.7017544 54.1435326,12.7017544 L58.3934482,12.7017544 L52.3900709,18.6990553 C51.8699764,19.2186235 51.8699764,20.0796221 52.3900709,20.5991903 C52.6575481,20.8663968 52.9993246,21 53.341101,21 C53.6828774,21 54.0246538,20.8663968 54.292131,20.5991903 L60.2955083,14.6018893 L60.2955083,18.8475034 C60.3103681,19.5748988 60.9047619,20.1835358 61.6477541,20.1835358 Z" id="Path" fill="#000000"></path>
                    <path d="M35.9925765,19 C33.6319171,19 31.3157984,19.4602062 29.118455,20.3657732 C19.9430616,24.1661856 15.5780687,34.7212371 19.3640319,43.8808247 C22.1552519,50.6354639 28.6878944,55 36.0074235,55 C38.3680829,55 40.6842016,54.5397938 42.881545,53.6193814 C52.0569384,49.8189691 56.4219313,39.2639175 52.6359681,30.1043299 C49.8300496,23.3645361 43.2974071,19 35.9925765,19 Z M21.5316815,42.0251546 C20.3587752,38.6701031 20.4478567,35.1369072 21.5465284,31.9896907 L25.7333584,31.9896907 C25.4215732,33.6226804 25.2582571,35.3150515 25.2582571,36.977732 C25.2582571,38.5364948 25.4661139,40.2734021 25.8521337,42.0251546 L21.5316815,42.0251546 Z M27.9455487,36.977732 C27.9455487,35.2705155 28.1385586,33.5781443 28.4651907,31.9896907 L34.6415073,31.9896907 L34.6415073,42.0251546 L28.598813,42.0251546 C28.1830993,40.3327835 27.9455487,38.5958763 27.9455487,36.977732 Z M37.3436458,21.9839175 C39.6003768,22.7707216 41.6789449,25.6061856 42.9557796,29.3026804 L37.3436458,29.3026804 L37.3436458,21.9839175 L37.3436458,21.9839175 Z M34.6415073,22.043299 L34.6415073,29.2878351 L29.2075365,29.2878351 C30.4546773,25.6952577 32.4590108,22.9191753 34.6415073,22.043299 Z M34.6415073,44.7121649 L34.6415073,51.8676289 C32.5629392,50.9323711 30.6625341,48.0820619 29.4153933,44.7121649 L34.6415073,44.7121649 Z M37.3436458,51.9418557 L37.3436458,44.7121649 L42.7479228,44.7121649 C41.4712366,48.1859794 39.48175,51.0956701 37.3436458,51.9418557 Z M37.3436458,42.0251546 L37.3436458,31.9896907 L43.6832784,31.9896907 C44.0247575,33.5781443 44.2029204,35.2705155 44.2029204,36.977732 C44.2029204,38.5958763 43.9653698,40.3327835 43.5496562,42.0251546 L37.3436458,42.0251546 Z M46.4299577,31.9896907 L50.4534716,31.9896907 C51.6263779,35.3447423 51.5372964,38.8779381 50.4386247,42.0251546 L46.2963354,42.0251546 C46.6823552,40.2734021 46.890212,38.5364948 46.890212,36.977732 C46.9052074,35.3002062 46.7418913,33.6226804 46.4299577,31.9896907 Z M49.2213261,29.3026804 L45.7768419,29.3026804 C45.3017406,27.7290722 44.6930171,26.2445361 43.9655183,24.9084536 C43.66858,24.3740206 43.3419479,23.8692784 43.0153157,23.3942268 C45.5689851,24.7006186 47.7366346,26.734433 49.2213261,29.3026804 Z M29.2223834,23.2754639 C28.8660574,23.7802062 28.5245784,24.3146392 28.1979463,24.9084536 C27.4556005,26.2296907 26.846877,27.7290722 26.3866226,29.3026804 L22.7788223,29.3026804 C24.2486669,26.7641237 26.4460103,24.6412371 29.2223834,23.2754639 Z M22.7639754,44.7121649 L26.5944795,44.7121649 C27.3516721,47.0131959 28.4058031,49.2103093 29.6974847,50.9769072 C26.8320301,49.6853608 24.3822891,47.5179381 22.7639754,44.7121649 Z M42.5550614,50.843299 C43.8170491,49.1063918 44.8266393,46.9538144 45.5689851,44.7121649 L49.2064792,44.7121649 C47.7069408,47.3101031 45.4353628,49.4775258 42.5550614,50.843299 Z" id="Shape" fill="#000000"></path>
                </g>
            </g>
        </g>
    </g>
</svg>