<?xml version="1.0" encoding="UTF-8"?>
<svg width="90px" height="114px" viewBox="0 0 90 114" version="1.1" xmlns="http://www.w3.org/2000/svg" xmlns:xlink="http://www.w3.org/1999/xlink">
    <!-- Generator: Sketch 57.1 (83088) - https://sketch.com -->
    <title>manage</title>
    <desc>Created with Sketch.</desc>
    <g id="UI" stroke="none" stroke-width="1" fill="none" fill-rule="evenodd">
        <g id="Artboard" transform="translate(-386.000000, -227.000000)">
            <g id="manage" transform="translate(386.000000, 227.000000)">
                <rect id="Rectangle" fill="#FFFFFF" x="0" y="0" width="90" height="114"></rect>
                <g id="transfer-1" transform="translate(17.000000, 44.000000)" fill-rule="nonzero">
                    <rect id="Rectangle" fill="#7D7CFB" x="31" y="31" width="24" height="24"></rect>
                    <path d="M11.0395292,51.5332972 L19.3603684,51.5332972 L16.7711398,54.1537629 C16.3592171,54.5706551 16.3592171,55.2615051 16.7711398,55.6783974 C16.9829858,55.8927991 17.2536779,56 17.52437,56 C17.795062,56 18.0657541,55.8927991 18.2776001,55.6783974 L22.691058,51.2116946 C23.1029807,50.7948024 23.1029807,50.1039524 22.691058,49.6870601 L18.2776001,45.2203573 C17.8656774,44.8034651 17.1830626,44.8034651 16.7711398,45.2203573 C16.3592171,45.6372496 16.3592171,46.3280996 16.7711398,46.7449919 L19.3603684,49.3654575 L11.0395292,49.3654575 C6.1317641,49.3654575 2.14199821,45.3275582 2.14199821,40.3605847 L2.14199821,35.0839199 C2.14199821,34.4883595 1.65946015,34 1.0709991,34 C0.482538058,34 0,34.4883595 0,35.0839199 L0,40.3605847 C0,46.5186789 4.94307279,51.5332972 11.0395292,51.5332972 Z" id="Path" fill="#000000"></path>
                    <path d="M2.55248619,0.445054945 C2.27071823,0.164835165 1.88950276,0 1.49171271,0 C1.09392265,0 0.712707182,0.164835165 0.430939227,0.445054945 C0.149171271,0.725274725 0,1.1043956 0,1.5 C0,1.8956044 0.165745856,2.27472527 0.430939227,2.55494505 C0.712707182,2.83516484 1.09392265,3 1.49171271,3 C1.88950276,3 2.27071823,2.83516484 2.55248619,2.55494505 C2.83425414,2.27472527 3,1.8956044 3,1.5 C3,1.1043956 2.83425414,0.725274725 2.55248619,0.445054945 Z" id="Path" fill="#000000"></path>
                    <path d="M22.5,3 C23.3241758,3 24,2.34065934 24,1.5 C24,0.675824176 23.3406593,0 22.5,0 C21.6758242,0 21,0.675824176 21,1.5 C21,2.34065934 21.6758242,3 22.5,3 Z" id="Path" fill="#000000"></path>
                    <path d="M19.5,0 C18.6758242,0 18,0.675824176 18,1.5 C18,2.32417582 18.6593407,3 19.5,3 C20.3241758,3 21,2.34065934 21,1.5 C21,0.675824176 20.3241758,0 19.5,0 Z" id="Path" fill="#000000"></path>
                    <path d="M8.5,3 C9.32417582,3 10,2.34065934 10,1.5 C10,0.675824176 9.34065934,0 8.5,0 C7.67582418,0 7,0.675824176 7,1.5 C7.01648352,2.34065934 7.67582418,3 8.5,3 Z" id="Path" fill="#000000"></path>
                    <path d="M5.5,0 C4.67582418,0 4,0.675824176 4,1.5 C4,2.32417582 4.65934066,3 5.5,3 C6.34065934,3 7,2.34065934 7,1.5 C6.98351648,0.675824176 6.32417582,0 5.5,0 Z" id="Path" fill="#000000"></path>
                    <path d="M15.5,0 C14.6758242,0 14,0.675824176 14,1.5 C14,2.32417582 14.6758242,3 15.5,3 C16.3241758,3 17,2.34065934 17,1.5 C16.9835165,0.675824176 16.3241758,0 15.5,0 Z" id="Path" fill="#000000"></path>
                    <path d="M11.5,0 C10.6758242,0 10,0.675824176 10,1.5 C10,2.32417582 10.6593407,3 11.5,3 C12.3241758,3 13,2.34065934 13,1.5 C13,0.675824176 12.3241758,0 11.5,0 Z" id="Path" fill="#000000"></path>
                    <path d="M27.5666667,2.55494505 C27.85,2.27472527 28,1.8956044 28,1.5 C28,1.1043956 27.8333333,0.725274725 27.5666667,0.445054945 C27.2833333,0.164835165 26.9,0 26.5,0 C26.1,0 25.7166667,0.164835165 25.4333333,0.445054945 C25.15,0.725274725 25,1.1043956 25,1.5 C25,1.8956044 25.1666667,2.27472527 25.4333333,2.55494505 C25.7166667,2.83516484 26.1,3 26.5,3 C26.9,2.98351648 27.2833333,2.83516484 27.5666667,2.55494505 Z" id="Path" fill="#000000"></path>
                    <path d="M26.4917127,7 C25.6629834,7 25,7.67582418 25,8.5 C25,9.32417582 25.6629834,10 26.4917127,10 C27.320442,10 28,9.32417582 28,8.5 C27.9834254,7.67582418 27.320442,7 26.4917127,7 Z" id="Path" fill="#000000"></path>
                    <path d="M26.4917127,20 C25.6629834,20 25,20.6593407 25,21.5 C25,22.3241758 25.6629834,23 26.4917127,23 C27.320442,23 28,22.3241758 28,21.5 C27.9834254,20.6758242 27.320442,20 26.4917127,20 Z" id="Path" fill="#000000"></path>
                    <path d="M26.4917127,10 C25.6629834,10 25,10.6629834 25,11.4917127 C25,12.320442 25.6629834,13 26.4917127,13 C27.320442,13 28,12.320442 28,11.4917127 C27.9834254,10.679558 27.320442,10 26.4917127,10 Z" id="Path" fill="#000000"></path>
                    <path d="M26.4917127,18 C25.6629834,18 25,18.6758242 25,19.5 C25,20.3241758 25.6629834,21 26.4917127,21 C27.320442,21 28,20.3406593 28,19.5 C27.9834254,18.6758242 27.320442,18 26.4917127,18 Z" id="Path" fill="#000000"></path>
                    <path d="M26.4917127,14 C25.6629834,14 25,14.6593407 25,15.5 C25,16.3241758 25.6629834,17 26.4917127,17 C27.320442,17 28,16.3241758 28,15.5 C27.9834254,14.6593407 27.320442,14 26.4917127,14 Z" id="Path" fill="#000000"></path>
                    <path d="M26.4917127,4 C25.6629834,4 25,4.65934066 25,5.5 C25,6.32417582 25.6629834,7 26.4917127,7 C27.320442,7 28,6.32417582 28,5.5 C27.9834254,4.65934066 27.320442,4 26.4917127,4 Z" id="Path" fill="#000000"></path>
                    <path d="M28,25.5 C28,25.1043956 27.8342541,24.7252747 27.5690608,24.4450549 C27.2872928,24.1648352 26.9060773,24 26.5082873,24 C26.1104972,24 25.7292818,24.1648352 25.4475138,24.4450549 C25.1657459,24.7252747 25,25.1043956 25,25.5 C25,25.8956044 25.1657459,26.2747253 25.4475138,26.5549451 C25.7292818,26.8351648 26.1104972,27 26.5082873,27 C26.9060773,27 27.2872928,26.8351648 27.5690608,26.5549451 C27.8508287,26.2912088 28,25.8956044 28,25.5 Z" id="Path" fill="#000000"></path>
                    <path d="M11.5,24 C10.6758242,24 10,24.6758242 10,25.5 C10,26.3241758 10.6593407,27 11.5,27 C12.3241758,27 13,26.3406593 13,25.5 C13,24.6593407 12.3241758,24 11.5,24 Z" id="Path" fill="#000000"></path>
                    <path d="M15.5,24 C14.6758242,24 14,24.6758242 14,25.5 C14,26.3241758 14.6758242,27 15.5,27 C16.3241758,27 17,26.3406593 17,25.5 C16.9835165,24.6593407 16.3241758,24 15.5,24 Z" id="Path" fill="#000000"></path>
                    <path d="M19.5,24 C18.6758242,24 18,24.6758242 18,25.5 C18,26.3241758 18.6593407,27 19.5,27 C20.3241758,27 21,26.3406593 21,25.5 C21,24.6593407 20.3241758,24 19.5,24 Z" id="Path" fill="#000000"></path>
                    <path d="M5.5,24 C4.67582418,24 4,24.6758242 4,25.5 C4,26.3241758 4.65934066,27 5.5,27 C6.34065934,27 7,26.3406593 7,25.5 C6.98351648,24.6593407 6.32417582,24 5.5,24 Z" id="Path" fill="#000000"></path>
                    <path d="M8.5,27 C9.32417582,27 10,26.3406593 10,25.5 C10,24.6758242 9.32417582,24 8.5,24 C7.67582418,24 7,24.6758242 7,25.5 C7.01648352,26.3406593 7.67582418,27 8.5,27 Z" id="Path" fill="#000000"></path>
                    <path d="M22.5,27 C23.3241758,27 24,26.3406593 24,25.5 C24,24.6758242 23.3406593,24 22.5,24 C21.6758242,24 21,24.6758242 21,25.5 C21,26.3406593 21.6758242,27 22.5,27 Z" id="Path" fill="#000000"></path>
                    <path d="M0.430939227,24.4450549 C0.149171271,24.7252747 0,25.1043956 0,25.5 C0,25.8956044 0.165745856,26.2747253 0.430939227,26.5549451 C0.712707182,26.8351648 1.09392265,27 1.49171271,27 C1.88950276,27 2.27071823,26.8351648 2.55248619,26.5549451 C2.83425414,26.2747253 3,25.8956044 3,25.5 C3,25.1043956 2.83425414,24.7252747 2.55248619,24.4450549 C2.27071823,24.1648352 1.88950276,24 1.49171271,24 C1.09392265,24.0164835 0.712707182,24.1648352 0.430939227,24.4450549 Z" id="Path" fill="#000000"></path>
                    <path d="M1.5,4 C0.675824176,4 0,4.65934066 0,5.5 C0,6.32417582 0.659340659,7 1.5,7 C2.32417582,7 3,6.32417582 3,5.5 C3,4.65934066 2.32417582,4 1.5,4 Z" id="Path" fill="#000000"></path>
                    <path d="M1.5,7 C0.675824176,7 0,7.67582418 0,8.5 C0,9.32417582 0.659340659,10 1.5,10 C2.32417582,10 3,9.32417582 3,8.5 C3,7.67582418 2.32417582,7 1.5,7 Z" id="Path" fill="#000000"></path>
                    <path d="M1.5,10 C0.675824176,10 0,10.6629834 0,11.4917127 C0,12.320442 0.659340659,13 1.5,13 C2.32417582,13 3,12.320442 3,11.4917127 C3,10.679558 2.32417582,10 1.5,10 Z" id="Path" fill="#000000"></path>
                    <path d="M1.5,18 C0.675824176,18 0,18.6758242 0,19.5 C0,20.3241758 0.659340659,21 1.5,21 C2.32417582,21 3,20.3406593 3,19.5 C3,18.6758242 2.32417582,18 1.5,18 Z" id="Path" fill="#000000"></path>
                    <path d="M1.5,20 C0.675824176,20 0,20.6593407 0,21.5 C0,22.3241758 0.659340659,23 1.5,23 C2.32417582,23 3,22.3241758 3,21.5 C3,20.6758242 2.32417582,20 1.5,20 Z" id="Path" fill="#000000"></path>
                    <path d="M1.5,14 C0.675824176,14 0,14.6593407 0,15.5 C0,16.3241758 0.659340659,17 1.5,17 C2.32417582,17 3,16.3241758 3,15.5 C3,14.6593407 2.32417582,14 1.5,14 Z" id="Path" fill="#000000"></path>
                    <path d="M37.7294118,0.3172158 L33.3176471,4.78482244 C33.1176471,4.98735394 33,5.26136714 33,5.54729397 C33,5.83322079 33.1176471,6.107234 33.3176471,6.3097655 L37.7294118,10.7773721 C37.9411765,10.9918173 38.2117647,11.0990398 38.4823529,11.0990398 C38.7529412,11.0990398 39.0235294,10.9918173 39.2352941,10.7773721 C39.6470588,10.3603955 39.6470588,9.66940569 39.2352941,9.25242907 L36.6470588,6.63143318 L44.9647059,6.63143318 C49.8705882,6.63143318 53.8588235,10.6701496 53.8588235,15.6381282 L53.8588235,20.9158608 C53.8588235,21.5115417 54.3411765,22 54.9294118,22 C55.5176471,22 56,21.5115417 56,20.9158608 L56,15.6381282 C56,9.47878781 51.0470588,4.46315476 44.9647059,4.46315476 L36.6470588,4.46315476 L39.2352941,1.84215887 C39.6470588,1.42518225 39.6470588,0.73419242 39.2352941,0.3172158 C38.8235294,-0.0997608187 38.1529412,-0.111674436 37.7294118,0.3172158 Z" id="Path" fill="#000000"></path>
                    <path d="M56,54.9429787 L56,30.0455319 C56,29.4710638 55.5289362,29 54.9544681,29 L30.0455319,29 C29.4710638,29 29,29.4710638 29,30.0455319 L29,54.9544681 C29,55.5289362 29.4710638,56 30.0455319,56 L54.9544681,56 C55.5289362,55.9885106 56,55.5174468 56,54.9429787 Z M53.9089362,53.9089362 L31.0910638,53.9089362 L31.0910638,31.0795745 L53.9089362,31.0795745 L53.9089362,53.9089362 Z" id="Shape" fill="#000000"></path>
                </g>
            </g>
        </g>
    </g>
</svg>