<?xml version="1.0" encoding="UTF-8"?>
<svg width="90px" height="114px" viewBox="0 0 90 114" version="1.1" xmlns="http://www.w3.org/2000/svg" xmlns:xlink="http://www.w3.org/1999/xlink">
    <!-- Generator: Sketch 57.1 (83088) - https://sketch.com -->
    <title>multilanguage</title>
    <desc>Created with Sketch.</desc>
    <g id="UI" stroke="none" stroke-width="1" fill="none" fill-rule="evenodd">
        <g id="Artboard" transform="translate(-386.000000, -515.000000)">
            <g id="multilanguage" transform="translate(386.000000, 515.000000)">
                <rect id="Rectangle" fill="#F5F5FA" x="0" y="0" width="90" height="114"></rect>
                <g id="user-9" transform="translate(10.500000, 25.000000)" fill-rule="nonzero">
                    <circle id="XMLID_1944_" fill="#7D7CFB" cx="35.5" cy="8" r="6"></circle>
                    <circle id="XMLID_1942_" fill="#7D7CFB" cx="63.5" cy="54" r="6"></circle>
                    <circle id="XMLID_1940_" fill="#7D7CFB" cx="8.5" cy="54" r="6"></circle>
                    <path d="M70.5,23.3346947 C70.5,19.2093118 67.1491908,15.8644068 63.0165261,15.8644068 C60.7666971,15.8644068 58.7562115,16.8519502 57.3839754,18.428834 L42.5925462,9.87543394 C42.8478459,9.12681233 42.991452,8.31447825 42.991452,7.47028793 C42.991452,3.34490504 39.6406428,0 35.5079781,0 C31.3753134,0 28.0245042,3.34490504 28.0245042,7.47028793 C28.0245042,8.31447825 28.1681103,9.11088421 28.4234101,9.85950582 L13.6319809,18.4129059 C12.2597447,16.8519502 10.2492592,15.8484787 7.99943013,15.8484787 C3.86676544,15.8484787 0.515956234,19.1933837 0.515956234,23.3187666 C0.515956234,26.8866653 3.03704126,29.8811517 6.38785047,30.6138452 L6.4038067,47.3702267 C3.03704126,48.1029202 0.5,51.0974066 0.5,54.6653053 C0.5,58.7906882 3.85080921,62.1355932 7.9834739,62.1355932 C10.1854342,62.1355932 12.1640073,61.1799061 13.5362434,59.6667347 L28.3755414,68.2201348 C28.1361979,68.9528283 28.008548,69.717378 28.008548,70.5297121 C28.008548,74.655095 31.3593572,78 35.4920219,78 C39.6246866,78 42.9754958,74.655095 42.9754958,70.5297121 C42.9754958,69.717378 42.8478459,68.9528283 42.6085024,68.2201348 L57.4478003,59.6667347 C58.8200365,61.1799061 60.7986095,62.1355932 63.0005699,62.1355932 C67.1332346,62.1355932 70.4840438,58.7906882 70.4840438,54.6653053 C70.4840438,51.0496222 67.8831776,48.0073514 64.4525872,47.3383704 L64.4525872,30.6457014 C67.8991338,29.9926486 70.5,26.9663059 70.5,23.3346947 Z M63.0165261,18.7473964 C65.5535674,18.7473964 67.6119216,20.8021237 67.6119216,23.3346947 C67.6119216,25.8672657 65.5535674,27.9219931 63.0165261,27.9219931 C60.4794848,27.9219931 58.4211306,25.8672657 58.4211306,23.3346947 C58.4211306,20.8021237 60.4954411,18.7473964 63.0165261,18.7473964 Z M35.5079781,2.8989177 C38.0450194,2.8989177 40.1033736,4.95364509 40.1033736,7.48621605 C40.1033736,8.26669389 39.9118988,8.99938738 39.5608616,9.65244027 C39.5289492,9.68429651 39.5129929,9.71615275 39.4810805,9.7639371 C39.4651242,9.79579334 39.449168,9.82764958 39.4332118,9.85950582 C38.6354,11.1815397 37.1674265,12.0735144 35.5079781,12.0735144 C32.9709369,12.0735144 30.9125826,10.018787 30.9125826,7.48621605 C30.9125826,4.95364509 32.9709369,2.8989177 35.5079781,2.8989177 Z M3.40403465,23.3346947 C3.40403465,20.8021237 5.46238888,18.7473964 7.99943013,18.7473964 C10.5364714,18.7473964 12.5948256,20.8021237 12.5948256,23.3346947 C12.5948256,25.8672657 10.5364714,27.9219931 7.99943013,27.9219931 C5.46238888,27.9219931 3.40403465,25.8672657 3.40403465,23.3346947 Z M7.99943013,59.2685318 C5.46238888,59.2685318 3.40403465,57.2138044 3.40403465,54.6812334 C3.40403465,52.1486624 5.46238888,50.0939351 7.99943013,50.0939351 C10.5364714,50.0939351 12.5948256,52.1486624 12.5948256,54.6812334 C12.5788694,57.2138044 10.5205152,59.2685318 7.99943013,59.2685318 Z M35.5079781,75.1170104 C32.9709369,75.1170104 30.9125826,73.062283 30.9125826,70.5297121 C30.9125826,67.9971411 32.9709369,65.9424137 35.5079781,65.9424137 C38.0450194,65.9424137 40.1033736,67.9971411 40.1033736,70.5297121 C40.1033736,73.062283 38.0450194,75.1170104 35.5079781,75.1170104 Z M41.2043538,65.7034919 C39.8321176,64.0947519 37.7897196,63.0594241 35.5079781,63.0594241 C33.2262366,63.0594241 31.1838386,64.0788238 29.8116025,65.7034919 L15.0361295,57.1978763 C15.3233417,56.4173984 15.482904,55.55728 15.482904,54.6812334 C15.482904,51.0018379 12.8182129,47.943639 9.30784135,47.3224423 L9.29188512,30.6775577 C12.8022567,30.0722892 15.482904,26.9981621 15.482904,23.3187666 C15.482904,22.4745763 15.3392979,21.6622422 15.0839982,20.9136206 L29.8754274,12.3602205 C31.2476636,13.9371043 33.2741053,14.9246477 35.5239344,14.9246477 C37.7737634,14.9246477 39.7842489,13.9371043 41.1564851,12.3602205 L55.9479143,20.9136206 C55.6926145,21.6622422 55.5490084,22.4745763 55.5490084,23.3187666 C55.5490084,26.9344497 58.1498746,29.9767204 61.580465,30.6457014 L61.580465,47.3383704 C58.1498746,48.0073514 55.5490084,51.0336941 55.5490084,54.6653053 C55.5490084,55.55728 55.7085708,56.4014703 55.995783,57.1819481 L41.2043538,65.7034919 Z M67.6119216,54.6812334 C67.6119216,57.2138044 65.5535674,59.2685318 63.0165261,59.2685318 C60.4794848,59.2685318 58.4211306,57.2138044 58.4211306,54.6812334 C58.4211306,52.1486624 60.4794848,50.0939351 63.0165261,50.0939351 C65.5535674,50.0939351 67.6119216,52.1486624 67.6119216,54.6812334 Z" id="Shape" fill="#000000"></path>
                </g>
            </g>
        </g>
    </g>
</svg>