<?xml version="1.0" encoding="UTF-8"?>
<svg width="90px" height="114px" viewBox="0 0 90 114" version="1.1" xmlns="http://www.w3.org/2000/svg" xmlns:xlink="http://www.w3.org/1999/xlink">
    <!-- Generator: Sketch 57.1 (83088) - https://sketch.com -->
    <title>fast copy</title>
    <desc>Created with Sketch.</desc>
    <g id="UI" stroke="none" stroke-width="1" fill="none" fill-rule="evenodd">
        <g id="Artboard" transform="translate(-276.000000, -227.000000)">
            <g id="fast-copy" transform="translate(276.000000, 227.000000)">
                <rect id="Rectangle" fill="#FFFFFF" x="0" y="0" width="90" height="114"></rect>
                <g id="startup" transform="translate(12.000000, 27.000000)" fill-rule="nonzero">
                    <rect id="Rectangle" fill="#7D7CFB" x="1" y="53" width="63" height="10"></rect>
                    <path d="M33,69 C32.2227979,69 31.5854922,69.6469428 31.5854922,70.4358974 L31.5854922,74.1282051 L19.4145078,74.1282051 C18.6373057,74.1282051 18,74.7751479 18,75.5641026 C18,76.3530572 18.6373057,77 19.4145078,77 L46.5854922,77 C47.3626943,77 48,76.3530572 48,75.5641026 C48,74.7751479 47.3626943,74.1282051 46.5854922,74.1282051 L34.4145078,74.1282051 L34.4145078,70.4358974 C34.4145078,69.6311637 33.7772021,69 33,69 Z" id="Path" fill="#000000"></path>
                    <path d="M3.38580464,66 L62.6141954,66 C64.4848911,66 66,64.438374 66,62.5102439 L66,20.4897561 C66,18.561626 64.4848911,17 62.6141954,17 L46.040759,17 C45.2677442,17 44.6338721,17.6533333 44.6338721,18.4500813 C44.6338721,19.2468293 45.2677442,19.9001626 46.040759,19.9001626 L62.6141954,19.9001626 C62.9388616,19.9001626 63.2016866,20.1710569 63.2016866,20.5056911 L63.2016866,62.5421138 C63.2016866,62.876748 62.9388616,63.1476423 62.6141954,63.1476423 L3.38580464,63.1476423 C3.06113844,63.1476423 2.79831342,62.876748 2.79831342,62.5421138 L2.79831342,55.5466667 L58.6718201,55.5466667 C59.4448349,55.5466667 60.078707,54.8933333 60.078707,54.0965854 C60.078707,53.2998374 59.4448349,52.6465041 58.6718201,52.6465041 L51.6064652,52.6465041 C51.018974,48.4556098 47.509487,45.220813 43.2888264,45.220813 C42.5158117,45.220813 41.8819396,45.8741463 41.8819396,46.6708943 C41.8819396,47.4676423 42.5158117,48.1209756 43.2888264,48.1209756 C45.9634575,48.1209756 48.2052003,50.0650407 48.7617709,52.6465041 L42.3612087,52.6465041 C41.8200984,48.2006504 38.3879129,44.6630894 34.0744905,44.0894309 L34.0744905,34.0344715 C34.0744905,33.2377236 33.4406184,32.5843902 32.6676037,32.5843902 C31.8945889,32.5843902 31.2607168,33.2377236 31.2607168,34.0344715 L31.2607168,44.1531707 C27.1173577,44.8702439 23.8706957,48.3281301 23.3295854,52.6465041 L16.8981026,52.6465041 C17.4546732,50.0650407 19.696416,48.1209756 22.3710471,48.1209756 C23.1440618,48.1209756 23.7779339,47.4676423 23.7779339,46.6708943 C23.7779339,45.8741463 23.1440618,45.220813 22.3710471,45.220813 C18.1503865,45.220813 14.6408995,48.4556098 14.0534083,52.6465041 L2.08713985,52.6465041 C1.88615601,52.5349593 1.65425158,52.4552846 1.40688686,52.4552846 C0.633872101,52.4552846 0,53.1086179 0,53.9053659 L0,62.5261789 C0.0154602952,64.438374 1.53056922,66 3.38580464,66 Z M32.8685875,46.8780488 C36.1925509,46.8780488 38.9754041,49.3639024 39.547435,52.6305691 L26.2052003,52.6305691 C26.7617709,49.3639024 29.5291637,46.8780488 32.8685875,46.8780488 Z" id="Shape" fill="#000000"></path>
                    <path d="M1.44444444,49 C2.23809524,49 2.88888889,48.3571779 2.88888889,47.5732484 L2.88888889,20.4492896 C2.88888889,20.1200392 3.15873016,19.8535032 3.49206349,19.8535032 L20.5555556,19.8535032 C21.3492063,19.8535032 22,19.210681 22,18.4267516 C22,17.6428221 21.3492063,17 20.5555556,17 L3.47619048,17 C1.55555556,17 0,18.5365017 0,20.433611 L0,47.5575698 C0.0158730159,48.3728564 0.650793651,49 1.44444444,49 Z" id="Path" fill="#000000"></path>
                    <circle id="Oval" fill="#000000" cx="32.5" cy="58.5" r="1.5"></circle>
                    <path d="M20,35.8313975 C20,36.6182091 20.6450598,37.2633945 21.4317181,37.2633945 L24.3580868,37.2633945 L24.3580868,40.568003 C24.3580868,41.3548145 25.0031466,42 25.7898049,42 C26.5764632,42 27.221523,41.3548145 27.221523,40.568003 L27.221523,37.2633945 L27.410321,37.2633945 C28.1969792,37.2633945 28.842039,36.6182091 28.842039,35.8313975 C28.842039,35.044586 28.1969792,34.3994005 27.410321,34.3994005 L22.847703,34.3994005 L22.847703,32.8100412 C22.847703,32.2750094 23.0050346,31.7557138 23.3196979,31.3150993 L25.8999371,27.6170851 C26.5135305,26.7358561 26.843927,25.6972649 26.843927,24.611465 L26.843927,12.2270513 C26.843927,11.0625703 27.2687225,9.92956163 28.0239144,9.04833271 L32.6651982,3.61933308 L37.3222152,9.03259648 C38.0931403,9.92956163 38.5179358,11.0625703 38.5179358,12.2270513 L38.5179358,24.6901461 C38.5179358,25.6815287 38.8011328,26.657175 39.3360604,27.5069314 L41.7432347,31.2993631 C42.0106986,31.7242413 42.152297,32.1963282 42.152297,32.6998876 L42.152297,34.3836643 L37.8256765,34.3836643 C37.0390183,34.3836643 36.3939585,35.0288498 36.3939585,35.8156613 C36.3939585,36.5552641 36.9446193,37.1375047 37.6526117,37.2319221 L37.6526117,40.5522668 C37.6526117,41.3390783 38.2976715,41.9842638 39.0843298,41.9842638 C39.870988,41.9842638 40.5160478,41.3390783 40.5160478,40.5522668 L40.5160478,37.2476583 L43.5682819,37.2476583 C44.3549402,37.2476583 45,36.6024728 45,35.8156613 L45,32.6998876 C45,31.6612964 44.7010699,30.6541776 44.1504091,29.7729487 L41.7432347,25.980517 C41.4915041,25.5871113 41.3656388,25.1464968 41.3656388,24.6901461 L41.3656388,12.2427876 C41.3656388,10.3859123 40.6891126,8.59198202 39.4776589,7.17572124 L33.7193203,0.487823155 C33.4518565,0.173098539 33.0585274,0 32.6337319,0 C32.2246696,0 31.8156073,0.18883477 31.5481435,0.503559386 L25.8370044,7.19145747 C24.6412838,8.59198202 23.9804909,10.3859123 23.9804909,12.2270513 L23.9804909,24.6272012 C23.9804909,25.1150244 23.8388924,25.6028475 23.5556954,25.9962533 L20.9754563,29.6942675 C20.3303965,30.6227051 20,31.6927688 20,32.8257774 L20,35.8313975 L20,35.8313975 Z" id="Path" fill="#000000"></path>
                </g>
            </g>
        </g>
    </g>
</svg>