<?xml version="1.0" encoding="UTF-8"?>
<svg width="545px" height="545px" viewBox="0 0 545 545" version="1.1" xmlns="http://www.w3.org/2000/svg" xmlns:xlink="http://www.w3.org/1999/xlink">
    <!-- Generator: Sketch 57.1 (83088) - https://sketch.com -->
    <title>smartcopy</title>
    <desc>Created with Sketch.</desc>
    <g id="UI" stroke="none" stroke-width="1" fill="none" fill-rule="evenodd">
        <g id="images" transform="translate(-1059.000000, -1205.000000)">
            <g id="smartcopy" transform="translate(1059.000000, 1205.000000)">
                <circle id="Oval" fill="#FFFFFF" cx="272.5" cy="272.5" r="272.5"></circle>
                <g id="transfer-3" transform="translate(137.000000, 133.000000)" fill-rule="nonzero">
                    <path d="M186.55661,51.3114886 C187.614168,52.368597 189.061354,52.9249699 190.452878,52.9249699 C191.844402,52.9249699 193.291588,52.368597 194.349146,51.3114886 C196.519924,49.1416343 196.519924,45.6921225 194.349146,43.5222683 L182.827324,32.0053497 L221.177736,32.0053497 C244.221379,32.0053497 262.979127,50.7551157 262.979127,73.7889528 L262.979127,98.4919085 C262.979127,101.551959 265.42821,104 268.489564,104 C271.550917,104 274,101.551959 274,98.4919085 L274,73.7333155 C274,44.635014 250.288425,20.9335295 221.177736,20.9335295 L182.827324,20.9335295 L194.349146,9.41661094 C196.519924,7.24675672 196.519924,3.79724488 194.349146,1.62739066 C192.178368,-0.542463555 188.727388,-0.542463555 186.55661,1.62739066 L165.628083,22.5470108 C163.457306,24.7168651 163.457306,28.1663769 165.628083,30.3362311 L186.55661,51.3114886 Z" id="Path" fill="#7D7CFB"></path>
                    <path d="M146.509275,274 L267.490725,274 C270.551433,274 273,271.552465 273,268.493047 L273,147.506953 C273,144.447535 270.551433,142 267.490725,142 L146.509275,142 C143.448567,142 141,144.447535 141,147.506953 L141,268.437421 C141,271.496839 143.448567,274 146.509275,274 Z M152.01855,153.013906 L261.98145,153.013906 L261.98145,262.930468 L152.01855,262.930468 L152.01855,153.013906 L152.01855,153.013906 Z" id="Shape" fill="#2C2F33"></path>
                    <path d="M5.51043643,170 C2.44908286,170 0,172.448368 0,175.508828 L0,200.270733 C0,229.372927 23.711575,253.077582 52.8222644,253.077582 L91.1726755,253.077582 L79.6508539,264.596041 C77.4800759,266.766185 77.4800759,270.216158 79.6508539,272.386303 C80.7084124,273.443553 82.1555977,274 83.5471221,274 C84.9386464,274 86.3858318,273.443553 87.4433903,272.386303 L108.371917,251.463884 C110.542694,249.29374 110.542694,245.843767 108.371917,243.673622 L87.4433903,222.751204 C85.2726123,220.581059 81.8216319,220.581059 79.6508539,222.751204 C77.4800759,224.921348 77.4800759,228.371322 79.6508539,230.541466 L91.1726755,242.059925 L52.8222644,242.059925 C29.7786211,242.059925 11.0208729,223.307651 11.0208729,200.270733 L11.0208729,175.508828 C11.0208729,172.448368 8.57179001,170 5.51043643,170 Z" id="Path" fill="#7D7CFB"></path>
                    <path d="M1,5.50927487 L1,126.490725 C1,129.551433 3.44856661,132 6.50927487,132 L127.490725,132 C130.551433,132 133,129.551433 133,126.490725 L133,5.50927487 C133,2.44856661 130.551433,0 127.490725,0 L6.50927487,0 C3.44856661,0 1,2.50421585 1,5.50927487 Z M12.0185497,11.0185497 L121.98145,11.0185497 L121.98145,120.98145 L12.0185497,120.98145 C12.0185497,120.98145 12.0185497,11.0185497 12.0185497,11.0185497 Z" id="Shape" fill="#2C2F33"></path>
                </g>
            </g>
        </g>
    </g>
</svg>