<?xml version="1.0" encoding="UTF-8"?>
<svg width="545px" height="545px" viewBox="0 0 545 545" version="1.1" xmlns="http://www.w3.org/2000/svg" xmlns:xlink="http://www.w3.org/1999/xlink">
    <!-- Generator: Sketch 57.1 (83088) - https://sketch.com -->
    <title>smarteye</title>
    <desc>Created with Sketch.</desc>
    <defs>
        <polygon id="path-1" points="0 0.295793103 58.7062759 0.295793103 58.7062759 58.9985517 0 58.9985517"></polygon>
        <polygon id="path-3" points="0 0.8786 58.7052414 0.8786 58.7052414 59.5182 0 59.5182"></polygon>
        <polygon id="path-5" points="0.4849 0.297655172 59.1203667 0.297655172 59.1203667 59 0.4849 59"></polygon>
    </defs>
    <g id="UI" stroke="none" stroke-width="1" fill="none" fill-rule="evenodd">
        <g id="images" transform="translate(-278.000000, -1205.000000)">
            <g id="smarteye" transform="translate(278.000000, 1205.000000)">
                <circle id="Oval" fill="#FFFFFF" cx="272.5" cy="272.5" r="272.5"></circle>
                <g id="Group-18" transform="translate(136.000000, 135.000000)">
                    <path d="M272,6.6787552 C272,3.5430676 269.458833,1 266.322924,1 L218.679156,1 C215.541167,1 213,3.5430676 213,6.6787552 C213,9.8144428 215.541167,12.3575104 218.679156,12.3575104 L260.641689,12.3575104 L260.641689,54.3191654 C260.641689,57.4569324 263.182856,60 266.322924,60 C269.458833,60 272,57.4569324 272,54.3191654 L272,6.6787552 Z" id="Fill-1" fill="#7D7CFB"></path>
                    <g id="Group-5" transform="translate(0.000000, 215.000000)">
                        <mask id="mask-2" fill="white">
                            <use xlink:href="#path-1"></use>
                        </mask>
                        <g id="Clip-4"></g>
                        <path d="M-0.000620689655,53.3502759 C-0.000620689655,56.4702759 2.52765517,58.9985517 5.64972414,58.9985517 L53.055931,58.9985517 C56.178,58.9985517 58.7062759,56.4702759 58.7062759,53.3502759 C58.7062759,50.2282069 56.178,47.699931 53.055931,47.699931 L11.300069,47.699931 L11.300069,5.9482069 C11.300069,2.82613793 8.77386207,0.295793103 5.64972414,0.295793103 C2.52765517,0.295793103 -0.000620689655,2.82613793 -0.000620689655,5.9482069 L-0.000620689655,53.3502759 Z" id="Fill-3" fill="#7D7CFB" mask="url(#mask-2)"></path>
                    </g>
                    <g id="Group-8">
                        <mask id="mask-4" fill="white">
                            <use xlink:href="#path-3"></use>
                        </mask>
                        <g id="Clip-7"></g>
                        <path d="M53.0548966,0.8786 L5.65075862,0.8786 C2.52662069,0.8786 -0.00165517241,3.4082 -0.00165517241,6.52266667 L-0.00165517241,53.8741333 C-0.00165517241,56.9906667 2.52662069,59.5182 5.65075862,59.5182 C8.77489655,59.5182 11.2990345,56.9906667 11.2990345,53.8741333 L11.2990345,12.1688 L53.0548966,12.1688 C56.1790345,12.1688 58.7052414,9.6392 58.7052414,6.52266667 C58.7052414,3.4082 56.1790345,0.8786 53.0548966,0.8786" id="Fill-6" fill="#7D7CFB" mask="url(#mask-4)"></path>
                    </g>
                    <g id="Group-11" transform="translate(213.000000, 215.000000)">
                        <mask id="mask-6" fill="white">
                            <use xlink:href="#path-5"></use>
                        </mask>
                        <g id="Clip-10"></g>
                        <path d="M59.1203667,5.948 C59.1203667,2.82593103 56.5949,0.297655172 53.4783667,0.297655172 C50.3577,0.297655172 47.8322333,2.82593103 47.8322333,5.948 L47.8322333,47.6997241 L6.12896667,47.6997241 C3.01036667,47.6997241 0.4849,50.228 0.4849,53.350069 C0.4849,56.470069 3.01036667,59.0004138 6.12896667,59.0004138 L53.4783667,59.0004138 C56.5949,59.0004138 59.1203667,56.470069 59.1203667,53.350069 L59.1203667,5.948 Z" id="Fill-9" fill="#7D7CFB" mask="url(#mask-6)"></path>
                    </g>
                    <path d="M136.799007,81.389883 C180.857796,81.389883 222.441394,104.751446 254.278025,147.283129 C222.2689,190.094242 180.498259,213.610117 136.266977,213.610117 C92.1853281,213.610117 50.5830253,190.233957 18.7276902,147.685591 C50.7866933,104.895332 92.5739598,81.389883 136.799007,81.389883 M7.07705033,144.344948 C5.64098322,146.338491 5.64098322,149.028521 7.07705033,151.017893 C41.4242008,198.72945 87.3035312,225 136.266977,225 C185.382134,225 231.425646,198.583479 265.924508,150.611261 C267.358497,148.623974 267.358497,145.933943 265.924508,143.946657 C231.596062,96.2622091 185.737514,70 136.799007,70 C87.7025542,70 41.629947,96.4019239 7.07705033,144.344948" id="Fill-12" fill="#000000"></path>
                    <path d="M136.004156,112.351688 C155.103984,112.351688 170.650646,127.894545 170.650646,147.003117 C170.650646,166.107532 155.103984,181.65039 136.004156,181.65039 C116.896016,181.65039 101.349354,166.107532 101.349354,147.003117 C101.349354,127.894545 116.896016,112.351688 136.004156,112.351688 M136.004156,193 C161.368778,193 182,172.364156 182,147.003117 C182,121.637922 161.368778,101 136.004156,101 C110.637456,101 90,121.637922 90,147.003117 C90,172.364156 110.637456,193 136.004156,193" id="Fill-14" fill="#00FF00"></path>
                    <path d="M136.504191,171 C149.459158,171 160,160.458218 160,147.502096 C160,144.339561 157.439183,141.778516 154.274835,141.778516 C151.114678,141.778516 148.553861,144.339561 148.553861,147.502096 C148.553861,154.147819 143.149322,159.55284 136.504191,159.55284 C129.856965,159.55284 124.448234,154.147819 124.448234,147.502096 C124.448234,140.854276 129.856965,135.44716 136.504191,135.44716 C139.666444,135.44716 142.225165,132.884019 142.225165,129.725676 C142.225165,126.563141 139.666444,124 136.504191,124 C123.540842,124 113,134.541782 113,147.502096 C113,160.458218 123.540842,171 136.504191,171" id="Fill-16" fill="#00FF00"></path>
                </g>
            </g>
        </g>
    </g>
</svg>