<?xml version="1.0" encoding="UTF-8"?>
<svg width="545px" height="545px" viewBox="0 0 545 545" version="1.1" xmlns="http://www.w3.org/2000/svg" xmlns:xlink="http://www.w3.org/1999/xlink">
    <!-- Generator: Sketch 57.1 (83088) - https://sketch.com -->
    <title>smartloader</title>
    <desc>Created with Sketch.</desc>
    <g id="UI" stroke="none" stroke-width="1" fill="none" fill-rule="evenodd">
        <g id="images" transform="translate(-1818.000000, -1415.000000)">
            <g id="smartloader" transform="translate(1818.000000, 1415.000000)">
                <circle id="Oval" fill="#FFFFFF" cx="272.5" cy="272.5" r="272.5"></circle>
                <g id="add" transform="translate(129.000000, 129.000000)" fill-rule="nonzero">
                    <path d="M287,225.179435 L287,5.82056503 C287,2.58691779 284.413082,0 281.179435,0 L61.820565,0 C58.5869178,0 56,2.58691779 56,5.82056503 L56,225.179435 C56,228.413082 58.5869178,231 61.820565,231 L281.179435,231 C284.413082,231 287,228.413082 287,225.179435 Z M275.35887,219.35887 L67.6411301,219.35887 L67.6411301,11.6411301 L275.35887,11.6411301 L275.35887,219.35887 L275.35887,219.35887 Z" id="Shape" fill="#2C2F33"></path>
                    <path d="M5.82056503,287 L225.179435,287 C228.413082,287 231,284.413082 231,281.179435 C231,277.945788 228.413082,275.35887 225.179435,275.35887 L11.6411301,275.35887 L11.6411301,61.820565 C11.6411301,58.5869178 9.05421227,56 5.82056503,56 C2.58691779,56 0,58.5869178 0,61.820565 L0,281.179435 C0,284.413082 2.58691779,287 5.82056503,287 Z" id="Path" fill="#2C2F33"></path>
                    <path d="M124.79779,120.79779 L166.20221,120.79779 L166.20221,162.20221 C166.20221,165.423204 168.779006,168 172,168 C175.220994,168 177.79779,165.423204 177.79779,162.20221 L177.79779,120.79779 L219.20221,120.79779 C222.423204,120.79779 225,118.220994 225,115 C225,111.779006 222.423204,109.20221 219.20221,109.20221 L177.79779,109.20221 L177.79779,67.7977901 C177.79779,64.5767956 175.220994,62 172,62 C168.779006,62 166.20221,64.5767956 166.20221,67.7977901 L166.20221,109.20221 L124.79779,109.20221 C121.576796,109.20221 119,111.779006 119,115 C119,118.220994 121.576796,120.79779 124.79779,120.79779 Z" id="Path" fill="#7D7CFB"></path>
                </g>
            </g>
        </g>
    </g>
</svg>