<?xml version="1.0" encoding="UTF-8"?>
<svg width="90px" height="114px" viewBox="0 0 90 114" version="1.1" xmlns="http://www.w3.org/2000/svg" xmlns:xlink="http://www.w3.org/1999/xlink">
    <!-- Generator: Sketch 57.1 (83088) - https://sketch.com -->
    <title>speed</title>
    <desc>Created with Sketch.</desc>
    <g id="UI" stroke="none" stroke-width="1" fill="none" fill-rule="evenodd">
        <g id="Artboard" transform="translate(-716.000000, -515.000000)">
            <g id="speed" transform="translate(716.000000, 515.000000)">
                <rect id="Rectangle" fill="#F5F5FA" x="0" y="0" width="90" height="114"></rect>
                <g id="computer-1" transform="translate(11.000000, 37.000000)" fill-rule="nonzero">
                    <path d="M62.6167064,55 L2.36825776,55 C1.61646778,55 1,54.4048387 1,53.6790323 L1,46 L64,46 L64,53.6790323 C64,54.4048387 63.3835322,55 62.6167064,55 Z" id="Path" fill="#A7A9AC"></path>
                    <path d="M67.6645161,1 L41.3354839,1 C38.9569892,1 37,2.99164345 37,5.41225627 L37,21.7743733 C37,24.1949861 38.9569892,26.1866295 41.3354839,26.1866295 L44.7376344,26.1866295 L44.7376344,34 L52.7462366,26.1866295 L67.6645161,26.1866295 C70.0430108,26.1866295 72,24.1949861 72,21.7743733 L72,5.41225627 C72,2.97632312 70.0580645,1 67.6645161,1 Z" id="Path" fill="#7D7CFB"></path>
                    <path d="M64.626258,30.0961489 C63.8714547,30.0961489 63.252516,30.7130834 63.252516,31.4654425 L63.252516,44.6016322 L2.73238792,44.6016322 L2.73238792,14.7028819 C2.73238792,13.0777863 4.06084172,11.7385871 5.7063129,11.7385871 L31.8979872,11.7385871 C32.6527905,11.7385871 33.2717292,11.1216526 33.2717292,10.3692935 C33.2717292,9.61693446 32.6527905,9 31.8979872,9 L5.7063129,9 C2.5663312,9 0,11.5580209 0,14.6878347 L0,50.6806937 C0,53.8105075 2.5663312,56.3685284 5.7063129,56.3685284 L31.626258,56.3685284 L31.626258,65.2614129 L19.473925,65.2614129 C18.7191217,65.2614129 18.100183,65.8783474 18.100183,66.6307065 C18.100183,67.3830655 18.7191217,68 19.473925,68 L46.526075,68 C47.2808783,68 47.899817,67.3830655 47.899817,66.6307065 C47.899817,65.8783474 47.2808783,65.2614129 46.526075,65.2614129 L34.373742,65.2614129 L34.373742,56.3685284 L60.2936871,56.3685284 C63.4336688,56.3685284 66,53.8105075 66,50.6806937 L66,31.4503953 C65.9849039,30.6980362 65.3810613,30.0961489 64.626258,30.0961489 Z M60.278591,53.6600357 L5.7063129,53.6600357 C4.07593779,53.6600357 2.73238792,52.3358837 2.73238792,50.6957409 L2.73238792,47.3251721 L63.252516,47.3251721 L63.252516,50.6957409 C63.252516,52.3358837 61.9240622,53.6600357 60.278591,53.6600357 Z" id="Shape" fill="#000000"></path>
                    <path d="M67.3939394,0 L41.5913078,0 C38.5079745,0 36,2.54817987 36,5.68094218 L36,21.6895075 C36,24.8222698 38.5079745,27.3704497 41.5913078,27.3704497 L43.5829346,27.3704497 L43.5829346,33.6509636 C43.5829346,34.1905782 43.907496,34.6852248 44.3943381,34.8950749 C44.5566188,34.9700214 44.7484051,35 44.9254386,35 C45.2647528,35 45.604067,34.8650964 45.8548644,34.6252677 L53.3197767,27.3554604 L67.4086922,27.3554604 C70.4920255,27.3554604 73,24.8072805 73,21.6745182 L73,5.68094218 C72.9852472,2.54817987 70.4772727,0 67.3939394,0 Z M70.314992,21.6745182 C70.314992,23.3083512 69.0167464,24.627409 67.4086922,24.627409 L52.7886762,24.627409 C52.449362,24.627409 52.1100478,24.7623126 51.8592504,25.0021413 L46.2679426,30.4432548 L46.2679426,25.9764454 C46.2679426,25.6167024 46.1204147,25.2719486 45.8696172,25.0171306 C45.6188198,24.7623126 45.2795056,24.6124197 44.9254386,24.6124197 L41.5913078,24.6124197 C39.9832536,24.6124197 38.685008,23.2933619 38.685008,21.6595289 L38.685008,5.68094218 C38.685008,4.04710921 39.9832536,2.72805139 41.5913078,2.72805139 L67.3939394,2.72805139 C69.0019936,2.72805139 70.3002392,4.04710921 70.3002392,5.68094218 L70.3002392,21.6745182 L70.314992,21.6745182 Z" id="Shape" fill="#000000"></path>
                    <path d="M53.5,13 C53.1043956,13 52.7252747,13.1666667 52.4450549,13.4333333 C52.1648352,13.7166667 52,14.1 52,14.5 C52,14.9 52.1648352,15.2833333 52.4450549,15.5666667 C52.7252747,15.85 53.1043956,16 53.5,16 C53.8956044,16 54.2747253,15.8333333 54.5549451,15.5666667 C54.8351648,15.2833333 55,14.9 55,14.5 C55,14.1 54.8351648,13.7166667 54.5549451,13.4333333 C54.2747253,13.15 53.8791209,13 53.5,13 Z" id="Path" fill="#000000"></path>
                    <path d="M59.5,13 C59.1043956,13 58.7252747,13.1666667 58.4450549,13.4333333 C58.1648352,13.7166667 58,14.1 58,14.5 C58,14.9 58.1648352,15.2833333 58.4450549,15.5666667 C58.7252747,15.85 59.1043956,16 59.5,16 C59.8956044,16 60.2747253,15.8333333 60.5549451,15.5666667 C60.8351648,15.2833333 61,14.9 61,14.5 C61,14.1 60.8351648,13.7166667 60.5549451,13.4333333 C60.2747253,13.15 59.8956044,13 59.5,13 Z" id="Path" fill="#000000"></path>
                    <path d="M49.5,13 C49.1043956,13 48.7252747,13.1666667 48.4450549,13.4333333 C48.1648352,13.7166667 48,14.1 48,14.5 C48,14.9 48.1648352,15.2833333 48.4450549,15.5666667 C48.7252747,15.85 49.1043956,16 49.5,16 C49.8956044,16 50.2747253,15.8333333 50.5549451,15.5666667 C50.8351648,15.2833333 51,14.9 51,14.5 C51,14.1 50.8351648,13.7166667 50.5549451,13.4333333 C50.2912088,13.15 49.8956044,13 49.5,13 Z" id="Path" fill="#000000"></path>
                    <path d="M20.6337017,7.7 L31.7662983,7.7 C32.2793212,7.7 32.7,7.0467033 32.7,6.25 C32.7,5.4532967 32.2793212,4.8 31.7662983,4.8 L20.6337017,4.8 C20.1206788,4.8 19.7,5.4532967 19.7,6.25 C19.7102605,7.0467033 20.1206788,7.7 20.6337017,7.7 Z" id="Path" fill="#000000"></path>
                    <path d="M32.7,15.25 C32.7,14.4532967 32.2625,13.8 31.7289634,13.8 L26.6710366,13.8 C26.1375,13.8 25.7,14.4532967 25.7,15.25 C25.7,16.0467033 26.1375,16.7 26.6710366,16.7 L31.7289634,16.7 C32.2625,16.7 32.7,16.0467033 32.7,15.25 Z" id="Path" fill="#000000"></path>
                </g>
            </g>
        </g>
    </g>
</svg>