<?xml version="1.0" encoding="UTF-8"?>
<svg width="90px" height="114px" viewBox="0 0 90 114" version="1.1" xmlns="http://www.w3.org/2000/svg" xmlns:xlink="http://www.w3.org/1999/xlink">
    <!-- Generator: Sketch 57.1 (83088) - https://sketch.com -->
    <title>timezone</title>
    <desc>Created with Sketch.</desc>
    <g id="UI" stroke="none" stroke-width="1" fill="none" fill-rule="evenodd">
        <g id="Artboard" transform="translate(-276.000000, -515.000000)">
            <g id="timezone" transform="translate(276.000000, 515.000000)">
                <rect id="Rectangle" fill="#F5F5FA" x="0" y="0" width="90" height="114"></rect>
                <g id="worldwide" transform="translate(8.000000, 29.000000)" fill-rule="nonzero">
                    <path d="M12.5155493,13.0784136 C25.4467168,-0.195419921 46.7205731,-0.449536102 59.9496938,12.5253372 L56.1805862,12.5701812 C55.361215,12.5851292 54.7206157,13.2428417 54.7206157,14.0649823 C54.7355133,14.8721749 55.3910103,15.5298873 56.1954839,15.5298873 L56.2103815,15.5298873 L63.5400295,15.4401993 C64.3594007,15.4252513 65,14.7675388 65,13.9453982 L64.910614,6.59097694 C64.8957164,5.76883635 64.2402194,5.11112388 63.4208482,5.12607189 C62.601477,5.1410199 61.9608777,5.79873237 61.9608777,6.62087296 L62.0055707,10.4027197 C47.6144326,-3.70820243 24.4634714,-3.42419023 10.4000818,11.0155881 C5.52854751,16.0231717 2.19147201,22.2714402 0.776194463,29.102681 C-0.609287772,35.7545458 -0.132562702,42.6306307 2.14677904,49.0134313 C2.37024392,49.6113517 2.93635494,50 3.53226127,50 C3.69613552,50 3.86000976,49.970104 4.023884,49.9103119 C4.78366458,49.6412477 5.18590136,48.7892111 4.91774351,48.0119146 C0.552729586,35.7694938 3.45777298,22.3760762 12.5155493,13.0784136 Z" id="Path" fill="#000000"></path>
                    <path d="M10.9944293,62.5863868 C17.8622499,69.3096665 26.9051286,73 36.4843229,73 C36.6332995,73 36.7673784,73 36.916355,73 C46.6743213,72.880475 55.7916883,68.9809728 62.5999182,61.9738213 C67.4863502,56.9687131 70.808528,50.7085927 72.2238055,43.8807287 C73.6092878,37.2321521 73.1325627,30.3594662 70.853221,23.9798208 C70.5850631,23.2178491 69.7358966,22.8144523 68.9612183,23.0833835 C68.2014378,23.3523147 67.799201,24.2039301 68.0673588,24.9808424 C72.4472704,37.2172115 69.542227,50.6040083 60.4844507,59.8970749 C54.2125365,66.3215422 45.8400524,69.922232 36.8716621,70.0268163 C27.9181693,70.1314007 19.4562993,66.724939 13.0503062,60.4498779 L16.8194138,60.4050561 C17.638785,60.3901154 18.2793843,59.7327281 18.2793843,58.9109939 C18.2644867,58.1042003 17.6089897,57.446813 16.8045161,57.446813 L16.7896185,57.446813 L9.45997053,57.5364567 C9.07263141,57.5364567 8.70018995,57.7008036 8.41713444,57.9846754 C8.14897658,58.2685472 8,58.6420627 8,59.0305189 L8.08938595,66.3813047 C8.10428361,67.1880982 8.75978058,67.8454856 9.56425414,67.8454856 L9.57915179,67.8454856 C10.398523,67.830545 11.0391223,67.1731576 11.0391223,66.3514234 L10.9944293,62.5863868 Z" id="Path" fill="#000000"></path>
                    <path d="M56.2999155,28.5784148 C53.0517804,20.7578415 45.6952733,15.5639123 37.3302129,15.0593592 C37.1818962,15.0445194 37.0187479,15.0445194 36.8555995,15.0296796 C36.8407679,15.0296796 36.8111045,15.0296796 36.7962729,15.0296796 C36.7072828,15.0296796 36.6182928,15.0148398 36.5293028,15.0148398 C36.5144712,15.0148398 36.4996395,15.0148398 36.4848078,15.0148398 C36.3216595,15.0148398 36.1585112,15 35.9805311,15 C33.088356,15 30.2703392,15.5639123 27.5858074,16.6768971 C22.1574171,18.9177066 17.9303919,23.1470489 15.6908101,28.5784148 C13.4363966,34.0097808 13.4363966,39.9902192 15.6908101,45.4067454 C19.1020936,53.6576728 27.0815307,59 36.0101945,59 C36.1288478,59 36.2326695,59 36.3513228,58.9851602 C36.4106495,58.9851602 36.4848078,59 36.5441345,59 C36.5737978,59 36.6034612,59 36.6182928,58.9851602 C36.7517778,58.9851602 36.8704312,58.9703204 37.0039162,58.9703204 C37.0484112,58.9703204 37.0929062,58.9703204 37.1522329,58.9703204 C37.1967279,58.9703204 37.2263912,58.9703204 37.2708862,58.9554806 C39.7181113,58.8219224 42.1208415,58.2728499 44.4197499,57.3231029 C49.8481402,55.0822934 54.0751654,50.8529511 56.3147472,45.4215852 C58.554329,39.9902192 58.5691606,34.0097808 56.3147472,28.5932546 C56.2999155,28.5932546 56.2999155,28.5932546 56.2999155,28.5784148 C56.2999155,28.5932546 56.2999155,28.5932546 56.2999155,28.5784148 Z M28.3273907,19.5706577 C26.6959073,21.6927487 25.3907206,24.4677909 24.5304839,27.688027 L19.3838953,27.688027 C21.3861704,24.096796 24.5008205,21.2623946 28.3273907,19.5706577 Z M18.0490452,30.6411467 L23.8927222,30.6411467 C23.5515938,32.6445194 23.3736138,34.7814503 23.3736138,37.0222597 C23.3736138,39.2333895 23.5664255,41.3851602 23.9372172,43.4033727 L18.0490452,43.4033727 C16.5658785,39.2482293 16.5658785,34.7814503 18.0490452,30.6411467 Z M19.3838953,46.3268128 L24.6194739,46.3268128 C25.5390373,49.6064081 26.933214,52.4408094 28.6388558,54.6074199 C24.7529589,52.9750422 21.4751604,50.0961214 19.3838953,46.3268128 Z M35.0609678,55.8539629 C31.9908126,54.9487352 29.2617858,51.2684654 27.7044607,46.3268128 L35.0609678,46.3268128 L35.0609678,55.8539629 L35.0609678,55.8539629 Z M35.0609678,43.3885329 L26.9480457,43.3885329 C26.532759,41.3703204 26.310284,39.2185497 26.310284,37.0074199 C26.310284,34.7666105 26.5179273,32.6148398 26.8738873,30.6263069 L35.0609678,30.6263069 L35.0609678,43.3885329 Z M35.0609678,27.7028668 L27.5709757,27.7028668 C29.0689741,22.5979764 31.7980009,18.9919056 35.0609678,18.1608769 L35.0609678,27.7028668 Z M52.6068303,27.688027 L48.5281218,27.688027 C47.7717068,24.8536256 46.688995,22.3753794 45.3244816,20.3868465 C48.3353101,22.0785835 50.8715252,24.5865093 52.6068303,27.688027 Z M37.9976379,18.1460371 C41.2606047,18.9919056 43.9747999,22.5979764 45.48763,27.688027 L37.9976379,27.688027 L37.9976379,18.1460371 Z M37.9976379,30.6411467 L46.1847183,30.6411467 C46.55551,32.6296796 46.7483217,34.7666105 46.7483217,37.0222597 C46.7483217,39.2333895 46.5258467,41.3851602 46.11056,43.4033727 L37.9976379,43.4033727 L37.9976379,30.6411467 Z M37.9976379,55.8539629 L37.9976379,46.3268128 L45.354145,46.3268128 C43.7968199,51.2684654 41.0677931,54.9487352 37.9976379,55.8539629 Z M45.0278483,53.791231 C46.46652,51.7581788 47.6382217,49.2057336 48.4539635,46.3268128 L52.6068303,46.3268128 C50.8418619,49.5025295 48.2314884,52.0698145 45.0278483,53.791231 Z M53.9416804,43.3885329 L49.1213885,43.3885329 C49.4921802,41.3703204 49.6849919,39.2333895 49.6849919,37.0074199 C49.6849919,34.7666105 49.5070118,32.6296796 49.1658835,30.6263069 L53.9416804,30.6263069 C55.4248472,34.7814503 55.4248472,39.2482293 53.9416804,43.3885329 Z" id="Shape" fill="#7D7CFB"></path>
                </g>
            </g>
        </g>
    </g>
</svg>