<?xml version="1.0" encoding="UTF-8"?>
<svg width="90px" height="114px" viewBox="0 0 90 114" version="1.1" xmlns="http://www.w3.org/2000/svg" xmlns:xlink="http://www.w3.org/1999/xlink">
    <!-- Generator: Sketch 57.1 (83088) - https://sketch.com -->
    <title>updates</title>
    <desc>Created with Sketch.</desc>
    <g id="UI" stroke="none" stroke-width="1" fill="none" fill-rule="evenodd">
        <g id="Artboard" transform="translate(-166.000000, -515.000000)">
            <g id="updates" transform="translate(166.000000, 515.000000)">
                <rect id="Rectangle" fill="#F5F5FA" x="0" y="0" width="90" height="114"></rect>
                <g id="padlock" transform="translate(4.000000, 30.000000)" fill-rule="nonzero">
                    <path d="M42.2637564,0 C32.542098,0 23.456882,3.86286732 16.67877,10.8673197 C16.0741496,11.492431 16.0900607,12.5022262 16.7105921,13.111309 C17.3311235,13.7203918 18.3335203,13.7043633 18.9381406,13.079252 C25.1275435,6.68388246 33.4012953,3.17364203 42.2637564,3.17364203 C60.2273446,3.17364203 74.8496099,17.903829 74.8496099,36 C74.8496099,54.096171 60.2273446,68.826358 42.2637564,68.826358 C24.3001683,68.826358 9.677903,54.096171 9.677903,36 L9.677903,34.7016919 L13.5124688,38.5645592 C13.8147789,38.8691006 14.2284665,39.0293856 14.6262431,39.0293856 C15.0240196,39.0293856 15.4377072,38.8691006 15.7400173,38.5645592 C16.3605487,37.9394479 16.3605487,36.9456812 15.7400173,36.3205699 L9.21648223,29.7488869 C8.59595084,29.1237756 7.60946504,29.1237756 6.98893365,29.7488869 L0.465398541,36.3205699 C-0.155132847,36.9456812 -0.155132847,37.9394479 0.465398541,38.5645592 C0.767708705,38.8691006 1.1813963,39.0293856 1.57917283,39.0293856 C1.97694936,39.0293856 2.39063695,38.8691006 2.69294712,38.5645592 L6.52751288,34.7016919 L6.52751288,36 C6.52751288,55.8432769 22.5499516,72 42.2637564,72 C61.9775613,72 78,55.8432769 78,36 C78,16.1567231 61.9616503,0 42.2637564,0 Z" id="Path" fill="#000000"></path>
                    <path d="M55.421976,19 L27.578024,19 C25.0498615,19 23,21.0864662 23,23.6597744 L23,44.0028195 C23,46.5761278 25.0498615,48.662594 27.578024,48.662594 L39.8088643,48.662594 L39.8088643,52.5573308 L35.8970452,52.5573308 C34.9575254,52.5573308 34.2059095,53.3223684 34.2059095,54.2786654 C34.2059095,55.2349624 34.9575254,56 35.8970452,56 L47.1029548,56 C48.0424746,56 48.7940905,55.2349624 48.7940905,54.2786654 C48.7940905,53.3223684 48.0424746,52.5573308 47.1029548,52.5573308 L43.1911357,52.5573308 L43.1911357,48.662594 L55.421976,48.662594 C57.9501385,48.662594 60,46.5761278 60,44.0028195 L60,23.6597744 C60,21.1038534 57.9330563,19 55.421976,19 Z M56.1458333,44.0138359 C56.1458333,44.6793416 55.619315,45.2083333 54.9569209,45.2083333 L27.2722458,45.2083333 C26.6098517,45.2083333 26.0833333,44.6793416 26.0833333,44.0138359 L26.0833333,24.0486641 C26.0833333,23.3831584 26.6098517,22.8541667 27.2722458,22.8541667 L54.9399364,22.8541667 C55.6023305,22.8541667 56.1288489,23.3831584 56.1288489,24.0486641 L56.1288489,44.0138359 L56.1458333,44.0138359 Z" id="Shape" fill="#7D7CFB" transform="translate(41.500000, 37.500000) scale(-1, 1) translate(-41.500000, -37.500000) "></path>
                </g>
            </g>
        </g>
    </g>
</svg>