<?xml version="1.0" encoding="UTF-8"?>
<svg width="90px" height="114px" viewBox="0 0 90 114" version="1.1" xmlns="http://www.w3.org/2000/svg" xmlns:xlink="http://www.w3.org/1999/xlink">
    <!-- Generator: Sketch 57.1 (83088) - https://sketch.com -->
    <title>user-friendly</title>
    <desc>Created with Sketch.</desc>
    <g id="UI" stroke="none" stroke-width="1" fill="none" fill-rule="evenodd">
        <g id="Artboard" transform="translate(-496.000000, -515.000000)">
            <g id="user-friendly" transform="translate(496.000000, 515.000000)">
                <rect id="Rectangle" fill="#F5F5FA" x="0" y="0" width="90" height="114"></rect>
                <g id="user-5" transform="translate(16.500000, 28.000000)" fill-rule="nonzero">
                    <path d="M38.7899194,61.8027802 L29.4944836,71 L29.4798681,70.985539 L29.4798681,70.985539 L20.1990478,61.7883191 C17.9336507,59.5468583 17.9336507,55.9171379 20.1990478,53.6756771 C22.4644449,51.4342163 26.1329266,51.4486773 28.3983237,53.6756771 L29.5237145,54.789177 L30.6344899,53.6901381 C32.899887,51.4486773 36.5683687,51.4486773 38.8337658,53.6901381 C41.069932,55.931599 41.0553165,59.5613194 38.7899194,61.8027802 Z" id="XMLID_11967_" fill="#7D7CFB"></path>
                    <path d="M18.9692737,28.1403964 L18.9692737,38.0259556 C16.7305739,39.1557338 9.60208228,42.9613025 2.98908075,48.446673 C1.3984256,49.7548372 0.5,51.702218 0.5,53.7833884 L0.5,61.6472393 C0.5,62.3905144 1.10385983,63 1.84027425,63 C2.57668867,63 3.1805485,62.3905144 3.1805485,61.6472393 L3.1805485,53.7833884 C3.1805485,52.5198207 3.74022346,51.3305805 4.69756221,50.5278433 C11.6493144,44.7600283 19.1901981,40.9247286 20.6188421,40.2111845 C21.2521585,39.899009 21.6498222,39.2449269 21.6498222,38.5462482 L21.6498222,27.4714488 C21.6498222,27.0254837 21.4288979,26.5943841 21.0606907,26.3565361 C20.0002539,25.642992 19.3669375,24.4537518 19.3669375,23.1753185 L19.3669375,11.684285 C19.3669375,6.71920717 23.3583037,2.69065597 28.2775521,2.69065597 L30.7224479,2.69065597 C35.6416963,2.69065597 39.6330625,6.71920717 39.6330625,11.684285 L39.6330625,23.160453 C39.6330625,24.4388863 38.9997461,25.6281265 37.9393093,26.3416706 C37.5711021,26.5943841 37.3501778,27.0106182 37.3501778,27.4565833 L37.3501778,38.5313827 C37.3501778,39.2300613 37.7625698,39.899009 38.3811579,40.196319 C39.8245302,40.9098631 47.3506856,44.7451628 54.3024378,50.5129778 C55.2597765,51.315715 55.8194515,52.5049552 55.8194515,53.7685229 L55.8194515,61.6472393 C55.8194515,62.3905144 56.4233113,63 57.1597257,63 C57.8961402,63 58.5,62.3905144 58.5,61.6472393 L58.5,53.7833884 C58.5,51.702218 57.5868461,49.7548372 56.0109192,48.446673 C49.3979177,42.9613025 42.2694261,39.1705993 40.0307263,38.0259556 L40.0307263,28.1403964 C41.4740985,26.9065597 42.313611,25.0929684 42.313611,23.160453 L42.313611,11.684285 C42.313611,5.23265691 37.1145251,0 30.7371762,0 L28.2922803,0 C21.9002031,0 16.7158456,5.24752242 16.7158456,11.684285 L16.7158456,23.160453 C16.686389,25.0929684 17.5259015,26.9065597 18.9692737,28.1403964 Z" id="Path" fill="#000000"></path>
                    <path d="M34.297866,51 C32.3713693,51 30.548607,51.75 29.1852401,53.1029412 L29.0074096,53.2794118 L28.8295791,53.1029412 C27.4662122,51.75 25.6434499,51 23.7169532,51 C21.7904564,51 19.9825133,51.75 18.6191464,53.1029412 C17.2557795,54.4558824 16.5,56.25 16.5,58.1764706 C16.5,60.0882353 17.2557795,61.8823529 18.6191464,63.2352941 L28.0441612,72.5882353 L28.0589804,72.6029412 C28.3109069,72.8529412 28.6517487,73 29.0074096,73 L29.0074096,73 C29.3630705,73 29.7039123,72.8529412 29.9558388,72.6029412 L39.3808536,63.25 C40.7442205,61.8970588 41.5,60.1029412 41.5,58.1911765 C41.5,56.2794118 40.7590397,54.4705882 39.3808536,53.1176471 C38.0323059,51.75 36.2243628,51 34.297866,51 Z M37.4839953,61.3529412 L29.0074096,69.7647059 L20.5160047,61.3382353 C19.6564908,60.4852941 19.1822762,59.3529412 19.1822762,58.1617647 C19.1822762,56.9558824 19.6564908,55.8382353 20.5011855,54.9852941 C21.3606995,54.1323529 22.4869591,53.6764706 23.702134,53.6764706 C24.9173088,53.6764706 26.0583877,54.1470588 26.9179016,55 L28.0589804,56.1323529 C28.3109069,56.3823529 28.6517487,56.5294118 29.0074096,56.5294118 C29.3630705,56.5294118 29.7039123,56.3823529 29.9558388,56.1323529 L31.0820984,55.0147059 C31.9416123,54.1617647 33.0826912,53.6911765 34.2830468,53.6911765 C35.4982217,53.6911765 36.6244813,54.1617647 37.4839953,55.0147059 C38.3435092,55.8676471 38.8177238,57 38.8029046,58.1911765 C38.8177238,59.3676471 38.3435092,60.5 37.4839953,61.3529412 Z" id="Shape" fill="#000000"></path>
                </g>
            </g>
        </g>
    </g>
</svg>